<svg width="16" height="16" viewBox="0 0 16 16" fill="none" xmlns="http://www.w3.org/2000/svg">
<g id="user-plus">
<ellipse id="Oval" cx="5.99967" cy="4.66667" rx="2.66667" ry="2.66667" stroke="#002680" stroke-width="1.5" stroke-linecap="round" stroke-linejoin="round"/>
<path id="Path" d="M2 14V12.6667C2 11.1939 3.19391 10 4.66667 10H7.33333C8.80609 10 10 11.1939 10 12.6667V14" stroke="#002680" stroke-width="1.5" stroke-linecap="round" stroke-linejoin="round"/>
<path id="Shape" d="M10.667 6.58331C10.2528 6.58331 9.91699 6.9191 9.91699 7.33331C9.91699 7.74753 10.2528 8.08331 10.667 8.08331V6.58331ZM14.667 8.08331C15.0812 8.08331 15.417 7.74753 15.417 7.33331C15.417 6.9191 15.0812 6.58331 14.667 6.58331V8.08331ZM13.417 5.33331C13.417 4.9191 13.0812 4.58331 12.667 4.58331C12.2528 4.58331 11.917 4.9191 11.917 5.33331H13.417ZM11.917 9.33331C11.917 9.74753 12.2528 10.0833 12.667 10.0833C13.0812 10.0833 13.417 9.74753 13.417 9.33331H11.917ZM10.667 8.08331H14.667V6.58331H10.667V8.08331ZM11.917 5.33331V9.33331H13.417V5.33331H11.917Z" fill="#002680"/>
</g>
</svg>
