<svg width="24" height="25" viewBox="0 0 24 25" fill="none" xmlns="http://www.w3.org/2000/svg">
<g id="brand-ubuntu">
<circle id="Oval" cx="12" cy="5.52539" r="2" stroke="#002680" stroke-width="1.5" stroke-linecap="round" stroke-linejoin="round"/>
<path id="Shape" d="M17.1862 8.45914C17.4754 8.75565 17.9503 8.76154 18.2468 8.47231C18.5433 8.18307 18.5492 7.70824 18.2599 7.41173L17.1862 8.45914ZM14.169 5.04684C13.7677 4.94417 13.3591 5.18625 13.2565 5.58754C13.1538 5.98883 13.3959 6.39737 13.7972 6.50003L14.169 5.04684ZM10.1984 6.49993C10.5996 6.39703 10.8415 5.98835 10.7386 5.58712C10.6357 5.18589 10.227 4.94405 9.82575 5.04695L10.1984 6.49993ZM5.68122 7.47088C5.39483 7.77014 5.40525 8.24489 5.70451 8.53129C6.00376 8.81768 6.47852 8.80725 6.76491 8.50799L5.68122 7.47088ZM5.06 11.4214C5.17982 11.0249 4.95552 10.6063 4.55901 10.4865C4.1625 10.3667 3.74394 10.591 3.62413 10.9875L5.06 11.4214ZM4.00006 13.5244H4.75006L4.75006 13.5239L4.00006 13.5244ZM3.56398 15.8556C3.67397 16.2549 4.08686 16.4895 4.4862 16.3795C4.88555 16.2695 5.12012 15.8566 5.01014 15.4573L3.56398 15.8556ZM6.78665 18.5636C6.499 18.2656 6.0242 18.2571 5.72615 18.5448C5.42811 18.8324 5.41968 19.3072 5.70733 19.6053L6.78665 18.5636ZM9.81905 22.0008C10.2202 22.104 10.6291 21.8625 10.7323 21.4614C10.8356 21.0602 10.5941 20.6514 10.1929 20.5481L9.81905 22.0008ZM13.8161 20.5454C13.4151 20.6492 13.1742 21.0584 13.278 21.4594C13.3818 21.8604 13.791 22.1013 14.192 21.9975L13.8161 20.5454ZM18.2906 19.6064C18.5783 19.3084 18.57 18.8336 18.272 18.5459C17.974 18.2582 17.4992 18.2665 17.2115 18.5645L18.2906 19.6064ZM18.99 15.4565C18.8801 15.8558 19.1147 16.2687 19.5141 16.3786C19.9135 16.4885 20.3263 16.2538 20.4362 15.8544L18.99 15.4565ZM20.0001 13.5244H19.2501V13.525L20.0001 13.5244ZM20.4142 11.1154C20.3004 10.7171 19.8853 10.4865 19.4871 10.6003C19.0888 10.7141 18.8582 11.1292 18.972 11.5275L20.4142 11.1154ZM18.2599 7.41173C17.1392 6.26284 15.7239 5.44465 14.169 5.04684L13.7972 6.50003C15.0853 6.82959 16.2578 7.50739 17.1862 8.45914L18.2599 7.41173ZM9.82575 5.04695C8.2451 5.45233 6.80945 6.29197 5.68122 7.47088L6.76491 8.50799C7.69958 7.53134 8.88892 6.83575 10.1984 6.49993L9.82575 5.04695ZM3.62413 10.9875C3.37547 11.8104 3.24943 12.6654 3.25006 13.525L4.75006 13.5239C4.74954 12.8116 4.85397 12.1032 5.06 11.4214L3.62413 10.9875ZM3.25006 13.5244C3.25006 14.3305 3.35932 15.1124 3.56398 15.8556L5.01014 15.4573C4.84081 14.8425 4.75006 14.1944 4.75006 13.5244H3.25006ZM5.70733 19.6053C6.83006 20.7686 8.25336 21.5978 9.81905 22.0008L10.1929 20.5481C8.89586 20.2143 7.71675 19.5273 6.78665 18.5636L5.70733 19.6053ZM14.192 21.9975C15.7525 21.5935 17.171 20.766 18.2906 19.6064L17.2115 18.5645C16.284 19.5252 15.1089 20.2107 13.8161 20.5454L14.192 21.9975ZM20.4362 15.8544C20.6451 15.0952 20.7507 14.3113 20.7501 13.5238L19.2501 13.525C19.2506 14.1776 19.1631 14.8273 18.99 15.4565L20.4362 15.8544ZM20.7501 13.5244C20.7501 12.6901 20.6332 11.8818 20.4142 11.1154L18.972 11.5275C19.153 12.1611 19.2501 12.8308 19.2501 13.5244H20.7501Z" fill="#002680"/>
<circle id="Oval_2" cx="5" cy="17.5254" r="2" stroke="#002680" stroke-width="1.5" stroke-linecap="round" stroke-linejoin="round"/>
<circle id="Oval_3" cx="19" cy="17.5254" r="2" stroke="#002680" stroke-width="1.5" stroke-linecap="round" stroke-linejoin="round"/>
</g>
</svg>
