<svg width="24" height="25" viewBox="0 0 24 25" fill="none" xmlns="http://www.w3.org/2000/svg">
<g id="record type">
<path id="Vector" d="M12 16.7881C11.4696 16.7881 10.9609 16.5774 10.5858 16.2023C10.2107 15.8272 10 15.3185 10 14.7881C10 14.2577 10.2107 13.7489 10.5858 13.3739C10.9609 12.9988 11.4696 12.7881 12 12.7881M12 16.7881C12.5304 16.7881 13.0391 16.5774 13.4142 16.2023C13.7893 15.8272 14 15.3185 14 14.7881C14 14.2577 13.7893 13.7489 13.4142 13.3739C13.0391 12.9988 12.5304 12.7881 12 12.7881M12 16.7881V18.2881M12 12.7881V11.2881M15.031 13.0381L13.732 13.7881M10.268 15.7881L8.96802 16.5381M15 16.5911L13.715 15.8181M10.285 13.7581L9 12.9851M14 3.78809V7.78809C14 8.0533 14.1054 8.30766 14.2929 8.49519C14.4804 8.68273 14.7348 8.78809 15 8.78809H19M14 3.78809H7C6.46957 3.78809 5.96086 3.9988 5.58579 4.37387C5.21071 4.74895 5 5.25765 5 5.78809V19.7881C5 20.3185 5.21071 20.8272 5.58579 21.2023C5.96086 21.5774 6.46957 21.7881 7 21.7881H17C17.5304 21.7881 18.0391 21.5774 18.4142 21.2023C18.7893 20.8272 19 20.3185 19 19.7881V8.78809M14 3.78809L19 8.78809" stroke="#002680" stroke-width="1.5" stroke-linecap="round" stroke-linejoin="round"/>
</g>
</svg>
