<svg width="32" height="32" viewBox="0 0 32 32" fill="none" xmlns="http://www.w3.org/2000/svg">
<g clip-path="url(#clip0_7669_101394)">
<path d="M0 16C0 7.16344 7.16344 0 16 0C24.8366 0 32 7.16344 32 16C32 24.8366 24.8366 32 16 32C7.16344 32 0 24.8366 0 16Z" fill="#EEEDF0"/>
<path d="M10.4696 10.088H11.5756L15.7896 20H14.4176L13.4096 17.564H8.45358L7.43158 20H6.10158L10.4696 10.088ZM11.0016 11.6H10.9736L8.91558 16.472H12.9616L11.0016 11.6ZM20.577 10.088H21.683L25.897 20H24.525L23.517 17.564H18.561L17.539 20H16.209L20.577 10.088ZM21.109 11.6H21.081L19.023 16.472H23.069L21.109 11.6Z" fill="#2A2A2A"/>
</g>
<defs>
<clipPath id="clip0_7669_101394">
<path d="M0 16C0 7.16344 7.16344 0 16 0C24.8366 0 32 7.16344 32 16C32 24.8366 24.8366 32 16 32C7.16344 32 0 24.8366 0 16Z" fill="white"/>
</clipPath>
</defs>
</svg>
