<svg width="100" height="100" viewBox="0 0 100 100" fill="none" xmlns="http://www.w3.org/2000/svg">
<path d="M0 6C0 2.68629 2.68629 0 6 0H94C97.3137 0 100 2.68629 100 6V94C100 97.3137 97.3137 100 94 100H6C2.68629 100 0 97.3137 0 94V6Z" fill="#EEEDF0"/>
<path d="M41.6014 41.84H43.7814L49.8814 56H47.0014L45.6814 52.76H39.5414L38.2614 56H35.4414L41.6014 41.84ZM44.8014 50.6L42.6214 44.84L40.4014 50.6H44.8014ZM56.285 41.84H58.465L64.565 56H61.685L60.365 52.76H54.225L52.945 56H50.125L56.285 41.84ZM59.485 50.6L57.305 44.84L55.085 50.6H59.485Z" fill="#2F2B3D" fill-opacity="0.9"/>
</svg>
