<svg width="32" height="32" viewBox="0 0 32 32" fill="none" xmlns="http://www.w3.org/2000/svg">
<path d="M0.5 16C0.5 7.43959 7.43959 0.5 16 0.5C24.5604 0.5 31.5 7.43959 31.5 16C31.5 24.5604 24.5604 31.5 16 31.5C7.43959 31.5 0.5 24.5604 0.5 16Z" fill="white"/>
<path d="M0.5 16C0.5 7.43959 7.43959 0.5 16 0.5C24.5604 0.5 31.5 7.43959 31.5 16C31.5 24.5604 24.5604 31.5 16 31.5C7.43959 31.5 0.5 24.5604 0.5 16Z" stroke="#D4D4D4"/>
<g clip-path="url(#clip0_9349_44606)">
<path d="M20.138 13.0785L19.6768 12.5783L18.8751 12.958C18.8471 12.9149 18.7988 12.8861 18.7443 12.8861C18.7101 12.8861 18.6787 12.8975 18.6532 12.9169L18.0622 12.3156C18.0888 12.2868 18.1056 12.2476 18.1056 12.205C18.1056 12.1312 18.0569 12.0692 17.9904 12.0503L18.1852 11.0877C18.2687 11.0842 18.3357 11.0138 18.3357 10.9271L19.3932 10.757L19.3859 10.7079L18.328 10.878C18.3078 10.813 18.2494 10.7659 18.1795 10.7659C18.1409 10.7659 18.1061 10.7808 18.0791 10.8046L17.0878 9.82359C17.0994 9.80128 17.1066 9.776 17.1066 9.74873C17.1066 9.6595 17.0362 9.58762 16.9498 9.58762C16.8741 9.58762 16.8109 9.64314 16.7959 9.71651L16.0072 9.61092C16.0063 9.57821 15.9957 9.54846 15.9788 9.52368L16.6131 8.93576C16.6406 8.95955 16.6754 8.97442 16.7139 8.97442C16.8008 8.97442 16.8707 8.90205 16.8707 8.81331C16.8707 8.72458 16.8003 8.6522 16.7139 8.6522C16.672 8.6522 16.6339 8.66956 16.6054 8.69732L15.809 8.24968C15.8143 8.23382 15.8177 8.21696 15.8177 8.19912C15.8177 8.10989 15.7472 8.03801 15.6609 8.03801C15.5895 8.03801 15.5302 8.08709 15.5109 8.15401L14.7511 8.13616C14.7395 8.05883 14.6754 7.99934 14.5967 7.99934C14.5099 7.99934 14.4399 8.07172 14.4399 8.16045C14.4399 8.24919 14.5104 8.32156 14.5967 8.32156C14.6749 8.32156 14.739 8.26257 14.7511 8.18573L15.5041 8.20358C15.5065 8.29033 15.5755 8.36023 15.6604 8.36023C15.7125 8.36023 15.7583 8.33395 15.7868 8.2938L16.576 8.73697C16.5639 8.75978 16.5567 8.78506 16.5567 8.81282C16.5567 8.84405 16.5658 8.87329 16.5808 8.89808L15.9445 9.48749C15.9185 9.46716 15.8862 9.45477 15.8505 9.45477C15.7795 9.45477 15.7207 9.50335 15.7009 9.56928L14.1206 9.35761C14.1206 9.35414 14.1216 9.35067 14.1216 9.3472C14.1216 9.25797 14.0511 9.18609 13.9648 9.18609C13.8784 9.18609 13.808 9.25847 13.808 9.3472C13.808 9.38388 13.8205 9.4171 13.8403 9.44436L12.8538 10.1874C12.8254 10.1582 12.7863 10.1399 12.7429 10.1399C12.6942 10.1399 12.6512 10.1632 12.6223 10.1988L11.9831 9.63174C11.9981 9.60696 12.0072 9.57821 12.0072 9.54698C12.0072 9.45775 11.9368 9.38587 11.8505 9.38587C11.7641 9.38587 11.6937 9.45824 11.6937 9.54698C11.6937 9.54945 11.6942 9.55144 11.6942 9.55392L10.5808 9.78442C10.5586 9.72295 10.5017 9.67884 10.4342 9.67884C10.3473 9.67884 10.2774 9.75121 10.2774 9.83994C10.2774 9.92868 10.3478 10.0011 10.4342 10.0011C10.5205 10.0011 10.5909 9.92868 10.5909 9.83994C10.5909 9.83747 10.5904 9.83548 10.5904 9.833L11.7038 9.6025C11.726 9.66396 11.7829 9.70808 11.8505 9.70808C11.889 9.70808 11.9243 9.69321 11.9513 9.66942L12.5972 10.242C12.59 10.2603 12.5861 10.2801 12.5861 10.301C12.5861 10.3277 12.5933 10.353 12.6044 10.3753L11.8148 10.9702C11.7858 10.934 11.7429 10.9102 11.6937 10.9102C11.6107 10.9102 11.5437 10.9761 11.5379 11.0599L9.3753 11.1997C9.36276 11.1239 9.2986 11.0659 9.22094 11.0659C9.13411 11.0659 9.06416 11.1382 9.06416 11.227C9.06416 11.3157 9.13459 11.3881 9.22094 11.3881C9.30005 11.3881 9.36469 11.3276 9.37578 11.2493L11.5412 11.1095C11.5581 11.1799 11.6194 11.2324 11.6932 11.2324C11.78 11.2324 11.85 11.16 11.85 11.0713C11.85 11.0505 11.8456 11.0312 11.8389 11.0128L12.6319 10.4155C12.6604 10.4442 12.6995 10.4621 12.7424 10.4621C12.8292 10.4621 12.8992 10.3897 12.8992 10.301C12.8992 10.2742 12.8924 10.2499 12.8813 10.2276L13.8751 9.47906C13.9006 9.4974 13.931 9.50781 13.9643 9.50781C14.0304 9.50781 14.0868 9.46568 14.11 9.4057L15.6932 9.61737C15.6946 9.70511 15.7641 9.776 15.85 9.776C15.9219 9.776 15.9817 9.72593 16.0005 9.65851L16.794 9.7646C16.8027 9.8454 16.8683 9.90835 16.9493 9.90835C16.9918 9.90835 17.0304 9.891 17.0589 9.86225L18.0473 10.8403C18.0318 10.8651 18.0232 10.8943 18.0232 10.9256C18.0232 10.9994 18.0719 11.0614 18.1384 11.0802L17.9436 12.0429C17.8601 12.0464 17.7931 12.1168 17.7931 12.2035C17.7931 12.2253 17.7974 12.2462 17.8051 12.265L17.1201 12.6809C17.0917 12.6422 17.0468 12.617 16.9957 12.617C16.9219 12.617 16.8606 12.669 16.8437 12.7394L14.809 12.5679C14.809 12.5679 14.8095 12.5629 14.8095 12.5604C14.8095 12.4712 14.739 12.3993 14.6527 12.3993C14.5663 12.3993 14.4959 12.4717 14.4959 12.5604C14.4959 12.5892 14.5041 12.616 14.5171 12.6398L12.9194 13.6956L10.7651 13.8969C10.7482 13.827 10.6869 13.775 10.6136 13.775C10.5297 13.775 10.4616 13.8429 10.4573 13.9281L9.59865 14.0213C9.5808 13.9524 9.5205 13.9014 9.44766 13.9014C9.41534 13.9014 9.38591 13.9113 9.36083 13.9286L8.93198 13.4473C8.95369 13.4195 8.96671 13.3853 8.96671 13.3471C8.96671 13.2579 8.89629 13.186 8.80994 13.186C8.72359 13.186 8.65316 13.2584 8.65316 13.3471C8.65316 13.4359 8.72359 13.5083 8.80994 13.5083C8.84226 13.5083 8.87168 13.4983 8.89677 13.481L9.32562 13.9623C9.30391 13.9901 9.29088 14.0243 9.29088 14.0625C9.29088 14.0848 9.29522 14.1056 9.30294 14.1249L8.87361 14.3872C8.84467 14.3515 8.80174 14.3282 8.7535 14.3282C8.66667 14.3282 8.59672 14.4005 8.59672 14.4893C8.59672 14.578 8.66715 14.6504 8.7535 14.6504C8.83985 14.6504 8.91027 14.578 8.91027 14.4893C8.91027 14.468 8.90593 14.4476 8.8987 14.4288L9.32754 14.1651C9.35649 14.2008 9.39894 14.2236 9.44766 14.2236C9.5316 14.2236 9.59961 14.1557 9.60396 14.0704L10.4626 13.9772C10.4684 13.9995 10.479 14.0203 10.493 14.0377L9.4877 15.1957C9.4631 15.1793 9.43415 15.1694 9.4028 15.1694C9.31597 15.1694 9.24602 15.2418 9.24602 15.3305C9.24602 15.4192 9.31645 15.4916 9.4028 15.4916C9.44959 15.4916 9.49156 15.4698 9.52002 15.4366L11.2841 16.5896C11.2793 16.605 11.2759 16.6214 11.2759 16.6382C11.2759 16.7274 11.3464 16.7993 11.4327 16.7993C11.5191 16.7993 11.5895 16.7269 11.5895 16.6382C11.5895 16.5495 11.5191 16.4771 11.4327 16.4771C11.3801 16.4771 11.3338 16.5039 11.3054 16.545L9.54655 15.3955C9.55475 15.3756 9.55958 15.3538 9.55958 15.331C9.55958 15.2923 9.54559 15.2571 9.5234 15.2294L10.5287 14.0714C10.5533 14.0877 10.5822 14.0977 10.6136 14.0977C10.6966 14.0977 10.7641 14.0307 10.7694 13.947L12.9301 13.7452H12.9358L14.547 12.6799C14.575 12.7062 14.6122 12.723 14.6527 12.723C14.7202 12.723 14.7771 12.6794 14.7993 12.6179L16.8394 12.79C16.8447 12.8737 16.9122 12.9407 16.9952 12.9407C17.0304 12.9407 17.0627 12.9283 17.0892 12.9079L17.974 13.8999C17.9585 13.9247 17.9493 13.9544 17.9493 13.9861C17.9493 14.0317 17.9677 14.0724 17.9976 14.1016L16.4973 16.4474C16.4742 16.4335 16.4477 16.4251 16.4192 16.4251C16.3343 16.4251 16.2658 16.494 16.2629 16.5802L15.8698 16.6233C15.8538 16.5515 15.7916 16.4974 15.7168 16.4974C15.631 16.4974 15.561 16.5688 15.5601 16.6571L13.4737 16.8856C13.4501 16.8276 13.3941 16.7869 13.329 16.7869C13.2422 16.7869 13.1722 16.8593 13.1722 16.948C13.1722 16.9594 13.1737 16.9708 13.1756 16.9817L10.8939 18.1888C10.8659 18.1447 10.8177 18.1155 10.7627 18.1155C10.6831 18.1155 10.6179 18.1769 10.6078 18.2557L9.67535 18.0178C9.67535 18.0153 9.67631 18.0123 9.67631 18.0099C9.67631 17.9206 9.60589 17.8488 9.51954 17.8488C9.50072 17.8488 9.48336 17.8527 9.46696 17.8587L8.25904 15.3533C8.29281 15.3236 8.31452 15.2804 8.31452 15.2314C8.31452 15.1654 8.27593 15.1094 8.22142 15.0841L8.4028 11.2141C8.48384 11.2081 8.548 11.1392 8.548 11.054C8.548 11.0168 8.53546 10.9831 8.51471 10.9558L12.1042 7.86996C12.1331 7.90714 12.1766 7.93094 12.2262 7.93094C12.3131 7.93094 12.383 7.85856 12.383 7.76983C12.383 7.76685 12.3825 7.76437 12.3821 7.7614L15.4293 7.62062L15.4274 7.57104L12.3724 7.71232C12.3497 7.65185 12.2933 7.60872 12.2262 7.60872C12.1394 7.60872 12.0695 7.68109 12.0695 7.76983C12.0695 7.78966 12.0733 7.80849 12.0801 7.82634L8.47853 10.9211C8.45345 10.9033 8.42306 10.8928 8.39026 10.8928C8.30343 10.8928 8.23348 10.9652 8.23348 11.054C8.23348 11.1298 8.28461 11.1933 8.35359 11.2101L8.1727 15.0713C8.16739 15.0708 8.16208 15.0698 8.15678 15.0698C8.06995 15.0698 8 15.1421 8 15.2309C8 15.3196 8.07043 15.392 8.15678 15.392C8.178 15.392 8.19875 15.3875 8.21708 15.3796L9.42354 17.882C9.3864 17.9112 9.36179 17.9573 9.36179 18.0094C9.36179 18.0986 9.43222 18.1705 9.51857 18.1705C9.58562 18.1705 9.64255 18.1269 9.66474 18.0659L10.6078 18.3063C10.6175 18.3584 10.6517 18.401 10.6975 18.4223L10.713 18.8109C10.6435 18.8273 10.5914 18.8913 10.5914 18.9676C10.5914 19.0568 10.6618 19.1287 10.7482 19.1287C10.7984 19.1287 10.8423 19.1044 10.8707 19.0667L12.4906 19.8757C12.4824 19.8951 12.4776 19.9169 12.4776 19.9397C12.4776 20.0289 12.548 20.1008 12.6343 20.1008C12.7207 20.1008 12.7911 20.0284 12.7911 19.9397C12.7911 19.9362 12.7902 19.9332 12.7902 19.9303L15.1187 19.2348L15.807 20.8196L17.1182 21.4923L16.2986 20.0175L16.4732 18.3346C16.5557 18.3301 16.6218 18.2602 16.6218 18.1744C16.6218 18.0887 16.5514 18.0133 16.465 18.0133C16.4356 18.0133 16.4086 18.0223 16.3849 18.0366L15.6758 17.1027L15.7361 16.8177C15.808 16.8077 15.864 16.7478 15.8702 16.6729L16.2668 16.6298C16.2851 16.6977 16.3454 16.7478 16.4173 16.7478C16.5041 16.7478 16.574 16.6754 16.574 16.5867C16.574 16.545 16.5581 16.5073 16.533 16.4786L18.0352 14.1299C18.056 14.1403 18.0796 14.1472 18.1042 14.1472C18.191 14.1472 18.261 14.0749 18.261 13.9861C18.261 13.9727 18.259 13.9603 18.2562 13.948L20.137 13.079L20.138 13.0785ZM16.3488 18.0689C16.3242 18.0971 16.3092 18.1343 16.3092 18.1749C16.3092 18.2498 16.3594 18.3123 16.4264 18.3301L16.2504 20.0284L16.9986 21.3753L15.8452 20.7839L15.1466 19.1758L12.7815 19.8822C12.7588 19.8222 12.7024 19.7791 12.6358 19.7791C12.5885 19.7791 12.547 19.8009 12.5181 19.8346L10.8953 19.0241C10.9016 19.0068 10.9055 18.9879 10.9055 18.9681C10.9055 18.8833 10.8418 18.8149 10.7612 18.8085L10.7463 18.4362C10.7516 18.4367 10.7564 18.4377 10.7617 18.4377C10.8485 18.4377 10.9185 18.3653 10.9185 18.2766C10.9185 18.2617 10.9161 18.2478 10.9122 18.2339L13.1925 17.0278C13.2195 17.0764 13.2697 17.1091 13.328 17.1091C13.4149 17.1091 13.4848 17.0368 13.4848 16.948C13.4848 16.9436 13.4838 16.9391 13.4834 16.9342L15.5663 16.7061C15.5832 16.7626 15.6295 16.8063 15.6874 16.8172L15.6242 17.1156L16.3478 18.0689H16.3488ZM17.8292 12.3081C17.8582 12.3428 17.9006 12.3656 17.9484 12.3656C17.9754 12.3656 18.001 12.3577 18.0232 12.3453L18.6189 12.9516C18.5996 12.9783 18.5876 13.0115 18.5876 13.0472C18.5876 13.1365 18.658 13.2083 18.7443 13.2083C18.8307 13.2083 18.9011 13.136 18.9011 13.0472C18.9011 13.0319 18.8982 13.0175 18.8944 13.0031L19.6652 12.6383L20.056 13.0616L18.2383 13.9014C18.2108 13.8553 18.1616 13.824 18.1052 13.824C18.0671 13.824 18.0323 13.8384 18.0053 13.8617L17.122 12.8718C17.1404 12.8455 17.151 12.8133 17.151 12.7786C17.151 12.7597 17.1471 12.7419 17.1413 12.725L17.8288 12.3076L17.8292 12.3081ZM12.6758 12.2159L14.0815 11.3281C14.0767 11.3122 14.0733 11.2959 14.0733 11.2785C14.0733 11.1893 14.1438 11.1174 14.2301 11.1174C14.2455 11.1174 14.2605 11.1204 14.2745 11.1248L14.5041 10.6797C14.4588 10.6514 14.4279 10.6009 14.4279 10.5419C14.4279 10.4958 14.4472 10.4541 14.4771 10.4249L14.1187 9.93165C14.0955 9.94553 14.069 9.95396 14.0405 9.95396C13.9537 9.95396 13.8837 9.88158 13.8837 9.79285C13.8837 9.70412 13.9542 9.63174 14.0405 9.63174C14.1269 9.63174 14.1973 9.70412 14.1973 9.79285C14.1973 9.83449 14.1814 9.87217 14.1563 9.90092L14.5171 10.3971C14.5379 10.3872 14.5605 10.3808 14.5847 10.3808C14.6715 10.3808 14.7414 10.4531 14.7414 10.5419C14.7414 10.6306 14.671 10.703 14.5847 10.703C14.5721 10.703 14.5605 10.701 14.549 10.6985L14.3189 11.1452C14.3531 11.169 14.3772 11.2066 14.3845 11.2498L15.6474 11.3415C15.6652 11.2726 15.7255 11.222 15.7984 11.222C15.8784 11.222 15.944 11.284 15.9532 11.3638L16.8505 11.4287C16.8505 11.4287 16.8505 11.4272 16.8505 11.4267C16.8505 11.3375 16.9209 11.2656 17.0072 11.2656C17.0743 11.2656 17.1312 11.3093 17.1534 11.3697L17.644 11.111C17.6387 11.0951 17.6353 11.0782 17.6353 11.0604C17.6353 10.9712 17.7057 10.8993 17.7921 10.8993C17.8784 10.8993 17.9489 10.9717 17.9489 11.0604C17.9489 11.1491 17.8784 11.2215 17.7921 11.2215C17.74 11.2215 17.6942 11.1952 17.6657 11.1551L17.163 11.4203C17.163 11.4203 17.1635 11.4248 17.1635 11.4267C17.1635 11.516 17.0931 11.5878 17.0068 11.5878C16.9383 11.5878 16.8804 11.5422 16.8591 11.4788L15.9522 11.4129C15.9397 11.4798 15.8871 11.5318 15.8206 11.5412L15.8148 12.0414C15.8731 12.0647 15.9146 12.1227 15.9146 12.1911C15.9146 12.2804 15.8442 12.3522 15.7578 12.3522C15.6715 12.3522 15.6011 12.2799 15.6011 12.1911C15.6011 12.1024 15.6715 12.03 15.7578 12.03C15.7607 12.03 15.7636 12.031 15.767 12.031L15.7728 11.5408C15.7009 11.5284 15.6464 11.4664 15.6425 11.3901L14.3854 11.2988C14.3753 11.3777 14.3102 11.4386 14.2306 11.4386C14.1785 11.4386 14.1322 11.4119 14.1037 11.3717L12.7038 12.2556C12.7144 12.2769 12.7207 12.3012 12.7207 12.327C12.7207 12.3978 12.6758 12.4573 12.6136 12.4791L12.754 13.0269C12.7593 13.0264 12.7646 13.0254 12.7699 13.0254C12.8567 13.0254 12.9267 13.0978 12.9267 13.1865C12.9267 13.2753 12.8562 13.3476 12.7699 13.3476C12.6836 13.3476 12.6131 13.2753 12.6131 13.1865C12.6131 13.1206 12.6517 13.0641 12.7072 13.0388L12.5658 12.4881C12.5658 12.4881 12.5644 12.4881 12.5634 12.4881C12.4887 12.4881 12.426 12.434 12.4105 12.3617L11.1804 12.4727C11.1703 12.5515 11.1052 12.6125 11.0256 12.6125C10.9387 12.6125 10.8688 12.5401 10.8688 12.4514C10.8688 12.3627 10.9392 12.2903 11.0256 12.2903C11.1027 12.2903 11.1664 12.3478 11.1795 12.4231L12.4076 12.3121C12.4149 12.2303 12.4814 12.1654 12.563 12.1654C12.6073 12.1654 12.6469 12.1842 12.6753 12.2144L12.6758 12.2159ZM13.4954 14.7783L14.9629 13.8652C14.9595 13.8518 14.9571 13.8384 14.9571 13.824C14.9571 13.7348 15.0275 13.6629 15.1138 13.6629C15.1891 13.6629 15.2518 13.7174 15.2668 13.7898L16.6551 13.9222C16.6725 13.8523 16.7332 13.8002 16.8066 13.8002C16.8934 13.8002 16.9633 13.8726 16.9633 13.9613C16.9633 14.0501 16.8929 14.1224 16.8066 14.1224C16.7202 14.1224 16.6561 14.0555 16.6507 13.9713L15.2687 13.8399C15.261 13.9212 15.1949 13.9851 15.1134 13.9851C15.0579 13.9851 15.0096 13.9554 14.9817 13.9108L13.5205 14.8199C13.5282 14.8388 13.5326 14.8596 13.5326 14.8814C13.5326 14.9131 13.5234 14.9424 13.508 14.9676L14.5576 15.9125C14.5842 15.8912 14.6175 15.8778 14.6541 15.8778C14.741 15.8778 14.8109 15.9502 14.8109 16.0389C14.8109 16.1276 14.7405 16.2 14.6541 16.2C14.5678 16.2 14.4973 16.1276 14.4973 16.0389C14.4973 16.0052 14.5075 15.9744 14.5244 15.9487L13.4756 15.0048C13.4486 15.0281 13.4139 15.043 13.3753 15.043C13.2996 15.043 13.2364 14.988 13.2214 14.9141L12.0507 14.9731C12.0338 15.044 11.9725 15.0965 11.8987 15.0965C11.8119 15.0965 11.7419 15.0242 11.7419 14.9354C11.7419 14.8467 11.8123 14.7743 11.8987 14.7743C11.985 14.7743 12.0482 14.8402 12.0545 14.9235L13.22 14.8645C13.2282 14.7837 13.2943 14.7203 13.3753 14.7203C13.4235 14.7203 13.466 14.7431 13.4949 14.7783H13.4954Z" fill="#B81100"/>
<path d="M19.1918 10.7951V10.5225H12.3684C12.3173 10.403 12.201 10.3192 12.0659 10.3192C11.8836 10.3192 11.7355 10.4714 11.7355 10.6588C11.7355 10.8462 11.8836 10.9984 12.0659 10.9984C12.201 10.9984 12.3173 10.9146 12.3684 10.7951H14.1547L13.4784 11.4901C13.4412 11.4753 13.4007 11.4668 13.3583 11.4668C13.1759 11.4668 13.0278 11.619 13.0278 11.8064C13.0278 11.9938 13.1759 12.146 13.3583 12.146C13.5406 12.146 13.6887 11.9938 13.6887 11.8064C13.6887 11.7628 13.6805 11.7211 13.666 11.683L14.53 10.7951H19.1918ZM13.3583 11.9224C13.2956 11.9224 13.2449 11.8703 13.2449 11.8059C13.2449 11.7415 13.2956 11.6894 13.3583 11.6894C13.421 11.6894 13.4716 11.7415 13.4716 11.8059C13.4716 11.8703 13.421 11.9224 13.3583 11.9224ZM12.0659 10.7753C12.0032 10.7753 11.9526 10.7233 11.9526 10.6588C11.9526 10.5944 12.0032 10.5423 12.0659 10.5423C12.1286 10.5423 12.1793 10.5944 12.1793 10.6588C12.1793 10.7233 12.1286 10.7753 12.0659 10.7753ZM11.1094 9.24652C11.2444 9.24652 11.3607 9.16274 11.4118 9.04327H18.2348V8.77063H11.4118C11.3607 8.65116 11.2444 8.56738 11.1094 8.56738C10.927 8.56738 10.7789 8.71957 10.7789 8.90695C10.7789 9.09433 10.927 9.24652 11.1094 9.24652ZM11.1094 8.79046C11.1721 8.79046 11.2227 8.84251 11.2227 8.90695C11.2227 8.97139 11.1721 9.02344 11.1094 9.02344C11.0466 9.02344 10.996 8.97139 10.996 8.90695C10.996 8.84251 11.0466 8.79046 11.1094 8.79046ZM16.1233 14.3792C16.0722 14.2597 15.9559 14.1759 15.8209 14.1759C15.6385 14.1759 15.4904 14.3281 15.4904 14.5155C15.4904 14.7029 15.6385 14.8551 15.8209 14.8551C15.9559 14.8551 16.0722 14.7713 16.1233 14.6518H19.5792V14.3792H16.1233ZM15.8209 14.632C15.7582 14.632 15.7075 14.5799 15.7075 14.5155C15.7075 14.4511 15.7582 14.399 15.8209 14.399C15.8836 14.399 15.9342 14.4511 15.9342 14.5155C15.9342 14.5799 15.8836 14.632 15.8209 14.632ZM12.0037 15.6383C11.9526 15.5188 11.8363 15.4351 11.7012 15.4351C11.5189 15.4351 11.3708 15.5872 11.3708 15.7746C11.3708 15.962 11.5189 16.1142 11.7012 16.1142C11.8363 16.1142 11.9526 16.0304 12.0037 15.9109H15.2097L14.5208 16.6188C14.4784 16.5985 14.4311 16.5866 14.3809 16.5866C14.1986 16.5866 14.0505 16.7388 14.0505 16.9262C14.0505 17.1136 14.1986 17.2657 14.3809 17.2657C14.5633 17.2657 14.7114 17.1136 14.7114 16.9262C14.7114 16.8905 14.7061 16.8568 14.6959 16.8246L15.5845 15.9114H16.502L18.1856 17.6415L18.3732 17.4487L16.612 15.6388H12.0032L12.0037 15.6383ZM14.3814 17.0422C14.3187 17.0422 14.2681 16.9901 14.2681 16.9257C14.2681 16.8612 14.3187 16.8092 14.3814 16.8092C14.3969 16.8092 14.4118 16.8127 14.4248 16.8181L14.4856 16.8806C14.4914 16.8944 14.4943 16.9093 14.4943 16.9252C14.4943 16.9896 14.4436 17.0417 14.3809 17.0417L14.3814 17.0422ZM11.7012 15.8911C11.6385 15.8911 11.5879 15.8391 11.5879 15.7746C11.5879 15.7102 11.6385 15.6581 11.7012 15.6581C11.764 15.6581 11.8146 15.7102 11.8146 15.7746C11.8146 15.8391 11.764 15.8911 11.7012 15.8911ZM13.4977 14.6518L15.5696 12.5227H19.5478V12.2501H15.4596L14.9077 12.8172H11.215C11.1639 12.6977 11.0476 12.6139 10.9125 12.6139C10.7302 12.6139 10.5821 12.7661 10.5821 12.9535C10.5821 13.1409 10.7302 13.2931 10.9125 13.2931C11.0476 13.2931 11.1639 13.2093 11.215 13.0898H14.6424L13.3877 14.3792H9.66024C9.60911 14.2597 9.49285 14.1759 9.35778 14.1759C9.17544 14.1759 9.02734 14.3281 9.02734 14.5155C9.02734 14.7029 9.17544 14.8551 9.35778 14.8551C9.49285 14.8551 9.60911 14.7713 9.66024 14.6518H13.4977ZM10.9121 13.07C10.8493 13.07 10.7987 13.0179 10.7987 12.9535C10.7987 12.889 10.8493 12.837 10.9121 12.837C10.9748 12.837 11.0254 12.889 11.0254 12.9535C11.0254 13.0179 10.9748 13.07 10.9121 13.07ZM9.35778 14.632C9.29507 14.632 9.24442 14.5799 9.24442 14.5155C9.24442 14.4511 9.29507 14.399 9.35778 14.399C9.42049 14.399 9.47115 14.4511 9.47115 14.5155C9.47115 14.5799 9.42049 14.632 9.35778 14.632Z" fill="#CB003B"/>
<path d="M17.8002 25C17.8002 25 17.776 24.3595 17.8966 24.0333C18.0172 23.7072 18.4031 22.9016 19.1427 22.9016C19.8822 22.9016 20.6057 23.4306 21.3896 23.4306C22.1735 23.4306 22.27 22.9061 22.27 22.6622C22.27 22.4183 22.1735 22.051 22.1735 21.8155C22.1735 21.58 22.2155 21.3218 22.4548 21.0759C22.694 20.83 23.1098 20.6337 23.1098 20.5554C23.1098 20.4771 22.7157 20.1271 22.7157 20.0597C22.7157 19.9799 23.3052 19.9358 23.3052 19.7979C23.3052 19.6601 23.1687 19.1451 22.9782 18.5889C23.23 18.4982 23.9994 18.2364 23.9994 17.7407C23.9994 17.245 22.7399 15.9313 22.2854 15.4688C22.4745 14.9855 22.5831 14.1388 22.5831 13.6223C22.5831 13.1058 22.6525 11.1531 20.7659 9.21437C18.8793 7.27562 16.1359 7 15.4924 7C14.8489 7 13.5628 7.07733 12.3086 7.62807C13.1557 7.463 13.2666 7.46845 13.7649 7.46845C14.2632 7.46845 16.3134 7.41045 17.8773 9.01757C19.4413 10.6247 19.4369 12.6115 19.4369 13.0329C19.4369 16.2798 16.3684 18.9235 16.3684 21.8869C16.3684 21.8869 16.3043 23.7845 17.7997 25.0005L17.8002 25Z" fill="#003366"/>
<path d="M20.4342 23.0404C20.4342 23.0404 20.0241 21.7926 20.0241 19.9917C20.0241 18.1908 20.7154 15.1624 20.7154 12.9565C20.7154 10.1309 20.0656 8.66455 20.0656 8.66455C20.0656 8.66455 20.4245 10.2206 20.4245 11.741C20.4245 14.3435 19.7598 17.8383 19.7598 19.3418C19.7598 20.8453 19.9739 22.0008 20.4337 23.0404H20.4342Z" fill="#D9D9D9"/>
</g>
<defs>
<clipPath id="clip0_9349_44606">
<rect width="18" height="18" fill="white" transform="translate(7 7)"/>
</clipPath>
</defs>
</svg>
