<svg width="24" height="24" viewBox="0 0 24 24" fill="none" xmlns="http://www.w3.org/2000/svg">
<g id="Dashboard/My Tasks/Icons">
<path id="Vector" d="M9.00003 12L11 14L15 10M3.00003 12C3.00003 13.1819 3.23282 14.3522 3.68511 15.4442C4.13741 16.5361 4.80034 17.5282 5.63607 18.364C6.4718 19.1997 7.46395 19.8626 8.55588 20.3149C9.64781 20.7672 10.8181 21 12 21C13.1819 21 14.3523 20.7672 15.4442 20.3149C16.5361 19.8626 17.5283 19.1997 18.364 18.364C19.1997 17.5282 19.8627 16.5361 20.3149 15.4442C20.7672 14.3522 21 13.1819 21 12C21 10.8181 20.7672 9.64778 20.3149 8.55585C19.8627 7.46392 19.1997 6.47177 18.364 5.63604C17.5283 4.80031 16.5361 4.13738 15.4442 3.68508C14.3523 3.23279 13.1819 3 12 3C10.8181 3 9.64781 3.23279 8.55588 3.68508C7.46395 4.13738 6.4718 4.80031 5.63607 5.63604C4.80034 6.47177 4.13741 7.46392 3.68511 8.55585C3.23282 9.64778 3.00003 10.8181 3.00003 12Z" stroke="#28C76F" stroke-width="1.5" stroke-linecap="round" stroke-linejoin="round"/>
</g>
</svg>
