<svg width="20" height="20" viewBox="0 0 20 20" fill="none" xmlns="http://www.w3.org/2000/svg">
<g id="Record Management/Actions">
<path id="Vector" d="M12.5003 2.5L13.0307 1.96967C12.89 1.82902 12.6992 1.75 12.5003 1.75V2.5ZM16.667 6.66667H17.417C17.417 6.46775 17.338 6.27699 17.1973 6.13634L16.667 6.66667ZM9.16699 2.5V1.75V2.5ZM14.0837 14.1667C14.0837 13.7525 13.7479 13.4167 13.3337 13.4167C12.9194 13.4167 12.5837 13.7525 12.5837 14.1667H14.0837ZM4.16699 15.8333H3.41699H4.16699ZM5.83366 5.83333V5.08333V5.83333ZM7.50033 6.58333C7.91454 6.58333 8.25033 6.24755 8.25033 5.83333C8.25033 5.41912 7.91454 5.08333 7.50033 5.08333V6.58333ZM11.7503 2.5V5.83333H13.2503V2.5H11.7503ZM11.7503 5.83333C11.7503 6.25326 11.9171 6.65599 12.2141 6.95292L13.2747 5.89226C13.2591 5.87663 13.2503 5.85543 13.2503 5.83333H11.7503ZM12.2141 6.95292C12.511 7.24985 12.9137 7.41667 13.3337 7.41667V5.91667C13.3116 5.91667 13.2904 5.90789 13.2747 5.89226L12.2141 6.95292ZM13.3337 7.41667H16.667V5.91667H13.3337V7.41667ZM15.0003 13.4167H9.16699V14.9167H15.0003V13.4167ZM9.16699 13.4167C8.92388 13.4167 8.69072 13.3201 8.51881 13.1482L7.45815 14.2088C7.91136 14.6621 8.52605 14.9167 9.16699 14.9167V13.4167ZM8.51881 13.1482C8.3469 12.9763 8.25033 12.7431 8.25033 12.5H6.75033C6.75033 13.1409 7.00494 13.7556 7.45815 14.2088L8.51881 13.1482ZM8.25033 12.5V4.16667H6.75033V12.5H8.25033ZM8.25033 4.16667C8.25033 3.92355 8.3469 3.69039 8.51881 3.51849L7.45815 2.45783C7.00494 2.91104 6.75033 3.52573 6.75033 4.16667H8.25033ZM8.51881 3.51849C8.69072 3.34658 8.92388 3.25 9.16699 3.25V1.75C8.52605 1.75 7.91136 2.00461 7.45815 2.45783L8.51881 3.51849ZM9.16699 3.25H12.5003V1.75H9.16699V3.25ZM11.97 3.03033L16.1367 7.197L17.1973 6.13634L13.0307 1.96967L11.97 3.03033ZM15.917 6.66667V12.5H17.417V6.66667H15.917ZM15.917 12.5C15.917 12.7431 15.8204 12.9763 15.6485 13.1482L16.7092 14.2088C17.1624 13.7556 17.417 13.1409 17.417 12.5H15.917ZM15.6485 13.1482C15.4766 13.3201 15.2434 13.4167 15.0003 13.4167V14.9167C15.6413 14.9167 16.256 14.6621 16.7092 14.2088L15.6485 13.1482ZM12.5837 14.1667V15.8333H14.0837V14.1667H12.5837ZM12.5837 15.8333C12.5837 16.0764 12.4871 16.3096 12.3152 16.4815L13.3758 17.5422C13.829 17.089 14.0837 16.4743 14.0837 15.8333H12.5837ZM12.3152 16.4815C12.1433 16.6534 11.9101 16.75 11.667 16.75V18.25C12.3079 18.25 12.9226 17.9954 13.3758 17.5422L12.3152 16.4815ZM11.667 16.75H5.83366V18.25H11.667V16.75ZM5.83366 16.75C5.59054 16.75 5.35739 16.6534 5.18548 16.4815L4.12482 17.5422C4.57803 17.9954 5.19272 18.25 5.83366 18.25V16.75ZM5.18548 16.4815C5.01357 16.3096 4.91699 16.0764 4.91699 15.8333H3.41699C3.41699 16.4743 3.6716 17.089 4.12482 17.5422L5.18548 16.4815ZM4.91699 15.8333V7.5H3.41699V15.8333H4.91699ZM4.91699 7.5C4.91699 7.25688 5.01357 7.02373 5.18548 6.85182L4.12482 5.79116C3.6716 6.24437 3.41699 6.85906 3.41699 7.5H4.91699ZM5.18548 6.85182C5.35739 6.67991 5.59054 6.58333 5.83366 6.58333V5.08333C5.19272 5.08333 4.57803 5.33795 4.12482 5.79116L5.18548 6.85182ZM5.83366 6.58333H7.50033V5.08333H5.83366V6.58333Z" fill="#7E7E7E"/>
</g>
</svg>
