<svg width="16" height="16" viewBox="0 0 16 16" fill="none" xmlns="http://www.w3.org/2000/svg">
<g id="Record Management/Actions">
<path id="Vector" d="M8.75001 3.33398C8.75001 2.91977 8.41422 2.58398 8.00001 2.58398C7.5858 2.58398 7.25001 2.91977 7.25001 3.33398H8.75001ZM7.25001 12.6673C7.25001 13.0815 7.5858 13.4173 8.00001 13.4173C8.41422 13.4173 8.75001 13.0815 8.75001 12.6673H7.25001ZM3.33334 7.25065C2.91913 7.25065 2.58334 7.58644 2.58334 8.00065C2.58334 8.41486 2.91913 8.75065 3.33334 8.75065V7.25065ZM12.6667 8.75065C13.0809 8.75065 13.4167 8.41486 13.4167 8.00065C13.4167 7.58644 13.0809 7.25065 12.6667 7.25065V8.75065ZM7.25001 3.33398V12.6673H8.75001V3.33398H7.25001ZM3.33334 8.75065H12.6667V7.25065H3.33334V8.75065Z" fill="white"/>
</g>
</svg>
