<svg width="20" height="20" viewBox="0 0 20 20" fill="none" xmlns="http://www.w3.org/2000/svg">
<g id="csv">
<path id="Vector" d="M11.6668 2.5V5.83333C11.6668 6.05435 11.7546 6.26631 11.9109 6.42259C12.0672 6.57887 12.2791 6.66667 12.5002 6.66667H15.8335M11.6668 2.5H5.8335C5.39147 2.5 4.96755 2.67559 4.65498 2.98816C4.34242 3.30072 4.16683 3.72464 4.16683 4.16667V10M11.6668 2.5L15.8335 6.66667M15.8335 6.66667V10M5.8335 13.75C5.8335 13.4185 5.7018 13.1005 5.46738 12.8661C5.23296 12.6317 4.91502 12.5 4.5835 12.5C4.25198 12.5 3.93403 12.6317 3.69961 12.8661C3.46519 13.1005 3.3335 13.4185 3.3335 13.75V16.25C3.3335 16.5815 3.46519 16.8995 3.69961 17.1339C3.93403 17.3683 4.25198 17.5 4.5835 17.5C4.91502 17.5 5.23296 17.3683 5.46738 17.1339C5.7018 16.8995 5.8335 16.5815 5.8335 16.25M8.3335 16.875C8.3335 17.22 8.6135 17.5 8.9585 17.5H10.0002C10.2212 17.5 10.4331 17.4122 10.5894 17.2559C10.7457 17.0996 10.8335 16.8877 10.8335 16.6667V15.8333C10.8335 15.6123 10.7457 15.4004 10.5894 15.2441C10.4331 15.0878 10.2212 15 10.0002 15H9.16683C8.94582 15 8.73385 14.9122 8.57757 14.7559C8.42129 14.5996 8.3335 14.3877 8.3335 14.1667V13.3333C8.3335 13.1123 8.42129 12.9004 8.57757 12.7441C8.73385 12.5878 8.94582 12.5 9.16683 12.5H10.2085C10.3743 12.5 10.5332 12.5658 10.6504 12.6831C10.7676 12.8003 10.8335 12.9592 10.8335 13.125M13.3335 12.5L15.0002 17.5L16.6668 12.5" stroke="#7E7E7E" stroke-width="1.5" stroke-linecap="round" stroke-linejoin="round"/>
</g>
</svg>
