<svg width="16" height="16" viewBox="0 0 16 16" fill="none" xmlns="http://www.w3.org/2000/svg">
<g id="Record Management/Actions">
<path id="Vector" d="M2.66666 3.91667C2.25244 3.91667 1.91666 4.25245 1.91666 4.66667C1.91666 5.08088 2.25244 5.41667 2.66666 5.41667V3.91667ZM13.3333 5.41667C13.7475 5.41667 14.0833 5.08088 14.0833 4.66667C14.0833 4.25245 13.7475 3.91667 13.3333 3.91667V5.41667ZM7.41666 7.33333C7.41666 6.91912 7.08087 6.58333 6.66666 6.58333C6.25244 6.58333 5.91666 6.91912 5.91666 7.33333H7.41666ZM5.91666 11.3333C5.91666 11.7475 6.25244 12.0833 6.66666 12.0833C7.08087 12.0833 7.41666 11.7475 7.41666 11.3333H5.91666ZM10.0833 7.33333C10.0833 6.91912 9.74754 6.58333 9.33332 6.58333C8.91911 6.58333 8.58332 6.91912 8.58332 7.33333H10.0833ZM8.58332 11.3333C8.58332 11.7475 8.91911 12.0833 9.33332 12.0833C9.74754 12.0833 10.0833 11.7475 10.0833 11.3333H8.58332ZM4.08073 4.60438C4.04633 4.1916 3.68382 3.88486 3.27104 3.91926C2.85826 3.95366 2.55152 4.31617 2.58591 4.72895L4.08073 4.60438ZM3.99999 12.6667H4.74999C4.74999 12.6459 4.74913 12.6251 4.7474 12.6044L3.99999 12.6667ZM12 12.6667L11.2526 12.6044C11.2509 12.6251 11.25 12.6459 11.25 12.6667H12ZM13.4141 4.72895C13.4485 4.31617 13.1417 3.95366 12.7289 3.91926C12.3162 3.88486 11.9536 4.1916 11.9192 4.60438L13.4141 4.72895ZM5.24999 4.66667C5.24999 5.08088 5.58578 5.41667 5.99999 5.41667C6.4142 5.41667 6.74999 5.08088 6.74999 4.66667H5.24999ZM6.66666 2V1.25V2ZM9.33332 2V1.25V2ZM9.24999 4.66667C9.24999 5.08088 9.58578 5.41667 9.99999 5.41667C10.4142 5.41667 10.75 5.08088 10.75 4.66667H9.24999ZM2.66666 5.41667H13.3333V3.91667H2.66666V5.41667ZM5.91666 7.33333V11.3333H7.41666V7.33333H5.91666ZM8.58332 7.33333V11.3333H10.0833V7.33333H8.58332ZM2.58591 4.72895L3.25258 12.729L4.7474 12.6044L4.08073 4.60438L2.58591 4.72895ZM3.24999 12.6667C3.24999 13.2192 3.46948 13.7491 3.86018 14.1398L4.92084 13.0791C4.81145 12.9697 4.74999 12.8214 4.74999 12.6667H3.24999ZM3.86018 14.1398C4.25088 14.5305 4.78079 14.75 5.33332 14.75V13.25C5.17861 13.25 5.03024 13.1885 4.92084 13.0791L3.86018 14.1398ZM5.33332 14.75H10.6667V13.25H5.33332V14.75ZM10.6667 14.75C11.2192 14.75 11.7491 14.5305 12.1398 14.1398L11.0791 13.0791C10.9697 13.1885 10.8214 13.25 10.6667 13.25V14.75ZM12.1398 14.1398C12.5305 13.7491 12.75 13.2192 12.75 12.6667H11.25C11.25 12.8214 11.1885 12.9697 11.0791 13.0791L12.1398 14.1398ZM12.7474 12.729L13.4141 4.72895L11.9192 4.60438L11.2526 12.6044L12.7474 12.729ZM6.74999 4.66667V2.66667H5.24999V4.66667H6.74999ZM6.74999 2.66667C6.74999 2.68877 6.74121 2.70996 6.72558 2.72559L5.66492 1.66493C5.39925 1.93061 5.24999 2.29094 5.24999 2.66667H6.74999ZM6.72558 2.72559C6.70995 2.74122 6.68876 2.75 6.66666 2.75V1.25C6.29093 1.25 5.9306 1.39926 5.66492 1.66493L6.72558 2.72559ZM6.66666 2.75H9.33332V1.25H6.66666V2.75ZM9.33332 2.75C9.31122 2.75 9.29003 2.74122 9.2744 2.72559L10.3351 1.66493C10.0694 1.39926 9.70905 1.25 9.33332 1.25L9.33332 2.75ZM9.2744 2.72559C9.25877 2.70996 9.24999 2.68877 9.24999 2.66667H10.75C10.75 2.29094 10.6007 1.93061 10.3351 1.66493L9.2744 2.72559ZM9.24999 2.66667V4.66667H10.75V2.66667H9.24999Z" fill="white"/>
</g>
</svg>
