<svg width="20" height="20" viewBox="0 0 20 20" fill="none" xmlns="http://www.w3.org/2000/svg">
<g id="Record Management/Actions">
<path id="Vector" d="M3.33301 5.08333C2.91879 5.08333 2.58301 5.41912 2.58301 5.83333C2.58301 6.24755 2.91879 6.58333 3.33301 6.58333V5.08333ZM16.6663 6.58333C17.0806 6.58333 17.4163 6.24755 17.4163 5.83333C17.4163 5.41912 17.0806 5.08333 16.6663 5.08333V6.58333ZM9.08301 9.16667C9.08301 8.75245 8.74722 8.41667 8.33301 8.41667C7.91879 8.41667 7.58301 8.75245 7.58301 9.16667H9.08301ZM7.58301 14.1667C7.58301 14.5809 7.91879 14.9167 8.33301 14.9167C8.74722 14.9167 9.08301 14.5809 9.08301 14.1667H7.58301ZM12.4163 9.16667C12.4163 8.75245 12.0806 8.41667 11.6663 8.41667C11.2521 8.41667 10.9163 8.75245 10.9163 9.16667H12.4163ZM10.9163 14.1667C10.9163 14.5809 11.2521 14.9167 11.6663 14.9167C12.0806 14.9167 12.4163 14.5809 12.4163 14.1667H10.9163ZM4.91375 5.77105C4.87935 5.35827 4.51684 5.05153 4.10406 5.08592C3.69127 5.12032 3.38453 5.48283 3.41893 5.89562L4.91375 5.77105ZM4.99967 15.8333H5.74967C5.74967 15.8125 5.74881 15.7918 5.74708 15.771L4.99967 15.8333ZM14.9997 15.8333L14.2523 15.771C14.2505 15.7918 14.2497 15.8125 14.2497 15.8333H14.9997ZM16.5804 5.89562C16.6148 5.48283 16.3081 5.12032 15.8953 5.08592C15.4825 5.05153 15.12 5.35827 15.0856 5.77105L16.5804 5.89562ZM6.74967 5.83333C6.74967 6.24755 7.08546 6.58333 7.49967 6.58333C7.91389 6.58333 8.24967 6.24755 8.24967 5.83333H6.74967ZM8.33301 2.5V1.75V2.5ZM11.6663 2.5V1.75V2.5ZM11.7497 5.83333C11.7497 6.24755 12.0855 6.58333 12.4997 6.58333C12.9139 6.58333 13.2497 6.24755 13.2497 5.83333H11.7497ZM3.33301 6.58333H16.6663V5.08333H3.33301V6.58333ZM7.58301 9.16667V14.1667H9.08301V9.16667H7.58301ZM10.9163 9.16667V14.1667H12.4163V9.16667H10.9163ZM3.41893 5.89562L4.25227 15.8956L5.74708 15.771L4.91375 5.77105L3.41893 5.89562ZM4.24967 15.8333C4.24967 16.4743 4.50429 17.089 4.9575 17.5422L6.01816 16.4815C5.84625 16.3096 5.74967 16.0764 5.74967 15.8333H4.24967ZM4.9575 17.5422C5.41071 17.9954 6.0254 18.25 6.66634 18.25V16.75C6.42323 16.75 6.19007 16.6534 6.01816 16.4815L4.9575 17.5422ZM6.66634 18.25H13.333V16.75H6.66634V18.25ZM13.333 18.25C13.9739 18.25 14.5886 17.9954 15.0418 17.5422L13.9812 16.4815C13.8093 16.6534 13.5761 16.75 13.333 16.75V18.25ZM15.0418 17.5422C15.4951 17.089 15.7497 16.4743 15.7497 15.8333H14.2497C14.2497 16.0764 14.1531 16.3096 13.9812 16.4815L15.0418 17.5422ZM15.7471 15.8956L16.5804 5.89562L15.0856 5.77105L14.2523 15.771L15.7471 15.8956ZM8.24967 5.83333V3.33333H6.74967V5.83333H8.24967ZM8.24967 3.33333C8.24967 3.31123 8.25845 3.29004 8.27408 3.27441L7.21342 2.21375C6.91649 2.51068 6.74967 2.91341 6.74967 3.33333H8.24967ZM8.27408 3.27441C8.28971 3.25878 8.31091 3.25 8.33301 3.25V1.75C7.91308 1.75 7.51035 1.91681 7.21342 2.21375L8.27408 3.27441ZM8.33301 3.25H11.6663V1.75H8.33301V3.25ZM11.6663 3.25C11.6884 3.25 11.7096 3.25878 11.7253 3.27441L12.7859 2.21375C12.489 1.91681 12.0863 1.75 11.6663 1.75V3.25ZM11.7253 3.27441C11.7409 3.29004 11.7497 3.31123 11.7497 3.33333H13.2497C13.2497 2.91341 13.0829 2.51068 12.7859 2.21375L11.7253 3.27441ZM11.7497 3.33333V5.83333H13.2497V3.33333H11.7497Z" fill="#7E7E7E"/>
</g>
</svg>
