<svg width="16" height="16" viewBox="0 0 16 16" fill="none" xmlns="http://www.w3.org/2000/svg">
<g id="Record Management/Actions">
<path id="Vector" d="M9.00002 4.33321L11.6667 6.99988M2.66669 13.3332H5.33335L12.3334 6.33321C12.5084 6.15811 12.6473 5.95024 12.7421 5.72147C12.8369 5.4927 12.8856 5.2475 12.8856 4.99988C12.8856 4.75225 12.8369 4.50705 12.7421 4.27828C12.6473 4.04951 12.5084 3.84164 12.3334 3.66654C12.1583 3.49145 11.9504 3.35255 11.7216 3.25779C11.4928 3.16303 11.2476 3.11426 11 3.11426C10.7524 3.11426 10.5072 3.16303 10.2784 3.25779C10.0497 3.35255 9.84178 3.49145 9.66669 3.66654L2.66669 10.6665V13.3332Z" stroke="#002680" stroke-width="1.5" stroke-linecap="round" stroke-linejoin="round"/>
</g>
</svg>
