<svg width="20" height="20" viewBox="0 0 20 20" fill="none" xmlns="http://www.w3.org/2000/svg">
<g id="Record Management/Actions">
<path id="Vector" d="M10.0003 17.5H5.83366C5.39163 17.5 4.96771 17.3244 4.65515 17.0118C4.34259 16.6993 4.16699 16.2754 4.16699 15.8333V10.8333C4.16699 10.3913 4.34259 9.96738 4.65515 9.65482C4.96771 9.34226 5.39163 9.16667 5.83366 9.16667H14.167C14.637 9.16667 15.062 9.36167 15.3645 9.675M6.66699 9.16667V5.83333C6.66699 4.94928 7.01818 4.10143 7.6433 3.47631C8.26842 2.85119 9.11627 2.5 10.0003 2.5C10.8844 2.5 11.7322 2.85119 12.3573 3.47631C12.9825 4.10143 13.3337 4.94928 13.3337 5.83333V9.16667M15.8345 17.5C15.3924 17.5 14.9685 17.3244 14.656 17.0118C14.3434 16.6993 14.1678 16.2754 14.1678 15.8333C14.1678 15.3913 14.3434 14.9674 14.656 14.6548C14.9685 14.3423 15.3924 14.1667 15.8345 14.1667M15.8345 17.5C16.2765 17.5 16.7004 17.3244 17.013 17.0118C17.3255 16.6993 17.5011 16.2754 17.5011 15.8333C17.5011 15.3913 17.3255 14.9674 17.013 14.6548C16.7004 14.3423 16.2765 14.1667 15.8345 14.1667M15.8345 17.5V18.75M15.8345 14.1667V12.9167M18.3603 14.375L17.2778 15M14.392 16.6667L13.3086 17.2917M13.3086 14.375L14.392 15M17.2778 16.6667L18.3611 17.2917M9.16699 13.3333C9.16699 13.5543 9.25479 13.7663 9.41107 13.9226C9.56735 14.0789 9.77931 14.1667 10.0003 14.1667C10.2213 14.1667 10.4333 14.0789 10.5896 13.9226C10.7459 13.7663 10.8337 13.5543 10.8337 13.3333C10.8337 13.1123 10.7459 12.9004 10.5896 12.7441C10.4333 12.5878 10.2213 12.5 10.0003 12.5C9.77931 12.5 9.56735 12.5878 9.41107 12.7441C9.25479 12.9004 9.16699 13.1123 9.16699 13.3333Z" stroke="#7E7E7E" stroke-width="1.5" stroke-linecap="round" stroke-linejoin="round"/>
</g>
</svg>
