<svg width="30" height="31" viewBox="0 0 30 31" fill="none" xmlns="http://www.w3.org/2000/svg">
<g id="Folder + File">
<path id="Vector" d="M17.5 4.04752V9.04752C17.5 9.37904 17.6317 9.69698 17.8661 9.9314C18.1005 10.1658 18.4185 10.2975 18.75 10.2975H23.75M17.5 4.04752H8.75C8.08696 4.04752 7.45107 4.31091 6.98223 4.77975C6.51339 5.24859 6.25 5.88447 6.25 6.54752V24.0475C6.25 24.7106 6.51339 25.3464 6.98223 25.8153C7.45107 26.2841 8.08696 26.5475 8.75 26.5475H21.25C21.913 26.5475 22.5489 26.2841 23.0178 25.8153C23.4866 25.3464 23.75 24.7106 23.75 24.0475V10.2975M17.5 4.04752L23.75 10.2975" stroke="#7E7E7E" stroke-width="2" stroke-linecap="round" stroke-linejoin="round"/>
</g>
</svg>
