<svg width="18" height="18" viewBox="0 0 18 18" fill="none" xmlns="http://www.w3.org/2000/svg">
<g id="Folder + File">
<path id="Vector" d="M3.75 14.25L5.81775 8.73675C5.87133 8.59382 5.96724 8.47064 6.09268 8.38366C6.21812 8.29669 6.36711 8.25006 6.51975 8.25H15.75M3.75 14.25H14.2695C14.6185 14.2499 14.9565 14.1282 15.2253 13.9057C15.4942 13.6832 15.6771 13.374 15.7425 13.0312L16.4895 9.123C16.5074 9.0156 16.5016 8.90561 16.4727 8.80066C16.4437 8.6957 16.3923 8.59831 16.3219 8.51523C16.2516 8.43216 16.164 8.36541 16.0652 8.3196C15.9664 8.2738 15.8589 8.25005 15.75 8.25M3.75 14.25C3.35218 14.25 2.97064 14.092 2.68934 13.8107C2.40804 13.5294 2.25 13.1478 2.25 12.75V4.5C2.25 4.10218 2.40804 3.72064 2.68934 3.43934C2.97064 3.15804 3.35218 3 3.75 3H6.75L9 5.25H14.25C14.6478 5.25 15.0294 5.40804 15.3107 5.68934C15.592 5.97064 15.75 6.35218 15.75 6.75V8.25" stroke="#002680" stroke-width="1.5" stroke-linecap="round" stroke-linejoin="round"/>
</g>
</svg>
