<svg width="24" height="24" viewBox="0 0 24 24" fill="none" xmlns="http://www.w3.org/2000/svg">
<g id="fi_3586660">
<path id="Vector" d="M9.32237 3.40403L9.20656 3.45108L9.32237 3.40403C9.28251 3.30594 9.22186 3.2173 9.14461 3.14356C9.06739 3.06985 8.97526 3.01263 8.87427 2.97524C8.77416 2.93818 8.66731 2.92133 8.56035 2.9256H4.73494V2.3972C4.73947 2.29278 4.72135 2.18871 4.68189 2.09157C4.64203 1.99348 4.58137 1.90484 4.50413 1.83111C4.4269 1.75739 4.33478 1.70017 4.23379 1.66278C4.13368 1.62572 4.02683 1.60887 3.91987 1.61314H1.73284C1.50734 1.61314 1.28996 1.69859 1.12882 1.85242C0.96747 2.00643 0.875679 2.21659 0.875679 2.43702V7.64137C0.871155 7.74579 0.889267 7.84986 0.928736 7.947C0.96859 8.04509 1.02925 8.13373 1.10649 8.20746C1.18372 8.28118 1.27584 8.3384 1.37684 8.37579C1.47694 8.41285 1.5838 8.4297 1.69076 8.42543H4.65681V19.7845C4.65681 19.9066 4.70768 20.0224 4.79618 20.1069C4.88449 20.1912 5.00306 20.2376 5.12555 20.2376H15.6565V22.0813C15.6565 22.2904 15.7436 22.4897 15.8965 22.6357C16.0493 22.7815 16.2553 22.8625 16.469 22.8625H22.3125C22.5262 22.8625 22.7322 22.7815 22.885 22.6357C23.0379 22.4897 23.125 22.2904 23.125 22.0813V18.6361C23.125 18.4269 23.0379 18.2276 22.885 18.0816C22.7322 17.9358 22.5262 17.8548 22.3125 17.8548H19.172V17.4876C19.172 17.2785 19.0849 17.0792 18.9319 16.9332C18.7792 16.7874 18.5732 16.7064 18.3595 16.7064H16.469C16.2553 16.7064 16.0493 16.7874 15.8965 16.9332C15.7436 17.0792 15.6565 17.2785 15.6565 17.4876V19.3313H5.59429V13.019H15.6565V14.8627C15.6565 15.0719 15.7436 15.2712 15.8965 15.4172C16.0493 15.563 16.2553 15.644 16.469 15.644H22.3125C22.5262 15.644 22.7322 15.563 22.885 15.4172C23.0379 15.2712 23.125 15.0719 23.125 14.8627V11.4175C23.125 11.2084 23.0379 11.0091 22.885 10.8631C22.7322 10.7173 22.5262 10.6363 22.3125 10.6363H19.172V10.2691C19.172 10.06 19.0849 9.86069 18.9319 9.71468C18.7792 9.56885 18.5732 9.48789 18.3595 9.48789H16.469C16.2553 9.48789 16.0493 9.56885 15.8965 9.71468C15.7436 9.86069 15.6565 10.06 15.6565 10.2691V12.1128H5.59429V8.42543H8.56035C8.66732 8.4297 8.77417 8.41285 8.87427 8.37579C8.97526 8.3384 9.06739 8.28118 9.14461 8.20747C9.22186 8.13373 9.28251 8.04509 9.32237 7.947L9.20656 7.89995L9.32237 7.947C9.36184 7.84986 9.37995 7.74578 9.37542 7.64136V3.70967C9.37995 3.60525 9.36184 3.50117 9.32237 3.40403ZM1.81316 7.5192V2.51937H3.79746V3.04776C3.79294 3.15218 3.81105 3.25625 3.85052 3.35339C3.89037 3.45148 3.95103 3.54013 4.02828 3.61386C4.1055 3.68757 4.19763 3.74479 4.29862 3.78218C4.39872 3.81924 4.50558 3.8361 4.61254 3.83183H8.43795V7.5192H1.81316ZM18.2345 17.6126V17.9798C18.2345 18.1889 18.3216 18.3883 18.4746 18.5343C18.6273 18.6801 18.8333 18.7611 19.047 18.7611H22.1875V21.9563H16.594V17.6126H18.2345ZM18.2345 10.3941V10.7613C18.2345 10.9704 18.3216 11.1697 18.4746 11.3157C18.6273 11.4616 18.8333 11.5425 19.047 11.5425H22.1875V14.7377H16.594V10.3941H18.2345Z" fill="#002680" stroke="#002680" stroke-width="0.25"/>
</g>
</svg>
