<svg width="24" height="24" viewBox="0 0 24 24" fill="none" xmlns="http://www.w3.org/2000/svg">
<g id="Chatbot" clip-path="url(#clip0_9588_21502)">
<path id="Vector" d="M10.4247 23.9798C10.3031 23.9595 10.1815 23.8988 10.0802 23.8178L7.00042 21.0038H6.15956C5.7442 21.0038 5.32883 20.9127 4.94386 20.7305C4.55889 20.5483 4.21444 20.2952 3.93077 19.9713C3.63698 19.6474 3.42423 19.2628 3.2824 18.8376C3.14057 18.4125 3.07978 17.9671 3.11017 17.5217V17.3598H1.41832C1.04348 17.3598 0.688898 17.1978 0.415365 16.9144C0.151963 16.631 0 16.2362 0 15.8414V11.2763C0 10.8714 0.151963 10.4867 0.415365 10.2033C0.678767 9.91986 1.03335 9.76803 1.41832 9.75791H3.1203V9.59595C3.07978 9.15057 3.14057 8.70519 3.29253 8.28005C3.43436 7.85491 3.65724 7.48039 3.9409 7.14635C4.22457 6.82244 4.56902 6.55926 4.95399 6.38718C5.33896 6.20498 5.75433 6.11388 6.16969 6.11388H11.3364V4.41333L11.2351 4.37284C10.8299 4.221 10.4753 3.93758 10.2322 3.56305C9.97889 3.17841 9.85732 2.73302 9.85732 2.2674C9.85732 1.66006 10.0903 1.09321 10.4854 0.668073C10.8805 0.242936 11.4175 0.0101223 11.9848 0C12.5623 0 13.0891 0.222691 13.4943 0.637706C13.8995 1.05272 14.1427 1.61957 14.1528 2.22691C14.1629 2.69253 14.0414 3.15816 13.7881 3.54281C13.545 3.92746 13.1802 4.221 12.775 4.37284L12.6737 4.41333V6.11388H17.8404C18.2558 6.11388 18.6712 6.20498 19.0561 6.38718C19.4411 6.56938 19.7856 6.82244 20.0692 7.14635C20.363 7.47027 20.5758 7.85491 20.7176 8.28005C20.8594 8.70519 20.9202 9.15057 20.8898 9.59595V9.75791H22.5817C22.9565 9.75791 23.3111 9.91986 23.5846 10.2033C23.848 10.4867 24 10.8815 24 11.2763V15.8414C24 16.2463 23.848 16.631 23.5846 16.9144C23.3212 17.1978 22.9667 17.3496 22.5817 17.3598H20.8797V17.5217C20.9101 17.9671 20.8594 18.4125 20.7075 18.8376C20.5656 19.2628 20.3428 19.6373 20.0591 19.9713C19.7653 20.2952 19.431 20.5584 19.046 20.7406C18.661 20.9228 18.2457 21.0139 17.8303 21.0139H11.1743V23.2813C11.1743 23.423 11.1338 23.5546 11.0629 23.6761C10.992 23.7874 10.8907 23.8785 10.7792 23.9393C10.6982 23.9798 10.5969 24 10.5057 24C10.4753 24 10.4449 24 10.4145 24L10.4247 23.9798ZM6.92951 19.5563C7.07134 19.5563 7.5171 19.5563 7.66906 19.7284L9.84719 21.7225V20.2851C9.84719 20.194 9.86745 20.0928 9.89785 20.0118C9.92824 19.9207 9.97889 19.8499 10.0498 19.779C10.1106 19.7081 10.1815 19.6575 10.2626 19.6272C10.3436 19.5867 10.4247 19.5765 10.5158 19.5765H17.8303C18.2963 19.5765 18.732 19.3842 19.0561 19.0299C19.3702 18.6858 19.5526 18.2202 19.5526 17.7444V9.38338C19.5526 8.90763 19.3702 8.43188 19.0561 8.09785C18.732 7.75369 18.2963 7.56137 17.8303 7.55124H6.15956C5.69354 7.55124 5.25791 7.74357 4.93373 8.09785C4.61967 8.44201 4.42718 8.90763 4.43731 9.38338V17.7444C4.43731 18.2202 4.61967 18.6959 4.93373 19.0299C5.25791 19.3741 5.70367 19.5765 6.15956 19.5765C6.18995 19.5765 6.25074 19.5765 6.31152 19.5765C6.31152 19.5765 6.80794 19.5563 6.92951 19.5563ZM20.9 15.9224H22.6729V11.1953H20.9V15.9224ZM1.32714 15.9224H3.10004V11.1953H1.32714V15.9224ZM11.9848 1.38676C11.8734 1.38676 11.7721 1.41712 11.6707 1.45761C11.5694 1.50822 11.4783 1.56896 11.4073 1.64994C11.3364 1.73092 11.2756 1.83214 11.2351 1.93336C11.1946 2.03458 11.1845 2.15605 11.1845 2.2674C11.1845 2.49009 11.2858 2.69253 11.4377 2.84437C11.5897 2.9962 11.7923 3.07718 11.9949 3.07718C12.2178 3.07718 12.4204 2.98608 12.5724 2.82412C12.7244 2.67229 12.8054 2.45972 12.8054 2.23703C12.8054 2.12569 12.7851 2.01434 12.7446 1.90299C12.7041 1.80177 12.6433 1.70055 12.5724 1.61957C12.5015 1.53859 12.4103 1.47786 12.309 1.42725C12.2077 1.38676 12.1064 1.36651 12.0051 1.36651H11.9848V1.38676ZM11.8936 17.1573C11.0832 17.1573 8.81385 16.5905 8.27691 15.6997C8.13508 15.4568 8.12495 15.2138 8.27691 14.9405C8.31743 14.8697 8.37822 14.7988 8.45926 14.7482C8.53018 14.6976 8.61123 14.6571 8.69228 14.6369C8.7328 14.6267 8.78345 14.6166 8.83411 14.6166C8.87463 14.6166 8.91515 14.6166 8.95568 14.6267C9.03673 14.647 9.11777 14.6774 9.19882 14.728C10.0194 15.3555 10.992 15.6997 12.0152 15.6997C13.0384 15.6997 14.011 15.3657 14.8417 14.728C14.9126 14.6875 14.9937 14.647 15.0747 14.6369C15.1152 14.6369 15.1558 14.6267 15.1963 14.6267C15.2469 14.6267 15.2875 14.6267 15.3381 14.647C15.4192 14.6672 15.5002 14.6976 15.5711 14.7583C15.642 14.8089 15.7028 14.8798 15.7535 14.9608C15.8953 15.2138 15.8852 15.4669 15.7434 15.7098C15.2064 16.6006 12.9371 17.1674 12.1266 17.1674H11.924L11.8936 17.1573ZM15.1659 12.2075C14.9937 12.2075 14.8316 12.1265 14.7201 11.9949C14.5986 11.8633 14.5276 11.6811 14.5276 11.4888C14.5276 11.2965 14.5986 11.1244 14.7201 10.9827C14.8417 10.8511 15.0038 10.7701 15.176 10.7701C15.3381 10.7701 15.5002 10.8511 15.6218 10.9827C15.7434 11.1143 15.8143 11.2965 15.8143 11.4888C15.8143 11.6811 15.7434 11.8532 15.6218 11.9949C15.5002 12.1265 15.3482 12.1974 15.176 12.2075H15.1659ZM8.82398 12.2075C8.65175 12.2075 8.48966 12.1265 8.37822 11.9949C8.25665 11.8633 8.18573 11.6811 8.18573 11.4888C8.18573 11.2965 8.25665 11.1244 8.37822 10.9827C8.49979 10.8511 8.66188 10.7701 8.83411 10.7701C8.9962 10.7701 9.15829 10.8511 9.27987 10.9827C9.40143 11.1143 9.47235 11.2965 9.47235 11.4888C9.47235 11.6811 9.40143 11.8532 9.27987 11.9949C9.15829 12.1265 8.9962 12.1974 8.83411 12.2075H8.82398Z" fill="#002680"/>
</g>
<defs>
<clipPath id="clip0_9588_21502">
<rect width="24" height="24" fill="white"/>
</clipPath>
</defs>
</svg>
