<svg width="18" height="18" viewBox="0 0 18 18" fill="none" xmlns="http://www.w3.org/2000/svg">
<g id="Record Management/File Disposition Plan">
<path id="Vector" d="M8.25 4.125C8.25 3.82663 8.13147 3.54048 7.9205 3.3295C7.70952 3.11853 7.42337 3 7.125 3C6.82663 3 6.54048 3.11853 6.3295 3.3295C6.11853 3.54048 6 3.82663 6 4.125V9.75L4.89745 8.6475C4.67661 8.42691 4.38839 8.28643 4.07857 8.24838C3.76876 8.21034 3.45511 8.2769 3.18745 8.4375C2.93617 8.58816 2.75357 8.8309 2.67849 9.11411C2.60342 9.39732 2.64179 9.69865 2.78545 9.954C4.1947 12.459 5.01595 13.8907 5.24995 14.25C5.29876 14.3251 5.34776 14.4001 5.39695 14.475C5.80684 15.0974 6.36489 15.6083 7.02099 15.9617C7.67709 16.3152 8.41071 16.5001 9.15595 16.5H8.99995H10.5C11.6934 16.5 12.838 16.0259 13.6819 15.182C14.5258 14.3381 15 13.1935 15 12V5.625C15 5.32663 14.8814 5.04048 14.6704 4.8295C14.4595 4.61853 14.1733 4.5 13.875 4.5C13.5766 4.5 13.2904 4.61853 13.0795 4.8295C12.8685 5.04048 12.75 5.32663 12.75 5.625M8.25 4.125V9M8.25 4.125V2.625C8.25 2.47726 8.2791 2.33097 8.33564 2.19448C8.39217 2.05799 8.47504 1.93397 8.5795 1.8295C8.68397 1.72504 8.80799 1.64217 8.94448 1.58564C9.08097 1.5291 9.22726 1.5 9.375 1.5C9.52274 1.5 9.66903 1.5291 9.80552 1.58564C9.94201 1.64217 10.066 1.72504 10.1705 1.8295C10.275 1.93397 10.3578 2.05799 10.4144 2.19448C10.4709 2.33097 10.5 2.47726 10.5 2.625V9M10.5 4.125C10.5 3.82663 10.6185 3.54048 10.8295 3.3295C11.0405 3.11853 11.3266 3 11.625 3C11.9234 3 12.2095 3.11853 12.4205 3.3295C12.6315 3.54048 12.75 3.82663 12.75 4.125V9" stroke="#002680" stroke-width="1.5" stroke-linecap="round" stroke-linejoin="round"/>
</g>
</svg>
