<svg width="20" height="20" viewBox="0 0 20 20" fill="none" xmlns="http://www.w3.org/2000/svg">
<g id="View Content">
<path id="Vector" d="M3.33301 10H16.6663M9.99967 3.33334V16.6667M3.33301 5.00001C3.33301 4.55798 3.5086 4.13406 3.82116 3.8215C4.13372 3.50894 4.55765 3.33334 4.99967 3.33334H14.9997C15.4417 3.33334 15.8656 3.50894 16.1782 3.8215C16.4907 4.13406 16.6663 4.55798 16.6663 5.00001V15C16.6663 15.442 16.4907 15.866 16.1782 16.1785C15.8656 16.4911 15.4417 16.6667 14.9997 16.6667H4.99967C4.55765 16.6667 4.13372 16.4911 3.82116 16.1785C3.5086 15.866 3.33301 15.442 3.33301 15V5.00001Z" stroke="#7E7E7E" stroke-width="1.5" stroke-linecap="round" stroke-linejoin="round"/>
</g>
</svg>
