<svg width="24" height="25" viewBox="0 0 24 25" fill="none" xmlns="http://www.w3.org/2000/svg">
<g id="List/Action">
<g id="Vector">
<path d="M11 12.2975C11 12.5627 11.1054 12.8171 11.2929 13.0046C11.4804 13.1922 11.7348 13.2975 12 13.2975C12.2652 13.2975 12.5196 13.1922 12.7071 13.0046C12.8946 12.8171 13 12.5627 13 12.2975C13 12.0323 12.8946 11.7779 12.7071 11.5904C12.5196 11.4029 12.2652 11.2975 12 11.2975C11.7348 11.2975 11.4804 11.4029 11.2929 11.5904C11.1054 11.7779 11 12.0323 11 12.2975Z" stroke="#535353" stroke-width="1.5" stroke-linecap="round" stroke-linejoin="round"/>
<path d="M11 19.2975C11 19.5627 11.1054 19.8171 11.2929 20.0046C11.4804 20.1922 11.7348 20.2975 12 20.2975C12.2652 20.2975 12.5196 20.1922 12.7071 20.0046C12.8946 19.8171 13 19.5627 13 19.2975C13 19.0323 12.8946 18.7779 12.7071 18.5904C12.5196 18.4029 12.2652 18.2975 12 18.2975C11.7348 18.2975 11.4804 18.4029 11.2929 18.5904C11.1054 18.7779 11 19.0323 11 19.2975Z" stroke="#535353" stroke-width="1.5" stroke-linecap="round" stroke-linejoin="round"/>
<path d="M11 5.29752C11 5.56273 11.1054 5.81709 11.2929 6.00462C11.4804 6.19216 11.7348 6.29752 12 6.29752C12.2652 6.29752 12.5196 6.19216 12.7071 6.00462C12.8946 5.81709 13 5.56273 13 5.29752C13 5.0323 12.8946 4.77795 12.7071 4.59041C12.5196 4.40287 12.2652 4.29752 12 4.29752C11.7348 4.29752 11.4804 4.40287 11.2929 4.59041C11.1054 4.77795 11 5.0323 11 5.29752Z" stroke="#535353" stroke-width="1.5" stroke-linecap="round" stroke-linejoin="round"/>
</g>
</g>
</svg>
