<svg width="18" height="18" viewBox="0 0 18 18" fill="none" xmlns="http://www.w3.org/2000/svg">
<g id="JCORP.AI Icon" clip-path="url(#clip0_9349_28680)">
<path id="Vector" d="M13.138 6.07847L12.6768 5.57829L11.8751 5.95801C11.8471 5.91488 11.7988 5.88613 11.7443 5.88613C11.7101 5.88613 11.6787 5.89753 11.6532 5.91686L11.0622 5.31556C11.0888 5.28681 11.1056 5.24764 11.1056 5.20501C11.1056 5.13115 11.0569 5.06919 10.9904 5.05035L11.1852 4.08767C11.2687 4.0842 11.3357 4.0138 11.3357 3.92705L12.3932 3.75702L12.3859 3.70795L11.328 3.87798C11.3078 3.81304 11.2494 3.76594 11.1795 3.76594C11.1409 3.76594 11.1061 3.78082 11.0791 3.80461L10.0878 2.82359C10.0994 2.80128 10.1066 2.776 10.1066 2.74873C10.1066 2.6595 10.0362 2.58762 9.94983 2.58762C9.8741 2.58762 9.8109 2.64314 9.79595 2.71651L9.00724 2.61092C9.00627 2.57821 8.99566 2.54846 8.97878 2.52368L9.61312 1.93576C9.64062 1.95955 9.67535 1.97442 9.71394 1.97442C9.80077 1.97442 9.87072 1.90205 9.87072 1.81331C9.87072 1.72458 9.80029 1.6522 9.71394 1.6522C9.67197 1.6522 9.63386 1.66956 9.6054 1.69732L8.80897 1.24968C8.81428 1.23382 8.81766 1.21696 8.81766 1.19912C8.81766 1.10989 8.74723 1.03801 8.66088 1.03801C8.58948 1.03801 8.53015 1.08709 8.51085 1.15401L7.75109 1.13616C7.73951 1.05883 7.67535 0.999345 7.59672 0.999345C7.50989 0.999345 7.43994 1.07172 7.43994 1.16045C7.43994 1.24919 7.51037 1.32156 7.59672 1.32156C7.67487 1.32156 7.73903 1.26257 7.75109 1.18573L8.5041 1.20358C8.50651 1.29033 8.57549 1.36023 8.6604 1.36023C8.71249 1.36023 8.75832 1.33395 8.78678 1.2938L9.57598 1.73697C9.56392 1.75978 9.55668 1.78506 9.55668 1.81282C9.55668 1.84405 9.56585 1.87329 9.5808 1.89808L8.94453 2.48749C8.91848 2.46716 8.88616 2.45477 8.85046 2.45477C8.77955 2.45477 8.7207 2.50335 8.70092 2.56928L7.1206 2.35761C7.1206 2.35414 7.12156 2.35067 7.12156 2.3472C7.12156 2.25797 7.05113 2.18609 6.96479 2.18609C6.87844 2.18609 6.80801 2.25847 6.80801 2.3472C6.80801 2.38388 6.82055 2.4171 6.84033 2.44436L5.85384 3.18744C5.82537 3.1582 5.7863 3.13985 5.74288 3.13985C5.69416 3.13985 5.65123 3.16315 5.62229 3.19884L4.98312 2.63174C4.99807 2.60696 5.00724 2.57821 5.00724 2.54698C5.00724 2.45775 4.93681 2.38587 4.85046 2.38587C4.76411 2.38587 4.69368 2.45824 4.69368 2.54698C4.69368 2.54945 4.69416 2.55144 4.69416 2.55392L3.5808 2.78442C3.55861 2.72295 3.50169 2.67884 3.43415 2.67884C3.34732 2.67884 3.27738 2.75121 3.27738 2.83994C3.27738 2.92868 3.34781 3.00105 3.43415 3.00105C3.5205 3.00105 3.59093 2.92868 3.59093 2.83994C3.59093 2.83747 3.59045 2.83548 3.59045 2.833L4.70381 2.6025C4.726 2.66396 4.78292 2.70808 4.85046 2.70808C4.88905 2.70808 4.92426 2.69321 4.95128 2.66942L5.5972 3.24197C5.58997 3.26031 5.58611 3.28014 5.58611 3.30096C5.58611 3.32773 5.59334 3.35301 5.60444 3.37532L4.81476 3.97018C4.78582 3.93399 4.74288 3.9102 4.69368 3.9102C4.61071 3.9102 4.54366 3.97613 4.53787 4.05991L2.3753 4.1997C2.36276 4.12385 2.2986 4.06585 2.22094 4.06585C2.13411 4.06585 2.06416 4.13823 2.06416 4.22696C2.06416 4.3157 2.13459 4.38807 2.22094 4.38807C2.30005 4.38807 2.36469 4.32759 2.37578 4.24927L4.54124 4.10948C4.55813 4.17987 4.61939 4.23241 4.6932 4.23241C4.78003 4.23241 4.84998 4.16004 4.84998 4.07131C4.84998 4.05049 4.84563 4.03115 4.83888 4.01281L5.63193 3.41547C5.6604 3.44422 5.69947 3.46207 5.7424 3.46207C5.82923 3.46207 5.89918 3.38969 5.89918 3.30096C5.89918 3.27419 5.89243 3.2499 5.88133 3.2276L6.87506 2.47906C6.90063 2.4974 6.93102 2.50781 6.9643 2.50781C7.03039 2.50781 7.08683 2.46568 7.10999 2.4057L8.6932 2.61737C8.69465 2.70511 8.76411 2.776 8.84998 2.776C8.92185 2.776 8.98167 2.72593 9.00048 2.65851L9.79402 2.7646C9.8027 2.8454 9.86831 2.90835 9.94935 2.90835C9.9918 2.90835 10.0304 2.891 10.0589 2.86225L11.0473 3.8403C11.0318 3.86509 11.0232 3.89434 11.0232 3.92557C11.0232 3.99943 11.0719 4.06139 11.1384 4.08023L10.9436 5.04291C10.8601 5.04638 10.7931 5.11678 10.7931 5.20353C10.7931 5.22534 10.7974 5.24616 10.8051 5.26499L10.1201 5.6809C10.0917 5.64224 10.0468 5.61695 9.99566 5.61695C9.92185 5.61695 9.86059 5.669 9.84371 5.7394L7.80897 5.56788C7.80897 5.56788 7.80946 5.56292 7.80946 5.56044C7.80946 5.47121 7.73903 5.39933 7.65268 5.39933C7.56633 5.39933 7.4959 5.47171 7.4959 5.56044C7.4959 5.58919 7.5041 5.61596 7.51713 5.63976L5.91944 6.69564L3.76507 6.8969C3.74819 6.827 3.68693 6.77495 3.6136 6.77495C3.52967 6.77495 3.46165 6.84286 3.45731 6.92813L2.59865 7.02132C2.5808 6.95242 2.5205 6.90136 2.44766 6.90136C2.41534 6.90136 2.38591 6.91127 2.36083 6.92862L1.93198 6.44728C1.95369 6.41952 1.96671 6.38532 1.96671 6.34715C1.96671 6.25792 1.89629 6.18604 1.80994 6.18604C1.72359 6.18604 1.65316 6.25841 1.65316 6.34715C1.65316 6.43588 1.72359 6.50825 1.80994 6.50825C1.84226 6.50825 1.87168 6.49834 1.89677 6.48099L2.32562 6.96233C2.30391 6.99009 2.29088 7.0243 2.29088 7.06247C2.29088 7.08477 2.29522 7.10559 2.30294 7.12493L1.87361 7.38716C1.84467 7.35147 1.80174 7.32817 1.7535 7.32817C1.66667 7.32817 1.59672 7.40055 1.59672 7.48928C1.59672 7.57801 1.66715 7.65039 1.7535 7.65039C1.83985 7.65039 1.91027 7.57801 1.91027 7.48928C1.91027 7.46796 1.90593 7.44764 1.8987 7.4288L2.32754 7.16508C2.35649 7.20077 2.39894 7.22357 2.44766 7.22357C2.5316 7.22357 2.59961 7.15566 2.60396 7.0704L3.46261 6.9772C3.4684 6.99951 3.47902 7.02033 3.49301 7.03768L2.4877 8.19568C2.4631 8.17932 2.43415 8.1694 2.4028 8.1694C2.31597 8.1694 2.24602 8.24178 2.24602 8.33051C2.24602 8.41925 2.31645 8.49162 2.4028 8.49162C2.44959 8.49162 2.49156 8.46981 2.52002 8.4366L4.28413 9.58963C4.27931 9.605 4.27593 9.62136 4.27593 9.63821C4.27593 9.72744 4.34636 9.79932 4.43271 9.79932C4.51905 9.79932 4.58948 9.72695 4.58948 9.63821C4.58948 9.54948 4.51905 9.47711 4.43271 9.47711C4.38013 9.47711 4.33382 9.50388 4.30535 9.54502L2.54655 8.39545C2.55475 8.37562 2.55958 8.35381 2.55958 8.33101C2.55958 8.29234 2.54559 8.25715 2.5234 8.22938L3.5287 7.07139C3.5533 7.08775 3.58225 7.09766 3.6136 7.09766C3.69658 7.09766 3.76411 7.03074 3.76942 6.94696L5.93005 6.74521H5.93584L7.54703 5.67991C7.57501 5.70618 7.61216 5.72304 7.65268 5.72304C7.72021 5.72304 7.77714 5.67941 7.79933 5.61795L9.83936 5.78996C9.84467 5.87374 9.9122 5.94066 9.99518 5.94066C10.0304 5.94066 10.0627 5.92826 10.0892 5.90794L10.974 6.89987C10.9585 6.92466 10.9493 6.9544 10.9493 6.98613C10.9493 7.03173 10.9677 7.07238 10.9976 7.10163L9.49735 9.44736C9.47419 9.43348 9.44766 9.42506 9.4192 9.42506C9.3343 9.42506 9.2658 9.49396 9.26291 9.58022L8.86975 9.62334C8.85384 9.55146 8.79161 9.49743 8.71684 9.49743C8.63097 9.49743 8.56102 9.56881 8.56006 9.65705L6.47371 9.88558C6.45007 9.82758 6.39411 9.78693 6.32899 9.78693C6.24216 9.78693 6.17221 9.8593 6.17221 9.94804C6.17221 9.95944 6.17366 9.97084 6.17559 9.98175L3.89387 11.1888C3.8659 11.1447 3.81766 11.1155 3.76266 11.1155C3.68307 11.1155 3.61795 11.1769 3.60782 11.2557L2.67535 11.0178C2.67535 11.0153 2.67631 11.0123 2.67631 11.0099C2.67631 10.9206 2.60589 10.8488 2.51954 10.8488C2.50072 10.8488 2.48336 10.8527 2.46696 10.8587L1.25904 8.35331C1.29281 8.32357 1.31452 8.28044 1.31452 8.23137C1.31452 8.16544 1.27593 8.10942 1.22142 8.08414L1.4028 4.21407C1.48384 4.20812 1.548 4.13922 1.548 4.05396C1.548 4.01678 1.53546 3.98307 1.51471 3.9558L5.1042 0.869963C5.13314 0.907141 5.17656 0.930936 5.22624 0.930936C5.31307 0.930936 5.38302 0.858561 5.38302 0.769828C5.38302 0.766853 5.38254 0.764375 5.38205 0.7614L8.42933 0.620617L8.4274 0.571045L5.37241 0.712324C5.34973 0.651847 5.29329 0.608719 5.22624 0.608719C5.13941 0.608719 5.06946 0.681094 5.06946 0.769828C5.06946 0.789656 5.07332 0.808494 5.08008 0.826339L1.47853 3.9211C1.45345 3.90326 1.42306 3.89285 1.39026 3.89285C1.30343 3.89285 1.23348 3.96522 1.23348 4.05396C1.23348 4.1298 1.28461 4.19325 1.35359 4.21011L1.1727 8.07125C1.16739 8.07076 1.16208 8.06976 1.15678 8.06976C1.06995 8.06976 1 8.14214 1 8.23087C1 8.31961 1.07043 8.39198 1.15678 8.39198C1.178 8.39198 1.19875 8.38752 1.21708 8.37959L2.42354 10.882C2.3864 10.9112 2.36179 10.9573 2.36179 11.0094C2.36179 11.0986 2.43222 11.1705 2.51857 11.1705C2.58562 11.1705 2.64255 11.1269 2.66474 11.0659L3.60782 11.3063C3.61746 11.3584 3.65171 11.401 3.69754 11.4223L3.71298 11.8109C3.64351 11.8273 3.59141 11.8913 3.59141 11.9676C3.59141 12.0568 3.66184 12.1287 3.74819 12.1287C3.79836 12.1287 3.84226 12.1044 3.87072 12.0667L5.49059 12.8757C5.48239 12.8951 5.47757 12.9169 5.47757 12.9397C5.47757 13.0289 5.548 13.1008 5.63435 13.1008C5.7207 13.1008 5.79112 13.0284 5.79112 12.9397C5.79112 12.9362 5.79016 12.9332 5.79016 12.9303L8.11867 12.2348L8.80704 13.8196L10.1182 14.4923L9.2986 13.0175L9.47323 11.3346C9.55572 11.3301 9.62181 11.2602 9.62181 11.1744C9.62181 11.0887 9.55138 11.0133 9.46503 11.0133C9.4356 11.0133 9.40859 11.0223 9.38495 11.0366L8.67583 10.1027L8.73613 9.81766C8.80801 9.80775 8.86397 9.74777 8.87024 9.67292L9.26676 9.62979C9.2851 9.6977 9.34539 9.74777 9.41727 9.74777C9.5041 9.74777 9.57405 9.67539 9.57405 9.58666C9.57405 9.54502 9.55813 9.50735 9.53304 9.47859L11.0352 7.12988C11.056 7.14029 11.0796 7.14723 11.1042 7.14723C11.191 7.14723 11.261 7.07486 11.261 6.98613C11.261 6.97274 11.259 6.96035 11.2562 6.94796L13.137 6.07896L13.138 6.07847ZM9.34877 11.0689C9.32417 11.0971 9.30921 11.1343 9.30921 11.1749C9.30921 11.2498 9.35938 11.3123 9.42644 11.3301L9.25036 13.0284L9.99855 14.3753L8.84515 13.7839L8.14665 12.1758L5.78148 12.8822C5.7588 12.8222 5.70236 12.7791 5.63579 12.7791C5.58852 12.7791 5.54703 12.8009 5.51809 12.8346L3.89532 12.0241C3.90159 12.0068 3.90545 11.9879 3.90545 11.9681C3.90545 11.8833 3.84178 11.8149 3.76122 11.8085L3.74626 11.4362C3.75157 11.4367 3.75639 11.4377 3.7617 11.4377C3.84853 11.4377 3.91848 11.3653 3.91848 11.2766C3.91848 11.2617 3.91606 11.2478 3.9122 11.2339L6.19247 10.0278C6.21949 10.0764 6.26966 10.1091 6.32803 10.1091C6.41486 10.1091 6.4848 10.0368 6.4848 9.94804C6.4848 9.94358 6.48384 9.93911 6.48336 9.93416L8.56633 9.70613C8.58321 9.76264 8.62952 9.80626 8.68741 9.81717L8.62422 10.1156L9.34781 11.0689H9.34877ZM10.8292 5.30812C10.8582 5.34282 10.9006 5.36563 10.9484 5.36563C10.9754 5.36563 11.001 5.35769 11.0232 5.3453L11.6189 5.95156C11.5996 5.97833 11.5876 6.01155 11.5876 6.04724C11.5876 6.13647 11.658 6.20834 11.7443 6.20834C11.8307 6.20834 11.9011 6.13597 11.9011 6.04724C11.9011 6.03187 11.8982 6.01749 11.8944 6.00312L12.6652 5.63827L13.056 6.06161L11.2383 6.90136C11.2108 6.85526 11.1616 6.82403 11.1052 6.82403C11.0671 6.82403 11.0323 6.8384 11.0053 6.8617L10.122 5.87175C10.1404 5.84548 10.151 5.81326 10.151 5.77856C10.151 5.75972 10.1471 5.74187 10.1413 5.72502L10.8288 5.30763L10.8292 5.30812ZM5.67583 5.21592L7.08152 4.32809C7.0767 4.31223 7.07332 4.29587 7.07332 4.27852C7.07332 4.18929 7.14375 4.11741 7.2301 4.11741C7.24554 4.11741 7.26049 4.12038 7.27448 4.12484L7.5041 3.67969C7.45876 3.65143 7.42788 3.60087 7.42788 3.54188C7.42788 3.49578 7.44718 3.45414 7.47709 3.42489L7.11867 2.93165C7.09551 2.94553 7.06898 2.95396 7.04052 2.95396C6.95369 2.95396 6.88374 2.88158 6.88374 2.79285C6.88374 2.70412 6.95417 2.63174 7.04052 2.63174C7.12687 2.63174 7.1973 2.70412 7.1973 2.79285C7.1973 2.83449 7.18138 2.87217 7.1563 2.90092L7.51713 3.39713C7.53787 3.38722 7.56054 3.38077 7.58466 3.38077C7.67149 3.38077 7.74144 3.45315 7.74144 3.54188C7.74144 3.63061 7.67101 3.70299 7.58466 3.70299C7.57212 3.70299 7.56054 3.70101 7.54896 3.69853L7.31886 4.14517C7.35311 4.16896 7.37723 4.20664 7.38447 4.24977L8.64737 4.34147C8.66522 4.27257 8.72552 4.222 8.79836 4.222C8.87844 4.222 8.94404 4.28397 8.95321 4.36378L9.85046 4.42872C9.85046 4.42872 9.85046 4.42723 9.85046 4.42674C9.85046 4.33751 9.92089 4.26563 10.0072 4.26563C10.0743 4.26563 10.1312 4.30925 10.1534 4.36973L10.644 4.11096C10.6387 4.0951 10.6353 4.07825 10.6353 4.0604C10.6353 3.97117 10.7057 3.89929 10.7921 3.89929C10.8784 3.89929 10.9489 3.97167 10.9489 4.0604C10.9489 4.14913 10.8784 4.22151 10.7921 4.22151C10.74 4.22151 10.6942 4.19524 10.6657 4.15508L10.163 4.42029C10.163 4.42029 10.1635 4.42475 10.1635 4.42674C10.1635 4.51597 10.0931 4.58784 10.0068 4.58784C9.93825 4.58784 9.88037 4.54224 9.85914 4.47879L8.95224 4.41286C8.9397 4.47978 8.88712 4.53183 8.82055 4.54125L8.81476 5.04143C8.87313 5.06472 8.91462 5.12272 8.91462 5.19113C8.91462 5.28036 8.84419 5.35224 8.75784 5.35224C8.67149 5.35224 8.60106 5.27987 8.60106 5.19113C8.60106 5.1024 8.67149 5.03002 8.75784 5.03002C8.76073 5.03002 8.76363 5.03102 8.767 5.03102L8.77279 4.54075C8.70092 4.52836 8.64641 4.46639 8.64255 4.39005L7.38543 4.29884C7.3753 4.37766 7.31018 4.43863 7.23058 4.43863C7.17849 4.43863 7.13218 4.41186 7.10371 4.37171L5.70381 5.25558C5.71442 5.27689 5.7207 5.30118 5.7207 5.32696C5.7207 5.39785 5.67583 5.45733 5.6136 5.47914L5.75398 6.02691C5.75929 6.02642 5.76459 6.02543 5.7699 6.02543C5.85673 6.02543 5.92668 6.0978 5.92668 6.18653C5.92668 6.27527 5.85625 6.34764 5.7699 6.34764C5.68355 6.34764 5.61312 6.27527 5.61312 6.18653C5.61312 6.1206 5.65171 6.06409 5.70719 6.03881L5.56585 5.48807C5.56585 5.48807 5.5644 5.48807 5.56343 5.48807C5.48866 5.48807 5.42595 5.43403 5.41052 5.36166L4.18041 5.4727C4.17028 5.55152 4.10516 5.61249 4.02557 5.61249C3.93874 5.61249 3.86879 5.54012 3.86879 5.45138C3.86879 5.36265 3.93922 5.29028 4.02557 5.29028C4.10275 5.29028 4.16643 5.34778 4.17945 5.42313L5.40762 5.31209C5.41486 5.23029 5.48143 5.16535 5.56295 5.16535C5.60733 5.16535 5.64689 5.18419 5.67535 5.21443L5.67583 5.21592ZM6.49542 7.77828L7.96286 6.86517C7.95948 6.85179 7.95707 6.8384 7.95707 6.82403C7.95707 6.7348 8.0275 6.66292 8.11384 6.66292C8.1891 6.66292 8.25181 6.71745 8.26676 6.78982L9.65509 6.92218C9.67246 6.85228 9.73324 6.80023 9.80656 6.80023C9.89339 6.80023 9.96334 6.87261 9.96334 6.96134C9.96334 7.05007 9.89291 7.12245 9.80656 7.12245C9.72021 7.12245 9.65605 7.05553 9.65075 6.97125L8.26869 6.83989C8.26097 6.92119 8.19489 6.98513 8.11336 6.98513C8.05789 6.98513 8.00965 6.95539 7.98167 6.91078L6.5205 7.81992C6.52822 7.83876 6.53256 7.85958 6.53256 7.88139C6.53256 7.91312 6.5234 7.94236 6.50796 7.96765L7.55765 8.91248C7.58418 8.89117 7.61746 8.87778 7.65412 8.87778C7.74096 8.87778 7.8109 8.95016 7.8109 9.03889C7.8109 9.12763 7.74047 9.2 7.65412 9.2C7.56778 9.2 7.49735 9.12763 7.49735 9.03889C7.49735 9.00518 7.50748 8.97445 7.52436 8.94867L6.47564 8.00483C6.44863 8.02812 6.41389 8.043 6.3753 8.043C6.29957 8.043 6.23637 7.98797 6.22142 7.91411L5.05065 7.9731C5.03377 8.04399 4.9725 8.09653 4.8987 8.09653C4.81187 8.09653 4.74192 8.02416 4.74192 7.93542C4.74192 7.84669 4.81235 7.77432 4.8987 7.77432C4.98505 7.77432 5.04824 7.84025 5.05451 7.92353L6.21997 7.86454C6.22817 7.78373 6.29426 7.72028 6.3753 7.72028C6.42354 7.72028 6.46599 7.74309 6.49494 7.77828H6.49542Z" fill="white"/>
<path id="Vector_2" d="M12.1918 3.79514V3.52249H5.3684C5.31726 3.40302 5.20101 3.31925 5.06594 3.31925C4.88359 3.31925 4.7355 3.47143 4.7355 3.65881C4.7355 3.8462 4.88359 3.99838 5.06594 3.99838C5.20101 3.99838 5.31726 3.91461 5.3684 3.79514H7.1547L6.47838 4.49013C6.44124 4.47526 6.40072 4.46683 6.35826 4.46683C6.17592 4.46683 6.02783 4.61902 6.02783 4.8064C6.02783 4.99378 6.17592 5.14597 6.35826 5.14597C6.54061 5.14597 6.6887 4.99378 6.6887 4.8064C6.6887 4.76278 6.6805 4.72114 6.66603 4.68297L7.53 3.79514H12.1918ZM6.35826 4.9224C6.29555 4.9224 6.2449 4.87035 6.2449 4.80591C6.2449 4.74146 6.29555 4.68941 6.35826 4.68941C6.42098 4.68941 6.47163 4.74146 6.47163 4.80591C6.47163 4.87035 6.42098 4.9224 6.35826 4.9224ZM5.06594 3.77531C5.00322 3.77531 4.95257 3.72326 4.95257 3.65881C4.95257 3.59437 5.00322 3.54232 5.06594 3.54232C5.12865 3.54232 5.1793 3.59437 5.1793 3.65881C5.1793 3.72326 5.12865 3.77531 5.06594 3.77531ZM4.10935 2.24652C4.24442 2.24652 4.36068 2.16274 4.41181 2.04327H11.2348V1.77063H4.41181C4.36068 1.65116 4.24442 1.56738 4.10935 1.56738C3.92701 1.56738 3.77891 1.71957 3.77891 1.90695C3.77891 2.09433 3.92701 2.24652 4.10935 2.24652ZM4.10935 1.79046C4.17206 1.79046 4.22271 1.84251 4.22271 1.90695C4.22271 1.97139 4.17206 2.02344 4.10935 2.02344C4.04664 2.02344 3.99599 1.97139 3.99599 1.90695C3.99599 1.84251 4.04664 1.79046 4.10935 1.79046ZM9.12334 7.37918C9.07221 7.25971 8.95595 7.17593 8.82088 7.17593C8.63854 7.17593 8.49044 7.32812 8.49044 7.5155C8.49044 7.70288 8.63854 7.85506 8.82088 7.85506C8.95595 7.85506 9.07221 7.77129 9.12334 7.65182H12.5792V7.37918H9.12334ZM8.82088 7.63199C8.75817 7.63199 8.70752 7.57994 8.70752 7.5155C8.70752 7.45105 8.75817 7.399 8.82088 7.399C8.88359 7.399 8.93424 7.45105 8.93424 7.5155C8.93424 7.57994 8.88359 7.63199 8.82088 7.63199ZM5.00371 8.6383C4.95257 8.51883 4.83632 8.43505 4.70125 8.43505C4.5189 8.43505 4.37081 8.58724 4.37081 8.77462C4.37081 8.962 4.5189 9.11419 4.70125 9.11419C4.83632 9.11419 4.95257 9.03041 5.00371 8.91094H8.20969L7.52083 9.61883C7.47838 9.5985 7.43111 9.58661 7.38094 9.58661C7.19859 9.58661 7.0505 9.73879 7.0505 9.92617C7.0505 10.1136 7.19859 10.2657 7.38094 10.2657C7.56328 10.2657 7.71138 10.1136 7.71138 9.92617C7.71138 9.89048 7.70607 9.85677 7.69594 9.82455L8.58451 8.91144H9.50202L11.1856 10.6415L11.3732 10.4487L9.612 8.63879H5.00322L5.00371 8.6383ZM7.38142 10.0422C7.31871 10.0422 7.26806 9.99012 7.26806 9.92568C7.26806 9.86123 7.31871 9.80918 7.38142 9.80918C7.39686 9.80918 7.41181 9.81265 7.42484 9.81811L7.48562 9.88057C7.49141 9.89445 7.4943 9.90932 7.4943 9.92518C7.4943 9.98962 7.44365 10.0417 7.38094 10.0417L7.38142 10.0422ZM4.70125 8.89111C4.63854 8.89111 4.58788 8.83906 4.58788 8.77462C4.58788 8.71018 4.63854 8.65813 4.70125 8.65813C4.76396 8.65813 4.81461 8.71018 4.81461 8.77462C4.81461 8.83906 4.76396 8.89111 4.70125 8.89111ZM6.49768 7.65182L8.56955 5.52271H12.5478V5.25007H8.45957L7.90771 5.81717H4.21499C4.16386 5.6977 4.0476 5.61392 3.91253 5.61392C3.73019 5.61392 3.5821 5.76611 3.5821 5.95349C3.5821 6.14087 3.73019 6.29306 3.91253 6.29306C4.0476 6.29306 4.16386 6.20928 4.21499 6.08981H7.64239L6.38769 7.37918H2.66024C2.60911 7.25971 2.49285 7.17593 2.35778 7.17593C2.17544 7.17593 2.02734 7.32812 2.02734 7.5155C2.02734 7.70288 2.17544 7.85506 2.35778 7.85506C2.49285 7.85506 2.60911 7.77129 2.66024 7.65182H6.49768ZM3.91205 6.06998C3.84934 6.06998 3.79869 6.01793 3.79869 5.95349C3.79869 5.88905 3.84934 5.837 3.91205 5.837C3.97476 5.837 4.02541 5.88905 4.02541 5.95349C4.02541 6.01793 3.97476 6.06998 3.91205 6.06998ZM2.35778 7.63199C2.29507 7.63199 2.24442 7.57994 2.24442 7.5155C2.24442 7.45105 2.29507 7.399 2.35778 7.399C2.42049 7.399 2.47115 7.45105 2.47115 7.5155C2.47115 7.57994 2.42049 7.63199 2.35778 7.63199Z" fill="white"/>
<path id="Vector_3" d="M10.8002 18C10.8002 18 10.776 17.3595 10.8966 17.0333C11.0172 16.7072 11.4031 15.9016 12.1427 15.9016C12.8822 15.9016 13.6057 16.4306 14.3896 16.4306C15.1735 16.4306 15.27 15.9061 15.27 15.6622C15.27 15.4183 15.1735 15.051 15.1735 14.8155C15.1735 14.58 15.2155 14.3218 15.4548 14.0759C15.694 13.83 16.1098 13.6337 16.1098 13.5554C16.1098 13.4771 15.7157 13.1271 15.7157 13.0597C15.7157 12.9799 16.3052 12.9358 16.3052 12.7979C16.3052 12.6601 16.1687 12.1451 15.9782 11.5889C16.23 11.4982 16.9994 11.2364 16.9994 10.7407C16.9994 10.245 15.7399 8.93134 15.2854 8.46884C15.4745 7.98551 15.5831 7.13883 15.5831 6.62229C15.5831 6.10575 15.6525 4.15312 13.7659 2.21437C11.8793 0.275619 9.1359 0 8.49239 0C7.84887 0 6.56281 0.077332 5.30859 0.628074C6.15568 0.463 6.26663 0.468453 6.76494 0.468453C7.26325 0.468453 9.31342 0.410454 10.8773 2.01757C12.4413 3.62469 12.4369 5.61152 12.4369 6.03288C12.4369 9.27983 9.36841 11.9235 9.36841 14.8869C9.36841 14.8869 9.30425 16.7845 10.7997 18.0005L10.8002 18Z" fill="white"/>
<path id="Vector_4" d="M13.4342 16.0404C13.4342 16.0404 13.0241 14.7926 13.0241 12.9917C13.0241 11.1908 13.7154 8.16242 13.7154 5.95647C13.7154 3.13088 13.0656 1.66455 13.0656 1.66455C13.0656 1.66455 13.4245 3.22061 13.4245 4.74097C13.4245 7.34349 12.7598 10.8383 12.7598 12.3418C12.7598 13.8453 12.9739 15.0008 13.4337 16.0404H13.4342Z" fill="#002680"/>
</g>
<defs>
<clipPath id="clip0_9349_28680">
<rect width="18" height="18" fill="white"/>
</clipPath>
</defs>
</svg>
