<svg width="17" height="16" viewBox="0 0 17 16" fill="none" xmlns="http://www.w3.org/2000/svg">
<g id="logout">
<path id="Path" d="M9.83333 5.33341V4.00008C9.83333 3.2637 9.23638 2.66675 8.5 2.66675H3.83333C3.09695 2.66675 2.5 3.2637 2.5 4.00008V12.0001C2.5 12.7365 3.09695 13.3334 3.83333 13.3334H8.5C9.23638 13.3334 9.83333 12.7365 9.83333 12.0001V10.6667" stroke="white" stroke-width="1.5" stroke-linecap="round" stroke-linejoin="round"/>
<path id="Shape" d="M5.16666 7.25C4.75244 7.25 4.41666 7.58579 4.41666 8C4.41666 8.41421 4.75244 8.75 5.16666 8.75V7.25ZM14.5 8V8.75C14.8033 8.75 15.0768 8.56727 15.1929 8.28701C15.309 8.00676 15.2448 7.68417 15.0303 7.46967L14.5 8ZM13.0303 5.46967C12.7374 5.17678 12.2626 5.17678 11.9697 5.46967C11.6768 5.76256 11.6768 6.23744 11.9697 6.53033L13.0303 5.46967ZM11.9697 9.46967C11.6768 9.76256 11.6768 10.2374 11.9697 10.5303C12.2626 10.8232 12.7374 10.8232 13.0303 10.5303L11.9697 9.46967ZM15.0303 8.53033C15.3232 8.23744 15.3232 7.76256 15.0303 7.46967C14.7374 7.17678 14.2626 7.17678 13.9697 7.46967L15.0303 8.53033ZM5.16666 8.75H14.5V7.25H5.16666V8.75ZM15.0303 7.46967L13.0303 5.46967L11.9697 6.53033L13.9697 8.53033L15.0303 7.46967ZM13.0303 10.5303L15.0303 8.53033L13.9697 7.46967L11.9697 9.46967L13.0303 10.5303Z" fill="white"/>
</g>
</svg>
