<svg width="64" height="64" viewBox="0 0 64 64" fill="none" xmlns="http://www.w3.org/2000/svg">
<path d="M9.0657 43.5765C9.0657 43.6575 9.05819 43.7308 9.04282 43.7958C9.02746 43.8608 9.00164 43.9161 8.96536 43.9618C8.92875 44.0076 8.88103 44.0422 8.8222 44.0664C8.76303 44.0903 8.69014 44.1024 8.60353 44.1024C8.57574 44.1024 8.54829 44.1004 8.52116 44.0962C8.49403 44.0919 8.46886 44.0867 8.44631 44.0802C8.42376 44.0736 8.40414 44.0668 8.38747 44.0596C8.3708 44.0521 8.35969 44.0455 8.35414 44.0396C8.34858 44.0337 8.344 44.0275 8.34041 44.021C8.33681 44.0145 8.33354 44.006 8.3306 43.9955C8.32799 43.985 8.32603 43.9716 8.32504 43.956C8.32406 43.9403 8.32374 43.9203 8.32374 43.8965C8.32374 43.8651 8.32439 43.8386 8.3257 43.817C8.32701 43.7955 8.32929 43.7781 8.33256 43.7657C8.33583 43.7533 8.34041 43.7445 8.34629 43.7396C8.35217 43.7343 8.36002 43.7321 8.36917 43.7321C8.37734 43.7321 8.38715 43.735 8.39826 43.7412C8.40937 43.7471 8.42179 43.7536 8.43552 43.7598C8.44925 43.7661 8.46559 43.7726 8.4839 43.7785C8.5022 43.7844 8.5241 43.7876 8.54894 43.7876C8.57378 43.7876 8.59568 43.784 8.61464 43.7772C8.6336 43.7703 8.64929 43.7582 8.66171 43.7412C8.67413 43.7242 8.68361 43.7013 8.69014 43.6726C8.69668 43.6438 8.69995 43.6072 8.69995 43.5618V42.3315C8.69995 42.3223 8.70289 42.3142 8.7091 42.3073C8.71499 42.3004 8.72479 42.2945 8.73819 42.29C8.75159 42.2854 8.77022 42.2818 8.79408 42.2795C8.81795 42.2772 8.84769 42.2759 8.88266 42.2759C8.91764 42.2759 8.94673 42.2772 8.96993 42.2795C8.99314 42.2818 9.01177 42.2854 9.02583 42.29C9.04021 42.2945 9.05034 42.3004 9.05622 42.3073C9.06211 42.3142 9.06538 42.3223 9.06538 42.3315L9.0657 43.5765Z" fill="#002F67"/>
<path d="M10.6918 43.8036C10.6918 43.8268 10.6912 43.8465 10.6899 43.8625C10.6885 43.8785 10.6863 43.8925 10.6836 43.904C10.681 43.9154 10.6771 43.9256 10.6725 43.9337C10.668 43.9419 10.6604 43.9514 10.6503 43.9622C10.6402 43.973 10.6206 43.9864 10.5915 44.003C10.5624 44.0197 10.5268 44.0357 10.4849 44.0507C10.4431 44.0661 10.395 44.0785 10.3411 44.089C10.2872 44.0991 10.2287 44.1043 10.1659 44.1043C10.0433 44.1043 9.93253 44.0854 9.83382 44.0475C9.7351 44.0096 9.6511 43.953 9.58181 43.8778C9.51252 43.8027 9.45957 43.7089 9.42263 43.5961C9.3857 43.4836 9.36739 43.3526 9.36739 43.2032C9.36739 43.0538 9.38766 42.9159 9.42819 42.7976C9.46872 42.6796 9.52559 42.5802 9.59848 42.5001C9.67137 42.4197 9.75864 42.3589 9.86062 42.3174C9.9626 42.2759 10.075 42.255 10.1976 42.255C10.2473 42.255 10.2953 42.2592 10.3414 42.2674C10.3875 42.2756 10.4303 42.2867 10.4696 42.3001C10.5088 42.3135 10.5441 42.3289 10.5755 42.3465C10.6068 42.3642 10.6287 42.3792 10.6412 42.3916C10.6536 42.404 10.6621 42.4145 10.6666 42.4227C10.6712 42.4308 10.6748 42.4416 10.6778 42.4544C10.6807 42.4671 10.6827 42.4825 10.684 42.5001C10.6853 42.5178 10.6859 42.5394 10.6859 42.5652C10.6859 42.593 10.685 42.6165 10.6833 42.6358C10.6814 42.6551 10.6781 42.6708 10.6735 42.6828C10.6689 42.6949 10.6634 42.7034 10.6568 42.709C10.6503 42.7146 10.6431 42.7172 10.6346 42.7172C10.6209 42.7172 10.6032 42.709 10.582 42.693C10.5607 42.677 10.5333 42.659 10.4996 42.639C10.466 42.6191 10.4258 42.6011 10.3793 42.5851C10.3326 42.5691 10.277 42.5609 10.2126 42.5609C10.1417 42.5609 10.0783 42.5753 10.0224 42.6044C9.96652 42.6335 9.91913 42.675 9.8799 42.7289C9.84068 42.7829 9.81094 42.8482 9.79067 42.9247C9.77041 43.0012 9.76027 43.0875 9.76027 43.1836C9.76027 43.2888 9.77106 43.38 9.79296 43.4568C9.81453 43.534 9.84558 43.5974 9.88579 43.6471C9.92599 43.6968 9.97436 43.734 10.0312 43.7585C10.0881 43.7831 10.1518 43.7951 10.2228 43.7951C10.2875 43.7951 10.3431 43.7876 10.3901 43.7723C10.4372 43.7572 10.4774 43.7402 10.5114 43.7219C10.5451 43.7036 10.5728 43.687 10.5944 43.6722C10.616 43.6575 10.633 43.65 10.6451 43.65C10.6542 43.65 10.6617 43.652 10.6673 43.6556C10.6729 43.6592 10.6774 43.6667 10.681 43.6778C10.6846 43.6889 10.6876 43.7043 10.6892 43.7242C10.6912 43.7442 10.6918 43.7706 10.6918 43.8036Z" fill="#002F67"/>
<path d="M12.5435 43.1588C12.5435 43.3071 12.5252 43.4402 12.4882 43.5572C12.4513 43.6745 12.3964 43.7739 12.3235 43.8553C12.2506 43.937 12.1604 43.9991 12.0528 44.0422C11.9453 44.0851 11.8211 44.1066 11.6799 44.1066C11.5387 44.1066 11.4191 44.0883 11.3151 44.0521C11.2112 44.0154 11.1249 43.9599 11.0556 43.8854C10.9863 43.8105 10.9347 43.7157 10.9 43.6003C10.8654 43.485 10.8481 43.3483 10.8481 43.1908C10.8481 43.046 10.8664 42.9156 10.9033 42.7999C10.9402 42.6842 10.9951 42.5854 11.068 42.5044C11.1409 42.4233 11.2311 42.3609 11.3387 42.3174C11.4462 42.274 11.5711 42.2524 11.7129 42.2524C11.8548 42.2524 11.9682 42.2704 12.0721 42.3063C12.1761 42.3423 12.2627 42.3975 12.3323 42.4724C12.4019 42.5472 12.4546 42.6413 12.4902 42.7554C12.5258 42.8695 12.5435 43.0038 12.5435 43.1588ZM12.1614 43.178C12.1614 43.0839 12.1538 42.9983 12.1391 42.9215C12.1244 42.8443 12.0993 42.7783 12.0636 42.7237C12.028 42.6688 11.9809 42.6263 11.9218 42.5962C11.8626 42.5662 11.7891 42.5511 11.7005 42.5511C11.6119 42.5511 11.5364 42.5678 11.4763 42.6015C11.4161 42.6351 11.3678 42.6802 11.3308 42.7365C11.2939 42.7927 11.2677 42.8584 11.2527 42.9335C11.2377 43.0087 11.2298 43.0885 11.2298 43.1722C11.2298 43.2699 11.2373 43.3578 11.252 43.4359C11.2668 43.514 11.2916 43.5804 11.3269 43.636C11.3619 43.6912 11.4089 43.7334 11.4681 43.7625C11.5273 43.7915 11.6015 43.8059 11.691 43.8059C11.7806 43.8059 11.8551 43.7893 11.9152 43.7562C11.9751 43.7229 12.0238 43.6778 12.0607 43.6206C12.0976 43.5634 12.1238 43.4967 12.1388 43.4206C12.1542 43.3444 12.1614 43.2637 12.1614 43.178Z" fill="#002F67"/>
<path d="M14.1777 44.0279C14.1777 44.038 14.1758 44.0465 14.1722 44.0534C14.1686 44.0602 14.1598 44.0661 14.146 44.0707C14.1323 44.0753 14.112 44.0785 14.0852 44.0805C14.0584 44.0824 14.0222 44.0831 13.9757 44.0831C13.9368 44.0831 13.9061 44.0821 13.8829 44.0805C13.8597 44.0789 13.8417 44.0753 13.8283 44.07C13.8149 44.0651 13.8055 44.0586 13.7999 44.0507C13.7943 44.0429 13.7898 44.0334 13.7862 44.0223L13.6257 43.6222C13.6064 43.5771 13.5874 43.5369 13.5688 43.502C13.5505 43.467 13.5299 43.4376 13.5074 43.414C13.4848 43.3905 13.4587 43.3728 13.4292 43.3607C13.3998 43.3487 13.3655 43.3428 13.3269 43.3428H13.2135V44.0249C13.2135 44.0341 13.2106 44.0426 13.2044 44.0498C13.1985 44.0573 13.1883 44.0632 13.1746 44.0677C13.1609 44.0723 13.1423 44.0759 13.1194 44.0789C13.0962 44.0815 13.0668 44.0831 13.0308 44.0831C12.9948 44.0831 12.9664 44.0818 12.9429 44.0789C12.9193 44.0759 12.9007 44.0723 12.887 44.0677C12.8733 44.0632 12.8635 44.0573 12.8579 44.0498C12.8523 44.0422 12.8497 44.0341 12.8497 44.0249V42.3988C12.8497 42.3583 12.8602 42.3289 12.8808 42.3109C12.9017 42.2929 12.9272 42.2838 12.9576 42.2838H13.4211C13.4681 42.2838 13.5067 42.2847 13.5374 42.2864C13.5678 42.2883 13.5956 42.2906 13.6205 42.2932C13.6924 42.3034 13.7571 42.321 13.8149 42.3459C13.8725 42.3707 13.9215 42.4034 13.9617 42.4436C14.0019 42.4838 14.0326 42.5312 14.0539 42.5861C14.0751 42.641 14.0856 42.7041 14.0856 42.775C14.0856 42.8348 14.0781 42.8897 14.0627 42.9391C14.0473 42.9885 14.0251 43.0326 13.9957 43.0712C13.9663 43.1097 13.9297 43.1437 13.8865 43.1722C13.843 43.2009 13.7937 43.2238 13.7384 43.2414C13.7653 43.2545 13.7904 43.2702 13.814 43.2885C13.8375 43.3071 13.8597 43.3294 13.8803 43.3555C13.9009 43.3817 13.9205 43.4117 13.9391 43.4454C13.9574 43.4791 13.9754 43.5173 13.9931 43.5595L14.1441 43.9125C14.1578 43.9475 14.1673 43.9733 14.1719 43.9893C14.1764 44.0053 14.1787 44.0181 14.1787 44.0272L14.1777 44.0279ZM13.7087 42.8126C13.7087 42.7535 13.6953 42.7038 13.6685 42.6632C13.6417 42.6227 13.5979 42.5939 13.5371 42.5773C13.5188 42.5727 13.4976 42.5691 13.474 42.5662C13.4505 42.5635 13.4181 42.5619 13.3766 42.5619H13.2132V43.0698H13.3985C13.4502 43.0698 13.4953 43.0636 13.5342 43.0512C13.5731 43.0388 13.6051 43.0211 13.6309 42.9986C13.6567 42.976 13.676 42.9489 13.6891 42.9175C13.7022 42.8862 13.7087 42.8515 13.7087 42.8126Z" fill="#002F67"/>
<path d="M15.6712 42.828C15.6712 42.9286 15.6555 43.0175 15.6241 43.095C15.5927 43.1725 15.5469 43.2379 15.4871 43.2908C15.427 43.3438 15.3534 43.3843 15.2665 43.4121C15.1796 43.4398 15.0766 43.4536 14.9586 43.4536H14.8092V44.0252C14.8092 44.0344 14.8063 44.0429 14.8001 44.0501C14.7942 44.0576 14.7841 44.0635 14.7703 44.0681C14.7566 44.0726 14.738 44.0762 14.7151 44.0792C14.6919 44.0818 14.6625 44.0834 14.6265 44.0834C14.5906 44.0834 14.5621 44.0821 14.5386 44.0792C14.5151 44.0762 14.4964 44.0726 14.4827 44.0681C14.469 44.0635 14.4592 44.0576 14.4536 44.0501C14.4481 44.0426 14.4454 44.0344 14.4454 44.0252V42.4142C14.4454 42.3707 14.4569 42.3383 14.4794 42.3168C14.502 42.2952 14.5317 42.2841 14.5687 42.2841H14.9906C15.0331 42.2841 15.0733 42.2857 15.1119 42.289C15.1501 42.2923 15.1962 42.2991 15.2495 42.3099C15.3031 42.3204 15.3574 42.34 15.4123 42.3687C15.4672 42.3975 15.5139 42.4335 15.5528 42.4773C15.5917 42.5211 15.6211 42.5724 15.6414 42.6309C15.6617 42.6894 15.6712 42.7551 15.6712 42.828ZM15.2907 42.8541C15.2907 42.7914 15.2796 42.7397 15.2574 42.6992C15.2351 42.6587 15.208 42.6286 15.1756 42.6093C15.1433 42.59 15.1093 42.5776 15.074 42.5727C15.0384 42.5675 15.0018 42.5652 14.9638 42.5652H14.8089V43.1728H14.9723C15.0305 43.1728 15.0792 43.165 15.1184 43.1493C15.1577 43.1336 15.1897 43.1117 15.2145 43.0836C15.2394 43.0555 15.2583 43.0218 15.2714 42.9826C15.2845 42.9434 15.2907 42.9005 15.2907 42.8541Z" fill="#002F67"/>
<path d="M17.9229 44.0279C17.9229 44.038 17.9209 44.0465 17.9173 44.0534C17.9137 44.0602 17.9049 44.0661 17.8912 44.0707C17.8774 44.0753 17.8572 44.0785 17.8304 44.0805C17.8036 44.0824 17.7673 44.0831 17.7209 44.0831C17.682 44.0831 17.6513 44.0821 17.628 44.0805C17.6048 44.0789 17.5869 44.0753 17.5735 44.07C17.5601 44.0651 17.5506 44.0586 17.545 44.0507C17.5395 44.0429 17.5349 44.0334 17.5313 44.0223L17.3708 43.6222C17.3515 43.5771 17.3326 43.5369 17.3139 43.502C17.2956 43.467 17.275 43.4376 17.2525 43.414C17.2299 43.3905 17.2038 43.3728 17.1744 43.3607C17.145 43.3487 17.1106 43.3428 17.0721 43.3428H16.9586V44.0249C16.9586 44.0341 16.9557 44.0426 16.9495 44.0498C16.9436 44.0573 16.9335 44.0632 16.9197 44.0677C16.906 44.0723 16.8874 44.0759 16.8645 44.0789C16.8413 44.0815 16.8119 44.0831 16.7759 44.0831C16.74 44.0831 16.7115 44.0818 16.688 44.0789C16.6645 44.0759 16.6458 44.0723 16.6321 44.0677C16.6184 44.0632 16.6086 44.0573 16.603 44.0498C16.5975 44.0422 16.5949 44.0341 16.5949 44.0249V42.3988C16.5949 42.3583 16.6053 42.3289 16.6259 42.3109C16.6468 42.2929 16.6723 42.2838 16.7027 42.2838H17.1662C17.2133 42.2838 17.2518 42.2847 17.2826 42.2864C17.313 42.2883 17.3407 42.2906 17.3656 42.2932C17.4375 42.3034 17.5022 42.321 17.5601 42.3459C17.6176 42.3707 17.6666 42.4034 17.7068 42.4436C17.747 42.4838 17.7777 42.5312 17.799 42.5861C17.8202 42.641 17.8307 42.7041 17.8307 42.775C17.8307 42.8348 17.8232 42.8897 17.8078 42.9391C17.7925 42.9885 17.7702 43.0326 17.7408 43.0712C17.7114 43.1097 17.6748 43.1437 17.6316 43.1722C17.5882 43.2009 17.5388 43.2238 17.4836 43.2414C17.5104 43.2545 17.5355 43.2702 17.5591 43.2885C17.5826 43.3071 17.6048 43.3294 17.6254 43.3555C17.646 43.3817 17.6656 43.4117 17.6843 43.4454C17.7026 43.4791 17.7205 43.5173 17.7382 43.5595L17.8892 43.9125C17.9029 43.9475 17.9124 43.9733 17.917 43.9893C17.9216 44.0053 17.9238 44.0181 17.9238 44.0272L17.9229 44.0279ZM17.4535 42.8126C17.4535 42.7535 17.4401 42.7038 17.4133 42.6632C17.3865 42.6227 17.3427 42.5939 17.2819 42.5773C17.2636 42.5727 17.2424 42.5691 17.2188 42.5662C17.1953 42.5635 17.1629 42.5619 17.1214 42.5619H16.958V43.0698H17.1433C17.195 43.0698 17.2401 43.0636 17.279 43.0512C17.3179 43.0388 17.3499 43.0211 17.3757 42.9986C17.4015 42.976 17.4208 42.9489 17.4339 42.9175C17.447 42.8862 17.4535 42.8515 17.4535 42.8126Z" fill="#002F67"/>
<path d="M19.2515 43.9324C19.2515 43.9592 19.2502 43.9815 19.2479 43.9994C19.2457 44.0174 19.2421 44.0321 19.2375 44.0429C19.2329 44.054 19.227 44.0622 19.2202 44.0671C19.2133 44.0723 19.2058 44.0746 19.1973 44.0746H18.2978C18.2674 44.0746 18.2419 44.0655 18.221 44.0475C18.2 44.0295 18.1899 44.0001 18.1899 43.9596V42.3985C18.1899 42.358 18.2004 42.3285 18.221 42.3106C18.2419 42.2926 18.2674 42.2834 18.2978 42.2834H19.1917C19.1999 42.2834 19.2074 42.2857 19.214 42.2903C19.2205 42.2949 19.226 42.303 19.2306 42.3145C19.2352 42.3259 19.2388 42.3406 19.2411 42.3589C19.2434 42.3769 19.2447 42.3998 19.2447 42.4276C19.2447 42.4534 19.2434 42.4753 19.2411 42.4933C19.2388 42.5112 19.2352 42.526 19.2306 42.5367C19.226 42.5479 19.2205 42.556 19.214 42.5609C19.2074 42.5662 19.2002 42.5684 19.1917 42.5684H18.5524V43.0058H19.0937C19.1018 43.0058 19.1097 43.0084 19.1166 43.0133C19.1234 43.0185 19.1293 43.0264 19.1339 43.0368C19.1385 43.0473 19.142 43.0617 19.1443 43.0797C19.1466 43.0976 19.1479 43.1195 19.1479 43.1454C19.1479 43.1712 19.1466 43.1944 19.1443 43.2117C19.142 43.2294 19.1385 43.2434 19.1339 43.2539C19.1293 43.2643 19.1234 43.2722 19.1166 43.2767C19.1097 43.2813 19.1022 43.2836 19.0937 43.2836H18.5524V43.7886H19.1973C19.2055 43.7886 19.2133 43.7912 19.2202 43.7961C19.227 43.8014 19.2329 43.8092 19.2375 43.8203C19.2421 43.8314 19.2457 43.8458 19.2479 43.8638C19.2502 43.8818 19.2515 43.9043 19.2515 43.9308V43.9324Z" fill="#002F67"/>
<path d="M20.7695 43.8036C20.7695 43.8268 20.7688 43.8465 20.7675 43.8625C20.7662 43.8785 20.7639 43.8925 20.7613 43.904C20.7587 43.9154 20.7548 43.9256 20.7502 43.9337C20.7456 43.9419 20.7381 43.9514 20.728 43.9622C20.7178 43.973 20.6982 43.9864 20.6691 44.003C20.64 44.0197 20.6044 44.0357 20.5626 44.0507C20.5207 44.0661 20.4727 44.0785 20.4188 44.089C20.3648 44.0991 20.3063 44.1043 20.2436 44.1043C20.121 44.1043 20.0102 44.0854 19.9115 44.0475C19.8128 44.0096 19.7288 43.953 19.6595 43.8778C19.5902 43.8027 19.5372 43.7089 19.5003 43.5961C19.4633 43.4836 19.445 43.3526 19.445 43.2032C19.445 43.0538 19.4653 42.9159 19.5058 42.7976C19.5464 42.6796 19.6032 42.5802 19.6761 42.5001C19.749 42.4197 19.8363 42.3589 19.9383 42.3174C20.0402 42.2759 20.1527 42.255 20.2753 42.255C20.3249 42.255 20.373 42.2592 20.4191 42.2674C20.4652 42.2756 20.508 42.2867 20.5472 42.3001C20.5864 42.3135 20.6217 42.3289 20.6531 42.3465C20.6845 42.3642 20.7064 42.3792 20.7188 42.3916C20.7312 42.404 20.7397 42.4145 20.7443 42.4227C20.7489 42.4308 20.7525 42.4416 20.7554 42.4544C20.7584 42.4671 20.7603 42.4825 20.7616 42.5001C20.7629 42.5178 20.7636 42.5394 20.7636 42.5652C20.7636 42.593 20.7626 42.6165 20.761 42.6358C20.759 42.6551 20.7557 42.6708 20.7512 42.6828C20.7466 42.6949 20.741 42.7034 20.7345 42.709C20.728 42.7146 20.7208 42.7172 20.7123 42.7172C20.6985 42.7172 20.6809 42.709 20.6596 42.693C20.6384 42.677 20.6109 42.659 20.5773 42.639C20.5436 42.6191 20.5034 42.6011 20.457 42.5851C20.4102 42.5691 20.3547 42.5609 20.2903 42.5609C20.2194 42.5609 20.156 42.5753 20.1001 42.6044C20.0442 42.6335 19.9968 42.675 19.9576 42.7289C19.9183 42.7829 19.8886 42.8482 19.8683 42.9247C19.8481 43.0012 19.8379 43.0875 19.8379 43.1836C19.8379 43.2888 19.8487 43.38 19.8706 43.4568C19.8922 43.534 19.9232 43.5974 19.9634 43.6471C20.0036 43.6968 20.052 43.734 20.1089 43.7585C20.1658 43.7831 20.2295 43.7951 20.3004 43.7951C20.3651 43.7951 20.4207 43.7876 20.4678 43.7723C20.5148 43.7572 20.555 43.7402 20.589 43.7219C20.6227 43.7036 20.6505 43.687 20.6721 43.6722C20.6936 43.6575 20.7106 43.65 20.7227 43.65C20.7319 43.65 20.7394 43.652 20.745 43.6556C20.7505 43.6592 20.7551 43.6667 20.7587 43.6778C20.7623 43.6889 20.7652 43.7043 20.7668 43.7242C20.7688 43.7442 20.7695 43.7706 20.7695 43.8036Z" fill="#002F67"/>
<path d="M22.6214 43.1588C22.6214 43.3071 22.6031 43.4402 22.5662 43.5572C22.5293 43.6745 22.4743 43.7739 22.4015 43.8553C22.3286 43.937 22.2384 43.9991 22.1308 44.0422C22.0233 44.0851 21.8991 44.1066 21.7579 44.1066C21.6167 44.1066 21.497 44.0883 21.3931 44.0521C21.2892 44.0154 21.2029 43.9599 21.1336 43.8854C21.0643 43.8105 21.0126 43.7157 20.978 43.6003C20.9434 43.485 20.926 43.3483 20.926 43.1908C20.926 43.046 20.9443 42.9156 20.9813 42.7999C21.0182 42.6842 21.0731 42.5854 21.146 42.5044C21.2189 42.4233 21.3091 42.3609 21.4166 42.3174C21.5242 42.274 21.649 42.2524 21.7909 42.2524C21.9328 42.2524 22.0462 42.2704 22.1501 42.3063C22.2541 42.3423 22.3407 42.3975 22.4103 42.4724C22.4799 42.5472 22.5325 42.6413 22.5682 42.7554C22.6038 42.8695 22.6214 43.0038 22.6214 43.1588ZM22.2393 43.178C22.2393 43.0839 22.2318 42.9983 22.2171 42.9215C22.2024 42.8443 22.1772 42.7783 22.1416 42.7237C22.106 42.6688 22.0589 42.6263 21.9998 42.5962C21.9406 42.5662 21.8671 42.5511 21.7785 42.5511C21.6899 42.5511 21.6144 42.5678 21.5543 42.6015C21.4941 42.6351 21.4457 42.6802 21.4088 42.7365C21.3719 42.7927 21.3457 42.8584 21.3307 42.9335C21.3156 43.0087 21.3078 43.0885 21.3078 43.1722C21.3078 43.2699 21.3153 43.3578 21.33 43.4359C21.3447 43.514 21.3696 43.5804 21.4049 43.636C21.4398 43.6912 21.4869 43.7334 21.5461 43.7625C21.6052 43.7915 21.6794 43.8059 21.769 43.8059C21.8586 43.8059 21.9331 43.7893 21.9932 43.7562C22.053 43.7229 22.1017 43.6778 22.1387 43.6206C22.1756 43.5634 22.2018 43.4967 22.2168 43.4206C22.2322 43.3444 22.2393 43.2637 22.2393 43.178Z" fill="#002F67"/>
<path d="M24.2557 44.0279C24.2557 44.038 24.2538 44.0465 24.2502 44.0534C24.2466 44.0602 24.2377 44.0661 24.224 44.0707C24.2103 44.0753 24.19 44.0785 24.1632 44.0805C24.1364 44.0824 24.1001 44.0831 24.0537 44.0831C24.0148 44.0831 23.9841 44.0821 23.9609 44.0805C23.9377 44.0789 23.9197 44.0753 23.9063 44.07C23.8929 44.0651 23.8834 44.0586 23.8779 44.0507C23.8723 44.0429 23.8677 44.0334 23.8641 44.0223L23.7037 43.6222C23.6844 43.5771 23.6654 43.5369 23.6468 43.502C23.6285 43.467 23.6079 43.4376 23.5853 43.414C23.5628 43.3905 23.5366 43.3728 23.5072 43.3607C23.4778 43.3487 23.4435 43.3428 23.4049 43.3428H23.2915V44.0249C23.2915 44.0341 23.2886 44.0426 23.2823 44.0498C23.2765 44.0573 23.2663 44.0632 23.2526 44.0677C23.2389 44.0723 23.2202 44.0759 23.1974 44.0789C23.1742 44.0815 23.1447 44.0831 23.1088 44.0831C23.0728 44.0831 23.0444 44.0818 23.0209 44.0789C22.9973 44.0759 22.9787 44.0723 22.965 44.0677C22.9512 44.0632 22.9414 44.0573 22.9359 44.0498C22.9303 44.0422 22.9277 44.0341 22.9277 44.0249V42.3988C22.9277 42.3583 22.9382 42.3289 22.9588 42.3109C22.9797 42.2929 23.0052 42.2838 23.0356 42.2838H23.499C23.5461 42.2838 23.5847 42.2847 23.6154 42.2864C23.6458 42.2883 23.6736 42.2906 23.6984 42.2932C23.7703 42.3034 23.8351 42.321 23.8929 42.3459C23.9504 42.3707 23.9995 42.4034 24.0397 42.4436C24.0799 42.4838 24.1106 42.5312 24.1318 42.5861C24.1531 42.641 24.1635 42.7041 24.1635 42.775C24.1635 42.8348 24.156 42.8897 24.1407 42.9391C24.1253 42.9885 24.1031 43.0326 24.0737 43.0712C24.0442 43.1097 24.0076 43.1437 23.9645 43.1722C23.921 43.2009 23.8717 43.2238 23.8164 43.2414C23.8432 43.2545 23.8684 43.2702 23.8919 43.2885C23.9155 43.3071 23.9377 43.3294 23.9583 43.3555C23.9789 43.3817 23.9985 43.4117 24.0171 43.4454C24.0354 43.4791 24.0534 43.5173 24.071 43.5595L24.2221 43.9125C24.2358 43.9475 24.2453 43.9733 24.2498 43.9893C24.2544 44.0053 24.2567 44.0181 24.2567 44.0272L24.2557 44.0279ZM23.7867 42.8126C23.7867 42.7535 23.7733 42.7038 23.7465 42.6632C23.7197 42.6227 23.6759 42.5939 23.6151 42.5773C23.5968 42.5727 23.5755 42.5691 23.552 42.5662C23.5285 42.5635 23.4961 42.5619 23.4546 42.5619H23.2912V43.0698H23.4765C23.5281 43.0698 23.5732 43.0636 23.6121 43.0512C23.651 43.0388 23.6831 43.0211 23.7089 42.9986C23.7347 42.976 23.754 42.9489 23.7671 42.9175C23.7801 42.8862 23.7867 42.8515 23.7867 42.8126Z" fill="#002F67"/>
<path d="M26.0106 43.1532C26.0106 43.3173 25.989 43.4578 25.9462 43.5745C25.9034 43.6912 25.8416 43.7866 25.7616 43.8602C25.6811 43.9341 25.5837 43.9883 25.4687 44.0226C25.3536 44.057 25.217 44.0746 25.0585 44.0746H24.631C24.6006 44.0746 24.5751 44.0655 24.5541 44.0475C24.5332 44.0295 24.5231 44.0001 24.5231 43.9596V42.3985C24.5231 42.358 24.5335 42.3285 24.5541 42.3106C24.5751 42.2926 24.6006 42.2834 24.631 42.2834H25.0905C25.25 42.2834 25.3853 42.3021 25.4968 42.3393C25.6079 42.3766 25.7017 42.4321 25.7779 42.5054C25.8541 42.5786 25.9119 42.6694 25.9515 42.7773C25.991 42.8852 26.0109 43.0104 26.0109 43.1522L26.0106 43.1532ZM25.6341 43.1656C25.6341 43.0806 25.6243 43.0019 25.6043 42.929C25.5844 42.8561 25.5527 42.793 25.5089 42.7394C25.4651 42.6858 25.4089 42.6443 25.3399 42.6142C25.2713 42.5841 25.1811 42.5691 25.0693 42.5691H24.8852V43.787H25.0748C25.1745 43.787 25.2585 43.7739 25.3268 43.7481C25.3951 43.7223 25.452 43.6834 25.4978 43.6311C25.5435 43.5791 25.5775 43.514 25.6001 43.4366C25.6226 43.3591 25.6341 43.2689 25.6341 43.1656Z" fill="#002F67"/>
<path d="M29.0373 44.0249C29.0373 44.0341 29.0347 44.0426 29.0298 44.0498C29.0246 44.0573 29.0154 44.0632 29.002 44.0677C28.9886 44.0723 28.971 44.0759 28.9487 44.0789C28.9265 44.0815 28.8984 44.0831 28.8644 44.0831C28.8304 44.0831 28.8036 44.0818 28.7814 44.0789C28.7592 44.0759 28.7418 44.0723 28.7288 44.0677C28.7157 44.0632 28.7065 44.0573 28.701 44.0498C28.6954 44.0422 28.6928 44.0341 28.6928 44.0249V42.5678H28.6902L28.1711 44.0236C28.1675 44.0357 28.1613 44.0455 28.1532 44.0534C28.145 44.0612 28.1335 44.0674 28.1192 44.072C28.1048 44.0766 28.0865 44.0795 28.0646 44.0811C28.0424 44.0824 28.0156 44.0831 27.9842 44.0831C27.9528 44.0831 27.926 44.0818 27.9038 44.0795C27.8815 44.0772 27.8632 44.0736 27.8492 44.0684C27.8348 44.0632 27.8237 44.057 27.8152 44.0498C27.807 44.0422 27.8015 44.0337 27.7985 44.0236L27.2975 42.5678H27.2948V44.0249C27.2948 44.0341 27.2922 44.0426 27.2873 44.0498C27.2821 44.0573 27.2729 44.0632 27.2589 44.0677C27.2452 44.0723 27.2272 44.0759 27.2056 44.0789C27.184 44.0815 27.1559 44.0831 27.1219 44.0831C27.0879 44.0831 27.0611 44.0818 27.0389 44.0789C27.0167 44.0762 26.999 44.0723 26.9856 44.0677C26.9722 44.0632 26.9631 44.0573 26.9578 44.0498C26.9526 44.0422 26.9503 44.0341 26.9503 44.0249V42.4292C26.9503 42.3821 26.9627 42.3462 26.9876 42.3213C27.0124 42.2965 27.0458 42.2841 27.0873 42.2841H27.3252C27.3677 42.2841 27.404 42.2877 27.4347 42.2945C27.4655 42.3014 27.4916 42.3128 27.5135 42.3292C27.5357 42.3452 27.554 42.3664 27.5687 42.3929C27.5835 42.4191 27.5965 42.4518 27.6076 42.4907L27.9953 43.5575H28.0008L28.4022 42.4933C28.4143 42.4544 28.4274 42.4217 28.4418 42.3949C28.4562 42.3681 28.4728 42.3465 28.4915 42.3298C28.5104 42.3132 28.5326 42.3014 28.5585 42.2945C28.5843 42.2877 28.6144 42.2841 28.6483 42.2841H28.8932C28.918 42.2841 28.9396 42.2874 28.9576 42.2939C28.9755 42.3004 28.9902 42.3099 29.0017 42.3223C29.0131 42.3347 29.0219 42.3501 29.0278 42.3681C29.0337 42.3861 29.0367 42.4067 29.0367 42.4295L29.0373 44.0249Z" fill="#002F67"/>
<path d="M30.8945 43.9393C30.9056 43.9726 30.9125 43.9988 30.9154 44.0181C30.918 44.0373 30.9144 44.052 30.9043 44.0615C30.8942 44.0713 30.8762 44.0772 30.8504 44.0795C30.8246 44.0818 30.7889 44.0831 30.7438 44.0831C30.6987 44.0831 30.6602 44.0824 30.6337 44.0811C30.6075 44.0798 30.5873 44.0769 30.5735 44.073C30.5598 44.069 30.55 44.0632 30.5444 44.0556C30.5389 44.0481 30.5343 44.0387 30.5307 44.0266L30.4104 43.6667H29.7378L29.6243 44.0168C29.6208 44.0298 29.6158 44.0406 29.61 44.0494C29.6041 44.0583 29.5943 44.0651 29.5809 44.07C29.5675 44.0753 29.5485 44.0785 29.524 44.0805C29.4995 44.0824 29.4675 44.0831 29.4279 44.0831C29.3854 44.0831 29.3524 44.0818 29.3282 44.0789C29.3044 44.0762 29.2877 44.0694 29.2785 44.0589C29.2694 44.0485 29.2661 44.0334 29.2687 44.0138C29.2713 43.9945 29.2785 43.9687 29.2893 43.9363L29.8414 42.3475C29.8469 42.3318 29.8535 42.3191 29.8607 42.3096C29.8682 42.2998 29.8799 42.2926 29.896 42.2874C29.912 42.2824 29.9345 42.2792 29.963 42.2775C29.9914 42.2762 30.0293 42.2756 30.0764 42.2756C30.131 42.2756 30.1741 42.2762 30.2065 42.2775C30.2388 42.2789 30.264 42.2821 30.282 42.2874C30.3 42.2926 30.313 42.3001 30.3209 42.3102C30.3287 42.3204 30.3353 42.3341 30.3408 42.3517L30.8945 43.9393ZM30.0725 42.626H30.0712L29.8178 43.3872H30.3258L30.0725 42.626Z" fill="#002F67"/>
<path d="M32.6216 43.9475C32.6216 43.9687 32.618 43.9877 32.6105 44.0043C32.603 44.021 32.5932 44.0347 32.5808 44.0458C32.5683 44.057 32.5536 44.0651 32.5366 44.07C32.5196 44.0753 32.5023 44.0775 32.4847 44.0775H32.3297C32.2974 44.0775 32.2696 44.0743 32.2461 44.0677C32.2225 44.0612 32.201 44.0494 32.181 44.0324C32.1611 44.0154 32.1421 43.9922 32.1235 43.9631C32.1049 43.9341 32.0843 43.8965 32.0611 43.8504L31.6156 43.013C31.5897 42.9633 31.5633 42.9094 31.5368 42.8518C31.51 42.7943 31.4861 42.7381 31.4649 42.6838H31.4623C31.4659 42.7502 31.4688 42.8165 31.4704 42.8826C31.4724 42.9486 31.473 43.0166 31.473 43.0868V44.0239C31.473 44.0331 31.4704 44.0416 31.4655 44.0488C31.4603 44.0563 31.4518 44.0625 31.4394 44.0674C31.427 44.0726 31.41 44.0762 31.3887 44.0792C31.3675 44.0821 31.3403 44.0834 31.307 44.0834C31.2737 44.0834 31.2478 44.0821 31.2266 44.0792C31.2054 44.0766 31.1887 44.0726 31.1769 44.0674C31.1648 44.0622 31.1567 44.056 31.1521 44.0488C31.1475 44.0413 31.1452 44.0331 31.1452 44.0239V42.4145C31.1452 42.371 31.158 42.3387 31.1831 42.3171C31.2083 42.2955 31.2397 42.2844 31.2766 42.2844H31.4717C31.5067 42.2844 31.5365 42.2874 31.5603 42.2936C31.5842 42.2994 31.6058 42.3096 31.6247 42.3233C31.6437 42.337 31.6613 42.3563 31.678 42.3808C31.6947 42.4053 31.7117 42.4354 31.7293 42.4714L32.0781 43.1261C32.0983 43.1656 32.1183 43.2048 32.1382 43.2431C32.1581 43.2813 32.1771 43.3196 32.1957 43.3578C32.214 43.396 32.2323 43.4336 32.2497 43.4706C32.2673 43.5075 32.2843 43.5444 32.301 43.5814H32.3023C32.2997 43.517 32.2974 43.4493 32.2961 43.3794C32.2948 43.3094 32.2941 43.2424 32.2941 43.1787V42.3387C32.2941 42.3295 32.2971 42.321 32.3023 42.3138C32.3078 42.3063 32.317 42.3001 32.3301 42.2945C32.3428 42.289 32.3601 42.2851 32.3814 42.2828C32.4026 42.2805 32.4298 42.2792 32.4631 42.2792C32.4945 42.2792 32.5206 42.2805 32.5419 42.2828C32.5631 42.2851 32.5795 42.289 32.5909 42.2945C32.6023 42.3001 32.6105 42.3066 32.6151 42.3138C32.6197 42.3213 32.6219 42.3295 32.6219 42.3387L32.6216 43.9475Z" fill="#002F67"/>
<path d="M34.4788 43.9393C34.4899 43.9726 34.4968 43.9988 34.4994 44.0181C34.502 44.0373 34.4984 44.052 34.4883 44.0615C34.4782 44.0713 34.4602 44.0772 34.4344 44.0795C34.4086 44.0818 34.3729 44.0831 34.3278 44.0831C34.2827 44.0831 34.2441 44.0824 34.2177 44.0811C34.1912 44.0798 34.1713 44.0769 34.1575 44.073C34.1438 44.0687 34.134 44.0632 34.1284 44.0556C34.1229 44.0481 34.1183 44.0387 34.1147 44.0266L33.9944 43.6667H33.3218L33.2083 44.0168C33.2047 44.0298 33.1998 44.0406 33.194 44.0494C33.1881 44.0583 33.1783 44.0651 33.1649 44.07C33.1515 44.0753 33.1325 44.0785 33.108 44.0805C33.0835 44.0824 33.0514 44.0831 33.0119 44.0831C32.9694 44.0831 32.9364 44.0818 32.9122 44.0789C32.8883 44.0762 32.8717 44.0694 32.8625 44.0589C32.8534 44.0485 32.8501 44.0334 32.8527 44.0138C32.8553 43.9945 32.8625 43.9687 32.8736 43.9363L33.4257 42.3475C33.4313 42.3318 33.4378 42.3191 33.445 42.3096C33.4525 42.2998 33.4643 42.2926 33.4803 42.2874C33.4963 42.2824 33.5188 42.2792 33.5473 42.2775C33.5757 42.2762 33.6136 42.2756 33.6607 42.2756C33.7153 42.2756 33.7584 42.2762 33.7908 42.2775C33.8232 42.2789 33.8483 42.2821 33.8663 42.2874C33.8843 42.2926 33.8973 42.3001 33.9052 42.3102C33.913 42.3204 33.9199 42.3341 33.9251 42.3517L34.4788 43.9393ZM33.6568 42.626H33.6555L33.4022 43.3872H33.9101L33.6568 42.626Z" fill="#002F67"/>
<path d="M36.1314 42.5622C36.1314 42.589 36.1301 42.6119 36.1278 42.6315C36.1255 42.6508 36.1223 42.6665 36.118 42.6779C36.1138 42.6894 36.1089 42.6976 36.1026 42.7021C36.0964 42.7067 36.0896 42.709 36.0811 42.709C36.069 42.709 36.0497 42.7008 36.0229 42.6842C35.9961 42.6675 35.9605 42.6495 35.9163 42.6302C35.8719 42.6109 35.8193 42.593 35.7578 42.5763C35.6964 42.5596 35.6251 42.5515 35.544 42.5515C35.4574 42.5515 35.379 42.5665 35.3087 42.5966C35.2384 42.6266 35.1786 42.6691 35.1289 42.724C35.0793 42.7789 35.0407 42.845 35.0142 42.9218C34.9874 42.9989 34.974 43.0839 34.974 43.1771C34.974 43.2794 34.9877 43.3696 35.0149 43.4477C35.042 43.5258 35.0802 43.5909 35.1289 43.6435C35.178 43.6961 35.2365 43.7357 35.3054 43.7625C35.3741 43.7893 35.4499 43.8027 35.5329 43.8027C35.5735 43.8027 35.6137 43.7981 35.6532 43.7889C35.6928 43.7798 35.7297 43.7657 35.764 43.7474V43.3323H35.4251C35.4084 43.3323 35.3957 43.3219 35.3862 43.3013C35.377 43.2803 35.3724 43.2454 35.3724 43.1954C35.3724 43.1695 35.3738 43.148 35.376 43.1303C35.3783 43.1127 35.3819 43.0986 35.3865 43.0882C35.3911 43.0777 35.3966 43.0698 35.4032 43.0646C35.4097 43.0594 35.4169 43.0571 35.4254 43.0571H36.0301C36.0448 43.0571 36.0579 43.0597 36.0696 43.0646C36.0811 43.0698 36.0912 43.0774 36.1 43.0875C36.1089 43.0976 36.1154 43.1097 36.12 43.1241C36.1245 43.1385 36.1268 43.1548 36.1268 43.1731V43.886C36.1268 43.9138 36.1219 43.938 36.1125 43.9586C36.1026 43.9795 36.083 43.9958 36.053 44.0076C36.0229 44.0197 35.986 44.0321 35.9415 44.0449C35.8974 44.0579 35.8513 44.0687 35.8039 44.0782C35.7565 44.0874 35.7085 44.0942 35.6601 44.0988C35.6117 44.1034 35.563 44.1057 35.514 44.1057C35.3708 44.1057 35.243 44.0851 35.1299 44.0442C35.0168 44.0033 34.9211 43.9435 34.8426 43.8657C34.7642 43.788 34.7044 43.6928 34.6628 43.5807C34.6213 43.4686 34.6004 43.3415 34.6004 43.1993C34.6004 43.0571 34.6226 42.9208 34.6668 42.8041C34.7112 42.6874 34.7736 42.5884 34.855 42.5067C34.9361 42.425 35.0341 42.3625 35.1492 42.3191C35.2639 42.2756 35.3921 42.254 35.5333 42.254C35.6107 42.254 35.6813 42.2592 35.7451 42.27C35.8088 42.2808 35.8644 42.2936 35.9118 42.3089C35.9592 42.3243 35.9987 42.3406 36.0301 42.358C36.0615 42.3756 36.0834 42.3906 36.0958 42.4037C36.1082 42.4168 36.1174 42.4348 36.1229 42.4583C36.1285 42.4818 36.1314 42.5161 36.1314 42.5622Z" fill="#002F67"/>
<path d="M37.5624 43.9324C37.5624 43.9592 37.5611 43.9815 37.5588 43.9994C37.5565 44.0174 37.5529 44.0321 37.5483 44.0429C37.5438 44.054 37.5379 44.0622 37.531 44.0671C37.5242 44.072 37.5166 44.0746 37.5081 44.0746H36.6086C36.5782 44.0746 36.5527 44.0655 36.5318 44.0475C36.5112 44.0295 36.5008 44.0001 36.5008 43.9596V42.3985C36.5008 42.358 36.5112 42.3285 36.5318 42.3106C36.5524 42.2926 36.5782 42.2834 36.6086 42.2834H37.5026C37.5107 42.2834 37.5183 42.2857 37.5248 42.2903C37.5313 42.2949 37.5369 42.303 37.5415 42.3145C37.5461 42.3259 37.5496 42.3406 37.5519 42.3589C37.5542 42.3769 37.5555 42.3998 37.5555 42.4276C37.5555 42.4534 37.5542 42.4753 37.5519 42.4933C37.5496 42.5112 37.5461 42.526 37.5415 42.5367C37.5369 42.5479 37.5313 42.556 37.5248 42.5609C37.5183 42.5662 37.5111 42.5684 37.5026 42.5684H36.8632V43.0058H37.4045C37.4127 43.0058 37.4205 43.0084 37.4274 43.0133C37.4343 43.0182 37.4401 43.0264 37.4447 43.0368C37.4493 43.0473 37.4529 43.0617 37.4552 43.0797C37.4575 43.0976 37.4588 43.1195 37.4588 43.1454C37.4588 43.1712 37.4575 43.1944 37.4552 43.2117C37.4529 43.2294 37.4493 43.2434 37.4447 43.2539C37.4401 43.2643 37.4343 43.2722 37.4274 43.2767C37.4205 43.2813 37.413 43.2836 37.4045 43.2836H36.8632V43.7886H37.5081C37.5163 43.7886 37.5242 43.7912 37.531 43.7961C37.5379 43.801 37.5438 43.8092 37.5483 43.8203C37.5529 43.8314 37.5565 43.8458 37.5588 43.8638C37.5611 43.8818 37.5624 43.9043 37.5624 43.9308V43.9324Z" fill="#002F67"/>
<path d="M39.9703 44.0249C39.9703 44.0341 39.9677 44.0426 39.9628 44.0498C39.9576 44.0573 39.9484 44.0632 39.935 44.0677C39.9216 44.0723 39.904 44.0759 39.8818 44.0789C39.8595 44.0815 39.8314 44.0831 39.7974 44.0831C39.7634 44.0831 39.7366 44.0818 39.7144 44.0789C39.6922 44.0759 39.6749 44.0723 39.6618 44.0677C39.6487 44.0632 39.6396 44.0573 39.634 44.0498C39.6284 44.0422 39.6258 44.0341 39.6258 44.0249V42.5678H39.6232L39.1042 44.0236C39.1006 44.0357 39.0944 44.0455 39.0862 44.0534C39.078 44.0612 39.0666 44.0674 39.0522 44.072C39.0378 44.0766 39.0195 44.0795 38.9976 44.0811C38.9757 44.0828 38.9486 44.0831 38.9172 44.0831C38.8858 44.0831 38.859 44.0818 38.8368 44.0795C38.8146 44.0772 38.7963 44.0736 38.7822 44.0684C38.7678 44.0632 38.7567 44.057 38.7482 44.0498C38.7397 44.0426 38.7345 44.0337 38.7316 44.0236L38.2305 42.5678H38.2279V44.0249C38.2279 44.0341 38.2253 44.0426 38.2204 44.0498C38.2151 44.0573 38.206 44.0632 38.1919 44.0677C38.1782 44.0723 38.1602 44.0759 38.1386 44.0789C38.1171 44.0815 38.089 44.0831 38.055 44.0831C38.021 44.0831 37.9942 44.0818 37.9719 44.0789C37.9497 44.0762 37.9321 44.0723 37.9187 44.0677C37.9053 44.0632 37.8961 44.0573 37.8909 44.0498C37.8857 44.0422 37.8834 44.0341 37.8834 44.0249V42.4292C37.8834 42.3821 37.8958 42.3462 37.9206 42.3213C37.9455 42.2965 37.9788 42.2841 38.0203 42.2841H38.2583C38.3008 42.2841 38.337 42.2877 38.3674 42.2945C38.3978 42.3014 38.4243 42.3128 38.4462 42.3292C38.4684 42.3452 38.4867 42.3664 38.5015 42.3929C38.5162 42.4191 38.5292 42.4518 38.5403 42.4907L38.928 43.5575H38.9336L39.3349 42.4933C39.347 42.4544 39.3601 42.4217 39.3745 42.3949C39.3889 42.3681 39.4055 42.3465 39.4242 42.3298C39.4431 42.3132 39.4654 42.3014 39.4912 42.2945C39.517 42.2877 39.5471 42.2841 39.5811 42.2841H39.8259C39.8507 42.2841 39.8723 42.2874 39.8903 42.2939C39.9082 42.3004 39.923 42.3099 39.9344 42.3223C39.9458 42.3347 39.9547 42.3501 39.9605 42.3681C39.9664 42.3861 39.9697 42.4067 39.9697 42.4295L39.9703 44.0249Z" fill="#002F67"/>
<path d="M41.4222 43.9324C41.4222 43.9592 41.4209 43.9815 41.4186 43.9994C41.4164 44.0174 41.4128 44.0321 41.4082 44.0429C41.4036 44.054 41.3977 44.0622 41.3909 44.0671C41.384 44.072 41.3765 44.0746 41.368 44.0746H40.4685C40.4381 44.0746 40.4126 44.0655 40.3917 44.0475C40.3711 44.0295 40.3606 44.0001 40.3606 43.9596V42.3985C40.3606 42.358 40.3711 42.3285 40.3917 42.3106C40.4123 42.2926 40.4381 42.2834 40.4685 42.2834H41.3624C41.3706 42.2834 41.3781 42.2857 41.3847 42.2903C41.3912 42.2949 41.3967 42.303 41.4013 42.3145C41.4059 42.3259 41.4095 42.3406 41.4118 42.3589C41.4141 42.3769 41.4154 42.3998 41.4154 42.4276C41.4154 42.4534 41.4141 42.4753 41.4118 42.4933C41.4095 42.5112 41.4059 42.526 41.4013 42.5367C41.3967 42.5479 41.3912 42.556 41.3847 42.5609C41.3781 42.5662 41.3709 42.5684 41.3624 42.5684H40.7231V43.0058H41.2644C41.2725 43.0058 41.2804 43.0084 41.2873 43.0133C41.2941 43.0182 41.3 43.0264 41.3046 43.0368C41.3092 43.0473 41.3127 43.0617 41.315 43.0797C41.3173 43.0976 41.3186 43.1195 41.3186 43.1454C41.3186 43.1712 41.3173 43.1944 41.315 43.2117C41.3127 43.2294 41.3092 43.2434 41.3046 43.2539C41.3 43.2643 41.2941 43.2722 41.2873 43.2767C41.2804 43.2813 41.2729 43.2836 41.2644 43.2836H40.7231V43.7886H41.368C41.3762 43.7886 41.384 43.7912 41.3909 43.7961C41.3977 43.801 41.4036 43.8092 41.4082 43.8203C41.4128 43.8314 41.4164 43.8458 41.4186 43.8638C41.4209 43.8818 41.4222 43.9043 41.4222 43.9308V43.9324Z" fill="#002F67"/>
<path d="M43.22 43.9475C43.22 43.9687 43.2164 43.9877 43.2088 44.0043C43.2013 44.021 43.1915 44.0347 43.1791 44.0458C43.1667 44.057 43.152 44.0651 43.135 44.07C43.118 44.0753 43.1007 44.0775 43.083 44.0775H42.9281C42.8957 44.0775 42.8679 44.0743 42.8444 44.0677C42.8209 44.0612 42.7993 44.0494 42.7794 44.0324C42.7594 44.0154 42.7405 43.9922 42.7218 43.9631C42.7032 43.9341 42.6826 43.8965 42.6594 43.8504L42.2139 43.013C42.1881 42.9633 42.1616 42.9094 42.1351 42.8518C42.1083 42.7943 42.0845 42.7381 42.0632 42.6838H42.0606C42.0642 42.7502 42.0671 42.8165 42.0688 42.8826C42.0707 42.9486 42.0714 43.0166 42.0714 43.0868V44.0239C42.0714 44.0331 42.0688 44.0416 42.0639 44.0488C42.0586 44.0563 42.0501 44.0625 42.0377 44.0674C42.0253 44.0723 42.0083 44.0762 41.987 44.0792C41.9658 44.0821 41.9387 44.0834 41.9053 44.0834C41.872 44.0834 41.8462 44.0821 41.8249 44.0792C41.8037 44.0762 41.787 44.0726 41.7752 44.0674C41.7632 44.0622 41.755 44.056 41.7504 44.0488C41.7458 44.0413 41.7435 44.0331 41.7435 44.0239V42.4145C41.7435 42.371 41.7563 42.3387 41.7818 42.3171C41.8073 42.2955 41.8383 42.2844 41.8753 42.2844H42.0704C42.1054 42.2844 42.1351 42.2874 42.159 42.2936C42.1828 42.2994 42.2044 42.3096 42.2234 42.3233C42.2423 42.337 42.26 42.3563 42.2766 42.3808C42.2933 42.4053 42.3103 42.4354 42.328 42.4714L42.6767 43.1261C42.697 43.1656 42.7169 43.2048 42.7369 43.2431C42.7568 43.2813 42.7758 43.3196 42.7944 43.3578C42.8127 43.396 42.8307 43.4336 42.8483 43.4706C42.866 43.5075 42.883 43.5444 42.8996 43.5814H42.9009C42.8983 43.517 42.896 43.4493 42.8947 43.3794C42.8934 43.3094 42.8928 43.2424 42.8928 43.1787V42.3387C42.8928 42.3295 42.8954 42.321 42.9009 42.3138C42.9065 42.3063 42.9157 42.3001 42.9287 42.2945C42.9418 42.289 42.9588 42.2851 42.98 42.2828C43.0013 42.2805 43.0284 42.2792 43.0618 42.2792C43.0931 42.2792 43.1193 42.2805 43.1405 42.2828C43.1618 42.2851 43.1781 42.289 43.1896 42.2945C43.201 42.3001 43.2092 42.3066 43.2137 42.3138C43.2183 42.3213 43.2206 42.3295 43.2206 42.3387L43.22 43.9475Z" fill="#002F67"/>
<path d="M44.8019 42.4335C44.8019 42.4603 44.8006 42.4831 44.7983 42.5021C44.7961 42.5211 44.7925 42.5361 44.7879 42.5479C44.7833 42.5593 44.7774 42.5678 44.7706 42.5734C44.7637 42.5789 44.7562 42.5815 44.7477 42.5815H44.2992V44.0249C44.2992 44.0341 44.2963 44.0426 44.2901 44.0498C44.2839 44.057 44.2741 44.0632 44.2603 44.0677C44.2466 44.0723 44.2277 44.0759 44.2044 44.0789C44.1812 44.0818 44.1515 44.0831 44.1165 44.0831C44.0816 44.0831 44.0521 44.0818 44.0286 44.0789C44.0051 44.0759 43.9864 44.0723 43.9727 44.0677C43.959 44.0632 43.9488 44.0573 43.943 44.0498C43.9371 44.0422 43.9338 44.0341 43.9338 44.0249V42.5815H43.4854C43.4762 42.5815 43.4684 42.5789 43.4618 42.5734C43.4553 42.5678 43.4497 42.5593 43.4452 42.5479C43.4406 42.5364 43.437 42.5211 43.4347 42.5021C43.4324 42.4831 43.4311 42.4603 43.4311 42.4335C43.4311 42.4067 43.4324 42.3821 43.4347 42.3629C43.437 42.3436 43.4406 42.3279 43.4452 42.3164C43.4497 42.305 43.4553 42.2965 43.4618 42.2916C43.4684 42.2867 43.4762 42.2841 43.4854 42.2841H44.7477C44.7559 42.2841 44.7637 42.2867 44.7706 42.2916C44.7774 42.2968 44.7833 42.305 44.7879 42.3164C44.7925 42.3279 44.7961 42.3436 44.7983 42.3629C44.8006 42.3821 44.8019 42.4057 44.8019 42.4335Z" fill="#002F67"/>
<path d="M46.7157 43.5379C46.7157 43.632 46.698 43.7147 46.6631 43.7857C46.6281 43.8566 46.5804 43.9161 46.5206 43.9635C46.4607 44.0109 46.3905 44.0468 46.3101 44.0707C46.2297 44.0945 46.144 44.1066 46.0525 44.1066C45.9907 44.1066 45.9332 44.1014 45.8802 44.0913C45.8273 44.0811 45.7802 44.069 45.7397 44.0547C45.6992 44.0403 45.6652 44.0252 45.638 44.0096C45.6109 43.9939 45.5913 43.9801 45.5792 43.9681C45.5671 43.956 45.5586 43.9386 45.5537 43.9161C45.5485 43.8935 45.5462 43.8608 45.5462 43.8183C45.5462 43.7896 45.5472 43.7657 45.5488 43.7464C45.5504 43.7272 45.5537 43.7115 45.558 43.6994C45.5622 43.6873 45.5678 43.6788 45.5746 43.6739C45.5815 43.669 45.5897 43.6664 45.5988 43.6664C45.6119 43.6664 45.6299 43.6739 45.6534 43.6892C45.6769 43.7046 45.707 43.7213 45.7439 43.7399C45.7809 43.7582 45.825 43.7752 45.876 43.7902C45.927 43.8053 45.9865 43.8131 46.0538 43.8131C46.0979 43.8131 46.1378 43.8079 46.1728 43.7971C46.2078 43.7866 46.2375 43.7716 46.262 43.752C46.2865 43.7327 46.3052 43.7085 46.3179 43.6801C46.3307 43.6517 46.3372 43.6196 46.3372 43.5846C46.3372 43.5441 46.3261 43.5091 46.3039 43.4801C46.2816 43.451 46.2529 43.4251 46.2172 43.4026C46.1816 43.38 46.1414 43.3588 46.0963 43.3389C46.0512 43.3189 46.0044 43.298 45.9564 43.2758C45.9084 43.2535 45.8619 43.2284 45.8165 43.2003C45.7714 43.1722 45.7309 43.1385 45.6952 43.0993C45.6596 43.06 45.6308 43.0136 45.6086 42.96C45.5864 42.9064 45.5753 42.8424 45.5753 42.7678C45.5753 42.6822 45.5913 42.6067 45.623 42.5416C45.6547 42.4766 45.6979 42.4227 45.7518 42.3799C45.8057 42.337 45.8695 42.305 45.9427 42.2838C46.0159 42.2625 46.0937 42.2521 46.1757 42.2521C46.2182 42.2521 46.2607 42.2553 46.3032 42.2619C46.3457 42.2684 46.3852 42.2772 46.4222 42.288C46.4591 42.2988 46.4918 42.3115 46.5206 42.3253C46.5493 42.339 46.568 42.3508 46.5774 42.3599C46.5866 42.3691 46.5928 42.3769 46.5961 42.3834C46.5993 42.39 46.6019 42.3985 46.6042 42.4089C46.6065 42.4194 46.6082 42.4328 46.6091 42.4491C46.6101 42.4652 46.6104 42.4854 46.6104 42.5093C46.6104 42.5361 46.6098 42.5586 46.6085 42.5769C46.6072 42.5956 46.6049 42.6106 46.6016 42.6227C46.5983 42.6348 46.5938 42.6436 46.5879 42.6489C46.582 42.6541 46.5738 42.657 46.5637 42.657C46.5536 42.657 46.5376 42.6505 46.5153 42.6377C46.4931 42.625 46.466 42.6106 46.4336 42.5956C46.4013 42.5802 46.364 42.5665 46.3215 42.5541C46.279 42.5416 46.2326 42.5354 46.1816 42.5354C46.1421 42.5354 46.1074 42.5403 46.0777 42.5498C46.0482 42.5596 46.0234 42.573 46.0035 42.59C45.9835 42.607 45.9688 42.6276 45.9593 42.6515C45.9495 42.6753 45.945 42.7008 45.945 42.7276C45.945 42.7672 45.9557 42.8018 45.9776 42.8309C45.9992 42.86 46.0283 42.8858 46.0649 42.9084C46.1015 42.9309 46.1427 42.9522 46.1888 42.9721C46.2349 42.9921 46.282 43.013 46.33 43.0352C46.378 43.0574 46.4251 43.0826 46.4712 43.1107C46.5173 43.1388 46.5585 43.1725 46.5944 43.2117C46.6304 43.2509 46.6595 43.297 46.6817 43.35C46.7039 43.4029 46.7157 43.466 46.7157 43.5379Z" fill="#002F67"/>
<path d="M47.6639 43.3954V44.0249C47.6639 44.0341 47.661 44.0426 47.6547 44.0498C47.6485 44.057 47.6387 44.0632 47.625 44.0677C47.6113 44.0723 47.5923 44.0759 47.5691 44.0789C47.5459 44.0818 47.5162 44.0831 47.4812 44.0831C47.4462 44.0831 47.4158 44.0818 47.3926 44.0789C47.3694 44.0762 47.3508 44.0723 47.3367 44.0677C47.3223 44.0632 47.3125 44.0573 47.307 44.0498C47.3014 44.0422 47.2988 44.0341 47.2988 44.0249V43.3954L46.8088 42.4197C46.7912 42.3857 46.7801 42.3589 46.7749 42.3403C46.7696 42.3217 46.7726 42.307 46.783 42.2975C46.7935 42.2877 46.8131 42.2818 46.8419 42.2795C46.8706 42.2772 46.9102 42.2759 46.9608 42.2759C47.0033 42.2759 47.037 42.2769 47.0625 42.2785C47.088 42.2805 47.1079 42.2838 47.1226 42.289C47.1373 42.2942 47.1481 42.3008 47.155 42.3089C47.1618 42.3171 47.1687 42.3279 47.1749 42.3406L47.3743 42.7806C47.3936 42.8231 47.4129 42.8678 47.4318 42.9149C47.4508 42.962 47.4697 43.0113 47.4894 43.063H47.492C47.5096 43.0133 47.5276 42.9646 47.5459 42.9175C47.5642 42.8705 47.5822 42.8257 47.5998 42.7832L47.7963 42.3459C47.8009 42.3311 47.8067 42.3194 47.8136 42.3106C47.8205 42.3017 47.8309 42.2945 47.8447 42.289C47.8584 42.2834 47.8773 42.2798 47.9015 42.2779C47.9254 42.2759 47.9574 42.2753 47.997 42.2753C48.0496 42.2753 48.0904 42.2766 48.1195 42.2789C48.1486 42.2811 48.1686 42.287 48.179 42.2968C48.1895 42.3066 48.1921 42.321 48.1865 42.3403C48.181 42.3596 48.1699 42.3861 48.1532 42.4191L47.6639 43.3954Z" fill="#002F67"/>
<path d="M49.4325 43.5379C49.4325 43.632 49.4149 43.7147 49.3799 43.7857C49.3449 43.8566 49.2972 43.9161 49.2374 43.9635C49.1776 44.0109 49.1073 44.0468 49.0269 44.0707C48.9465 44.0945 48.8608 44.1066 48.7693 44.1066C48.7076 44.1066 48.65 44.1014 48.5971 44.0913C48.5441 44.0811 48.4971 44.069 48.4565 44.0547C48.416 44.0403 48.382 44.0252 48.3549 44.0096C48.3277 43.9939 48.3081 43.9801 48.296 43.9681C48.284 43.956 48.2755 43.9386 48.2705 43.9161C48.2653 43.8935 48.263 43.8608 48.263 43.8183C48.263 43.7896 48.264 43.7657 48.2656 43.7464C48.2673 43.7272 48.2705 43.7115 48.2748 43.6994C48.279 43.6873 48.2846 43.6788 48.2915 43.6739C48.2983 43.669 48.3065 43.6664 48.3157 43.6664C48.3287 43.6664 48.3467 43.6739 48.3702 43.6892C48.3938 43.7046 48.4238 43.7213 48.4608 43.7399C48.4977 43.7582 48.5418 43.7752 48.5928 43.7902C48.6438 43.8053 48.7033 43.8131 48.7706 43.8131C48.8148 43.8131 48.8546 43.8079 48.8896 43.7971C48.9246 43.7866 48.9543 43.7716 48.9788 43.752C49.0034 43.7327 49.022 43.7085 49.0347 43.6801C49.0475 43.6517 49.054 43.6196 49.054 43.5846C49.054 43.5441 49.0429 43.5091 49.0207 43.4801C48.9985 43.451 48.9697 43.4251 48.9341 43.4026C48.8984 43.38 48.8582 43.3588 48.8131 43.3389C48.768 43.3189 48.7213 43.298 48.6732 43.2758C48.6252 43.2535 48.5788 43.2284 48.5333 43.2003C48.4882 43.1722 48.4477 43.1385 48.4121 43.0993C48.3764 43.06 48.3477 43.0136 48.3255 42.96C48.3032 42.9064 48.2921 42.8424 48.2921 42.7678C48.2921 42.6822 48.3081 42.6067 48.3398 42.5416C48.3715 42.4766 48.4147 42.4227 48.4686 42.3799C48.5226 42.337 48.5863 42.305 48.6595 42.2838C48.7327 42.2625 48.8105 42.2521 48.8926 42.2521C48.935 42.2521 48.9775 42.2553 49.02 42.2619C49.0625 42.2684 49.1021 42.2772 49.139 42.288C49.1759 42.2988 49.2086 42.3115 49.2374 42.3253C49.2662 42.339 49.2848 42.3508 49.2943 42.3599C49.3034 42.3691 49.3096 42.3769 49.3129 42.3834C49.3162 42.39 49.3188 42.3985 49.3211 42.4089C49.3234 42.4194 49.325 42.4328 49.326 42.4491C49.327 42.4652 49.3273 42.4854 49.3273 42.5093C49.3273 42.5361 49.3266 42.5586 49.3253 42.5769C49.324 42.5956 49.3217 42.6106 49.3185 42.6227C49.3152 42.6348 49.3106 42.6436 49.3047 42.6489C49.2988 42.6541 49.2907 42.657 49.2805 42.657C49.2704 42.657 49.2544 42.6505 49.2322 42.6377C49.2099 42.625 49.1828 42.6106 49.1504 42.5956C49.1181 42.5802 49.0808 42.5665 49.0383 42.5541C48.9958 42.5416 48.9494 42.5354 48.8984 42.5354C48.8589 42.5354 48.8242 42.5403 48.7945 42.5498C48.7651 42.5596 48.7402 42.573 48.7203 42.59C48.7004 42.607 48.6857 42.6276 48.6762 42.6515C48.6664 42.6753 48.6618 42.7008 48.6618 42.7276C48.6618 42.7672 48.6726 42.8018 48.6945 42.8309C48.7161 42.86 48.7451 42.8858 48.7817 42.9084C48.8184 42.9309 48.8595 42.9522 48.9056 42.9721C48.9517 42.9921 48.9988 43.013 49.0468 43.0352C49.0949 43.0574 49.1419 43.0826 49.188 43.1107C49.2341 43.1388 49.2753 43.1725 49.3113 43.2117C49.3472 43.2509 49.3763 43.297 49.3985 43.35C49.4208 43.4029 49.4325 43.466 49.4325 43.5379Z" fill="#002F67"/>
<path d="M50.8746 42.4335C50.8746 42.4603 50.8733 42.4831 50.871 42.5021C50.8687 42.5211 50.8651 42.5361 50.8606 42.5479C50.856 42.5593 50.8501 42.5678 50.8432 42.5734C50.8364 42.5789 50.8289 42.5815 50.8204 42.5815H50.3719V44.0249C50.3719 44.0341 50.369 44.0426 50.3628 44.0498C50.3565 44.057 50.3467 44.0632 50.333 44.0677C50.3193 44.0723 50.3003 44.0759 50.2771 44.0789C50.2539 44.0818 50.2242 44.0831 50.1892 44.0831C50.1542 44.0831 50.1248 44.0818 50.1013 44.0789C50.0777 44.0759 50.0591 44.0723 50.0454 44.0677C50.0317 44.0632 50.0215 44.0573 50.0156 44.0498C50.0098 44.0422 50.0065 44.0341 50.0065 44.0249V42.5815H49.558C49.5489 42.5815 49.541 42.5789 49.5345 42.5734C49.528 42.5678 49.5224 42.5593 49.5178 42.5479C49.5133 42.5364 49.5097 42.5211 49.5074 42.5021C49.5051 42.4831 49.5038 42.4603 49.5038 42.4335C49.5038 42.4067 49.5051 42.3821 49.5074 42.3629C49.5097 42.3436 49.5133 42.3279 49.5178 42.3164C49.5224 42.305 49.528 42.2965 49.5345 42.2916C49.541 42.2867 49.5489 42.2841 49.558 42.2841H50.8204C50.8285 42.2841 50.8364 42.2867 50.8432 42.2916C50.8501 42.2968 50.856 42.305 50.8606 42.3164C50.8651 42.3279 50.8687 42.3436 50.871 42.3629C50.8733 42.3821 50.8746 42.4057 50.8746 42.4335Z" fill="#002F67"/>
<path d="M52.1477 43.9324C52.1477 43.9592 52.1464 43.9815 52.1441 43.9994C52.1418 44.0174 52.1382 44.0321 52.1337 44.0429C52.1291 44.054 52.1232 44.0622 52.1163 44.0671C52.1095 44.072 52.102 44.0746 52.0935 44.0746H51.194C51.1636 44.0746 51.1381 44.0655 51.1171 44.0475C51.0966 44.0295 51.0861 44.0001 51.0861 43.9596V42.3985C51.0861 42.358 51.0966 42.3285 51.1171 42.3106C51.1377 42.2926 51.1636 42.2834 51.194 42.2834H52.0879C52.0961 42.2834 52.1036 42.2857 52.1101 42.2903C52.1167 42.2949 52.1222 42.303 52.1268 42.3145C52.1314 42.3259 52.135 42.3406 52.1373 42.3589C52.1396 42.3769 52.1409 42.3998 52.1409 42.4276C52.1409 42.4534 52.1396 42.4753 52.1373 42.4933C52.135 42.5112 52.1314 42.526 52.1268 42.5367C52.1222 42.5479 52.1167 42.556 52.1101 42.5609C52.1036 42.5662 52.0964 42.5684 52.0879 42.5684H51.4486V43.0058H51.9899C51.998 43.0058 52.0059 43.0084 52.0127 43.0133C52.0196 43.0182 52.0255 43.0264 52.0301 43.0368C52.0346 43.0473 52.0382 43.0617 52.0405 43.0797C52.0428 43.0976 52.0441 43.1195 52.0441 43.1454C52.0441 43.1712 52.0428 43.1944 52.0405 43.2117C52.0382 43.2294 52.0346 43.2434 52.0301 43.2539C52.0255 43.2643 52.0196 43.2722 52.0127 43.2767C52.0059 43.2813 51.9984 43.2836 51.9899 43.2836H51.4486V43.7886H52.0935C52.1016 43.7886 52.1095 43.7912 52.1163 43.7961C52.1232 43.801 52.1291 43.8092 52.1337 43.8203C52.1382 43.8314 52.1418 43.8458 52.1441 43.8638C52.1464 43.8818 52.1477 43.9043 52.1477 43.9308V43.9324Z" fill="#002F67"/>
<path d="M54.556 44.0249C54.556 44.0341 54.5534 44.0426 54.5485 44.0498C54.5433 44.0573 54.5341 44.0632 54.5207 44.0677C54.5073 44.0723 54.4897 44.0759 54.4674 44.0789C54.4452 44.0815 54.4171 44.0831 54.3831 44.0831C54.3491 44.0831 54.3223 44.0818 54.3001 44.0789C54.2779 44.0759 54.2605 44.0723 54.2475 44.0677C54.2344 44.0632 54.2252 44.0573 54.2197 44.0498C54.2141 44.0422 54.2115 44.0341 54.2115 44.0249V42.5678H54.2089L53.6898 44.0236C53.6862 44.0357 53.68 44.0455 53.6719 44.0534C53.6637 44.0612 53.6522 44.0674 53.6379 44.072C53.6235 44.0766 53.6052 44.0795 53.5833 44.0811C53.5614 44.0828 53.5343 44.0831 53.5029 44.0831C53.4715 44.0831 53.4447 44.0818 53.4225 44.0795C53.4002 44.0772 53.3819 44.0736 53.3679 44.0684C53.3535 44.0632 53.3424 44.057 53.3339 44.0498C53.3254 44.0426 53.3202 44.0337 53.3172 44.0236L52.8161 42.5678H52.8135V44.0249C52.8135 44.0341 52.8109 44.0426 52.806 44.0498C52.8008 44.0573 52.7916 44.0632 52.7776 44.0677C52.7638 44.0723 52.7459 44.0759 52.7243 44.0789C52.7027 44.0815 52.6746 44.0831 52.6406 44.0831C52.6066 44.0831 52.5798 44.0818 52.5576 44.0789C52.5354 44.0762 52.5177 44.0723 52.5043 44.0677C52.4909 44.0632 52.4818 44.0573 52.4765 44.0498C52.4713 44.0422 52.469 44.0341 52.469 44.0249V42.4292C52.469 42.3821 52.4814 42.3462 52.5063 42.3213C52.5311 42.2965 52.5645 42.2841 52.606 42.2841H52.8439C52.8864 42.2841 52.9227 42.2877 52.9531 42.2945C52.9835 42.3014 53.01 42.3128 53.0319 42.3292C53.0541 42.3452 53.0724 42.3664 53.0871 42.3929C53.1018 42.4191 53.1149 42.4518 53.126 42.4907L53.5137 43.5575H53.5192L53.9206 42.4933C53.9327 42.4544 53.9458 42.4217 53.9601 42.3949C53.9745 42.3681 53.9912 42.3465 54.0098 42.3298C54.0288 42.3132 54.051 42.3014 54.0768 42.2945C54.1027 42.2877 54.1327 42.2841 54.1667 42.2841H54.4115C54.4364 42.2841 54.4579 42.2874 54.4759 42.2939C54.4939 42.3004 54.5086 42.3099 54.5201 42.3223C54.5315 42.3347 54.5403 42.3501 54.5462 42.3681C54.5521 42.3861 54.5554 42.4067 54.5554 42.4295L54.556 44.0249Z" fill="#002F67"/>
<path d="M0 38.6011L1.44079 34.8095C1.44079 34.8095 2.67205 36.1715 4.08833 36.1715C5.5046 36.1715 6.26748 34.8968 6.26748 33.9816V20.2572H10.8072V35.002C10.8072 35.002 10.9987 37.1439 9.0657 39.077C7.13267 41.01 2.43214 41.0332 0 38.6011Z" fill="#002F67"/>
<path d="M21.7677 31.9152C21.7677 31.9152 23.1258 31.5883 24.1354 30.5787C25.1451 29.569 25.8786 28.109 25.8786 26.09C25.8786 24.071 25.0215 22.7197 24.2662 21.9644C23.5108 21.2087 22.1887 20.2572 18.4844 20.2572H12.3068V40.1739H16.7848V32.1986L22.927 40.1739H28.6098L21.7677 31.9152ZM18.4373 29.0608H16.7848V23.8637H18.3393C18.9384 23.8637 21.063 24.0706 21.063 26.2825C21.063 28.4943 19.8644 29.0608 18.4373 29.0608Z" fill="#CF0820"/>
<path d="M49.325 40.1739H44.7709L43.8704 28.3306H43.6959L39.6285 40.0105H36.9263L32.8589 28.3306H32.6844L31.7839 40.1739H27.2298L29.0373 20.2572H33.9101L38.2775 31.6645L42.6447 20.2572H47.5175L49.325 40.1739Z" fill="#002F67"/>
<path d="M49.0092 37.933C49.442 37.1802 49.8852 36.4222 50.3389 35.6587C50.6582 35.1217 50.9776 34.5905 51.2972 34.0653C51.2972 34.0653 53.9121 36.3206 56.3308 36.3206C58.7496 36.3206 59.033 35.0024 59.033 34.3375C59.033 32.2385 54.6485 31.8381 52.2343 29.4239C51.0959 28.2855 50.7452 26.8927 50.7452 25.6579C50.7452 24.423 51.3407 22.9704 52.1399 22.1713C52.939 21.3721 54.4821 19.9196 57.3549 19.9196C61.1065 19.9196 63.3945 21.7826 63.3945 21.7826C62.7879 22.9665 62.1816 24.1504 61.5749 25.3346C61.0454 24.963 60.243 24.5044 59.1889 24.2632C58.4655 24.0978 56.405 23.6264 55.55 24.7208C55.2623 25.0888 55.0731 25.6824 55.2303 26.2357C55.4944 27.1666 56.5475 27.3121 58.8767 28.4544C60.5251 29.2628 61.4638 29.7338 62.3633 30.7062C62.7657 31.1409 63.4815 31.9149 63.8159 33.103C64.331 34.9331 63.7168 36.9553 62.5771 38.2938C60.9372 40.2197 58.5116 40.3494 56.7992 40.4413C56.3707 40.4641 54.3769 40.5449 52.017 39.6284C50.6828 39.1103 49.6777 38.4461 49.0092 37.933Z" fill="#002F67"/>
</svg>
