<svg width="128" height="128" viewBox="0 0 128 128" fill="none" xmlns="http://www.w3.org/2000/svg">
<path d="M18.1314 87.1398C18.1314 87.3019 18.1164 87.4484 18.0856 87.5785C18.0549 87.7086 18.0033 87.819 17.9307 87.9106C17.8575 88.0021 17.7621 88.0714 17.6444 88.1197C17.5261 88.1675 17.3803 88.1917 17.2071 88.1917C17.1515 88.1917 17.0966 88.1877 17.0423 88.1792C16.9881 88.1707 16.9377 88.1603 16.8926 88.1472C16.8475 88.1341 16.8083 88.1204 16.7749 88.106C16.7416 88.091 16.7194 88.0779 16.7083 88.0661C16.6972 88.0544 16.688 88.042 16.6808 88.0289C16.6736 88.0158 16.6671 87.9988 16.6612 87.9779C16.656 87.957 16.6521 87.9302 16.6501 87.8988C16.6481 87.8674 16.6475 87.8275 16.6475 87.7798C16.6475 87.7171 16.6488 87.6641 16.6514 87.621C16.654 87.5778 16.6586 87.5432 16.6651 87.5183C16.6717 87.4935 16.6808 87.4758 16.6926 87.466C16.7043 87.4556 16.72 87.451 16.7383 87.451C16.7547 87.451 16.7743 87.4569 16.7965 87.4693C16.8187 87.4811 16.8436 87.4941 16.871 87.5066C16.8985 87.519 16.9312 87.5321 16.9678 87.5438C17.0044 87.5556 17.0482 87.5621 17.0979 87.5621C17.1476 87.5621 17.1914 87.5549 17.2293 87.5412C17.2672 87.5275 17.2986 87.5033 17.3234 87.4693C17.3483 87.4353 17.3672 87.3895 17.3803 87.332C17.3934 87.2745 17.3999 87.2013 17.3999 87.1104V84.6498C17.3999 84.6315 17.4058 84.6152 17.4182 84.6015C17.43 84.5877 17.4496 84.576 17.4764 84.5668C17.5032 84.5577 17.5404 84.5505 17.5882 84.5459C17.6359 84.5413 17.6954 84.5387 17.7653 84.5387C17.8353 84.5387 17.8935 84.5413 17.9399 84.5459C17.9863 84.5505 18.0235 84.5577 18.0517 84.5668C18.0804 84.576 18.1007 84.5877 18.1124 84.6015C18.1242 84.6152 18.1308 84.6315 18.1308 84.6498V87.1411L18.1314 87.1398Z" fill="#002F67"/>
<path d="M21.3836 87.5942C21.3836 87.6406 21.3823 87.6798 21.3797 87.7118C21.3771 87.7439 21.3725 87.772 21.3673 87.7948C21.3621 87.8177 21.3542 87.838 21.3451 87.8543C21.3359 87.8707 21.3209 87.8896 21.3006 87.9112C21.2803 87.9328 21.2411 87.9596 21.1829 87.9929C21.1248 88.0263 21.0535 88.0583 20.9698 88.0884C20.8862 88.1191 20.7901 88.1439 20.6822 88.1649C20.5743 88.1851 20.4573 88.1956 20.3318 88.1956C20.0867 88.1956 19.8651 88.1577 19.6676 88.0818C19.4702 88.006 19.3022 87.8929 19.1636 87.7425C19.025 87.5922 18.9191 87.4046 18.8453 87.1791C18.7714 86.9542 18.7348 86.692 18.7348 86.3933C18.7348 86.0945 18.7753 85.8187 18.8564 85.582C18.9374 85.346 19.0512 85.1473 19.197 84.9871C19.3427 84.8263 19.5173 84.7047 19.7212 84.6217C19.9252 84.5387 20.1501 84.4969 20.3952 84.4969C20.4946 84.4969 20.5907 84.5054 20.6829 84.5217C20.775 84.538 20.8607 84.5603 20.9391 84.5871C21.0176 84.6139 21.0882 84.6446 21.1509 84.6799C21.2137 84.7152 21.2575 84.7453 21.2823 84.7701C21.3071 84.795 21.3241 84.8159 21.3333 84.8322C21.3424 84.8486 21.3496 84.8701 21.3555 84.8956C21.3614 84.9211 21.3653 84.9518 21.3679 84.9871C21.3706 85.0224 21.3719 85.0656 21.3719 85.1172C21.3719 85.1728 21.3699 85.2199 21.3666 85.2584C21.3627 85.297 21.3562 85.3284 21.347 85.3526C21.3379 85.3768 21.3268 85.3938 21.3137 85.4049C21.3006 85.416 21.2862 85.4212 21.2692 85.4212C21.2418 85.4212 21.2065 85.4049 21.164 85.3728C21.1215 85.3408 21.0666 85.3049 20.9992 85.265C20.9319 85.2251 20.8515 85.1891 20.7587 85.1571C20.6652 85.1251 20.5541 85.1087 20.4253 85.1087C20.2834 85.1087 20.1566 85.1375 20.0448 85.1957C19.933 85.2539 19.8383 85.3369 19.7598 85.4447C19.6814 85.5526 19.6219 85.6834 19.5813 85.8363C19.5408 85.9893 19.5205 86.1619 19.5205 86.3541C19.5205 86.5646 19.5421 86.7469 19.5859 86.9006C19.6291 87.0548 19.6912 87.1817 19.7716 87.281C19.852 87.3804 19.9487 87.4549 20.0625 87.5039C20.1762 87.553 20.3037 87.5772 20.4456 87.5772C20.575 87.5772 20.6861 87.5621 20.7803 87.5314C20.8744 87.5013 20.9548 87.4673 21.0228 87.4307C21.0901 87.3941 21.1457 87.3608 21.1888 87.3314C21.232 87.3019 21.266 87.2869 21.2901 87.2869C21.3085 87.2869 21.3235 87.2908 21.3346 87.298C21.3457 87.3052 21.3549 87.3203 21.3621 87.3425C21.3692 87.3647 21.3751 87.3954 21.3784 87.4353C21.3823 87.4752 21.3836 87.5281 21.3836 87.5942Z" fill="#002F67"/>
<path d="M25.0869 86.3044C25.0869 86.6012 25.0503 86.8672 24.9764 87.1013C24.9026 87.3359 24.7927 87.5347 24.647 87.6974C24.5012 87.8609 24.3208 87.9851 24.1057 88.0714C23.8906 88.157 23.6422 88.2001 23.3598 88.2001C23.0774 88.2001 22.8381 88.1635 22.6303 88.091C22.4224 88.0178 22.2498 87.9066 22.1112 87.7576C21.9726 87.6079 21.8693 87.4183 21.8 87.1875C21.7308 86.9568 21.6961 86.6835 21.6961 86.3684C21.6961 86.0788 21.7327 85.818 21.8066 85.5866C21.8805 85.3552 21.9903 85.1578 22.1361 84.9956C22.2818 84.8335 22.4623 84.7087 22.6773 84.6217C22.8924 84.5348 23.1421 84.4916 23.4258 84.4916C23.7095 84.4916 23.9364 84.5276 24.1443 84.5995C24.3521 84.6714 24.5254 84.7819 24.6646 84.9316C24.8039 85.0813 24.9091 85.2696 24.9804 85.4977C25.0516 85.7258 25.0869 85.9945 25.0869 86.3044ZM24.3227 86.3429C24.3227 86.1547 24.3077 85.9834 24.2783 85.8298C24.2489 85.6755 24.1985 85.5435 24.1273 85.4343C24.056 85.3245 23.9619 85.2395 23.8436 85.1793C23.7252 85.1192 23.5781 85.0891 23.401 85.0891C23.2238 85.0891 23.0728 85.1225 22.9525 85.1898C22.8323 85.2571 22.7355 85.3473 22.6616 85.4598C22.5878 85.5722 22.5355 85.7036 22.5054 85.854C22.4753 86.0043 22.4596 86.1638 22.4596 86.3312C22.4596 86.5266 22.4747 86.7025 22.5041 86.8587C22.5335 87.015 22.5832 87.1477 22.6538 87.2588C22.7237 87.3693 22.8179 87.4536 22.9362 87.5118C23.0545 87.57 23.2029 87.5987 23.382 87.5987C23.5611 87.5987 23.7102 87.5654 23.8305 87.4994C23.9501 87.4327 24.0475 87.3425 24.1214 87.2281C24.1953 87.1137 24.2475 86.9803 24.2776 86.828C24.3083 86.6757 24.3227 86.5142 24.3227 86.3429Z" fill="#002F67"/>
<path d="M28.3555 88.0426C28.3555 88.0629 28.3516 88.0799 28.3444 88.0936C28.3372 88.1073 28.3195 88.1191 28.2921 88.1282C28.2646 88.1374 28.2241 88.1439 28.1705 88.1479C28.1169 88.1518 28.0443 88.1531 27.9515 88.1531C27.8737 88.1531 27.8123 88.1511 27.7658 88.1479C27.7194 88.1446 27.6835 88.1374 27.6567 88.1269C27.6299 88.1171 27.6109 88.1041 27.5998 88.0884C27.5887 88.0727 27.5795 88.0537 27.5723 88.0315L27.2514 87.2313C27.2128 87.1411 27.1749 87.0607 27.1376 86.9908C27.101 86.9208 27.0598 86.862 27.0147 86.8149C26.9696 86.7679 26.9173 86.7326 26.8585 86.7084C26.7996 86.6842 26.731 86.6724 26.6539 86.6724H26.427V88.0367C26.427 88.055 26.4211 88.072 26.4087 88.0864C26.397 88.1014 26.3767 88.1132 26.3492 88.1224C26.3218 88.1315 26.2845 88.1387 26.2388 88.1446C26.1923 88.1498 26.1335 88.1531 26.0616 88.1531C25.9897 88.1531 25.9328 88.1505 25.8858 88.1446C25.8387 88.1387 25.8014 88.1315 25.774 88.1224C25.7465 88.1132 25.7269 88.1014 25.7158 88.0864C25.7047 88.0714 25.6994 88.055 25.6994 88.0367V84.7845C25.6994 84.7034 25.7204 84.6446 25.7615 84.6086C25.8034 84.5727 25.8544 84.5544 25.9152 84.5544H26.8421C26.9363 84.5544 27.0134 84.5563 27.0749 84.5596C27.1357 84.5635 27.1912 84.5681 27.2409 84.5733C27.3847 84.5936 27.5142 84.6289 27.6299 84.6786C27.7449 84.7283 27.843 84.7936 27.9234 84.8741C28.0038 84.9545 28.0652 85.0492 28.1077 85.1591C28.1502 85.2689 28.1711 85.3951 28.1711 85.5369C28.1711 85.6565 28.1561 85.7664 28.1254 85.8651C28.0947 85.9638 28.0502 86.052 27.9914 86.1292C27.9325 86.2063 27.8593 86.2743 27.773 86.3312C27.6861 86.3887 27.5874 86.4345 27.4769 86.4698C27.5305 86.4959 27.5808 86.5273 27.6279 86.5639C27.675 86.6012 27.7194 86.6456 27.7606 86.6979C27.8018 86.7502 27.841 86.8104 27.8783 86.8777C27.9149 86.945 27.9508 87.0215 27.9861 87.1058L28.2882 87.8118C28.3156 87.8818 28.3346 87.9334 28.3437 87.9655C28.3529 87.9975 28.3574 88.023 28.3574 88.0413L28.3555 88.0426ZM27.4174 85.6121C27.4174 85.4938 27.3906 85.3944 27.337 85.3134C27.2834 85.2323 27.1958 85.1748 27.0742 85.1414C27.0376 85.1323 26.9951 85.1251 26.948 85.1192C26.901 85.114 26.8363 85.1107 26.7532 85.1107H26.4264V86.1266H26.797C26.9003 86.1266 26.9905 86.1142 27.0683 86.0893C27.1461 86.0645 27.2102 86.0292 27.2618 85.9841C27.3135 85.939 27.352 85.8847 27.3782 85.8219C27.4043 85.7592 27.4174 85.6899 27.4174 85.6121Z" fill="#002F67"/>
<path d="M31.3423 85.6428C31.3423 85.8442 31.3109 86.022 31.2482 86.1769C31.1854 86.3318 31.0939 86.4626 30.9743 86.5685C30.854 86.6744 30.7069 86.7554 30.533 86.811C30.3591 86.8666 30.1532 86.894 29.9172 86.894H29.6185V88.0374C29.6185 88.0557 29.6126 88.0727 29.6002 88.0871C29.5884 88.1021 29.5681 88.1139 29.5407 88.123C29.5132 88.1322 29.476 88.1394 29.4302 88.1452C29.3838 88.1505 29.3249 88.1537 29.253 88.1537C29.1811 88.1537 29.1243 88.1511 29.0772 88.1452C29.0301 88.1394 28.9929 88.1322 28.9654 88.123C28.9379 88.1139 28.9183 88.1021 28.9072 88.0871C28.8961 88.072 28.8909 88.0557 28.8909 88.0374V84.8152C28.8909 84.7283 28.9138 84.6636 28.9589 84.6204C29.004 84.5773 29.0635 84.555 29.1373 84.555H29.9813C30.0663 84.555 30.1467 84.5583 30.2238 84.5648C30.3003 84.5714 30.3925 84.5851 30.499 84.6067C30.6062 84.6276 30.7147 84.6668 30.8246 84.7244C30.9344 84.7819 31.0279 84.8538 31.1057 84.9414C31.1835 85.029 31.2423 85.1316 31.2828 85.2486C31.3234 85.3657 31.3436 85.497 31.3436 85.6428H31.3423ZM30.5814 85.6951C30.5814 85.5696 30.5592 85.4663 30.5147 85.3853C30.4703 85.3042 30.416 85.2441 30.3513 85.2055C30.2866 85.1669 30.2186 85.1421 30.148 85.1323C30.0767 85.1218 30.0035 85.1172 29.9277 85.1172H29.6178V86.3325H29.9447C30.061 86.3325 30.1584 86.3168 30.2369 86.2854C30.3153 86.254 30.3794 86.2102 30.4291 86.154C30.4788 86.0978 30.5167 86.0305 30.5428 85.952C30.569 85.8736 30.5814 85.7879 30.5814 85.6951Z" fill="#002F67"/>
<path d="M35.8457 88.0426C35.8457 88.0629 35.8418 88.0799 35.8346 88.0936C35.8274 88.1073 35.8098 88.1191 35.7823 88.1282C35.7549 88.1374 35.7143 88.1439 35.6607 88.1479C35.6071 88.1518 35.5346 88.1531 35.4417 88.1531C35.364 88.1531 35.3025 88.1511 35.2561 88.1479C35.2097 88.1446 35.1737 88.1374 35.1469 88.1269C35.1201 88.1171 35.1012 88.1041 35.09 88.0884C35.0789 88.0727 35.0698 88.0537 35.0626 88.0315L34.7416 87.2313C34.703 87.1411 34.6651 87.0607 34.6279 86.9908C34.5913 86.9208 34.5501 86.862 34.505 86.8149C34.4599 86.7679 34.4076 86.7326 34.3487 86.7084C34.2899 86.6842 34.2213 86.6724 34.1441 86.6724H33.9173V88.0367C33.9173 88.055 33.9114 88.072 33.899 88.0864C33.8872 88.1014 33.8669 88.1132 33.8395 88.1224C33.812 88.1315 33.7748 88.1387 33.729 88.1446C33.6826 88.1498 33.6238 88.1531 33.5519 88.1531C33.4799 88.1531 33.4231 88.1505 33.376 88.1446C33.3289 88.1387 33.2917 88.1315 33.2642 88.1224C33.2368 88.1132 33.2172 88.1014 33.206 88.0864C33.1949 88.0714 33.1897 88.055 33.1897 88.0367V84.7845C33.1897 84.7034 33.2106 84.6446 33.2518 84.6086C33.2936 84.5727 33.3446 84.5544 33.4054 84.5544H34.3324C34.4265 84.5544 34.5037 84.5563 34.5651 84.5596C34.6259 84.5635 34.6815 84.5681 34.7312 84.5733C34.875 84.5936 35.0044 84.6289 35.1201 84.6786C35.2352 84.7283 35.3332 84.7936 35.4136 84.8741C35.494 84.9545 35.5555 85.0492 35.598 85.1591C35.6405 85.2689 35.6614 85.3951 35.6614 85.5369C35.6614 85.6565 35.6464 85.7664 35.6156 85.8651C35.5849 85.9638 35.5405 86.052 35.4816 86.1292C35.4228 86.2063 35.3496 86.2743 35.2633 86.3312C35.1763 86.3887 35.0776 86.4345 34.9671 86.4698C35.0208 86.4959 35.0711 86.5273 35.1182 86.5639C35.1652 86.6012 35.2097 86.6456 35.2509 86.6979C35.292 86.7502 35.3313 86.8104 35.3685 86.8777C35.4051 86.945 35.4411 87.0215 35.4764 87.1058L35.7784 87.8118C35.8059 87.8818 35.8248 87.9334 35.834 87.9655C35.8431 87.9975 35.8477 88.023 35.8477 88.0413L35.8457 88.0426ZM34.907 85.6121C34.907 85.4938 34.8802 85.3944 34.8266 85.3134C34.773 85.2323 34.6854 85.1748 34.5638 85.1414C34.5272 85.1323 34.4847 85.1251 34.4376 85.1192C34.3906 85.114 34.3259 85.1107 34.2428 85.1107H33.916V86.1266H34.2866C34.3899 86.1266 34.4801 86.1142 34.5579 86.0893C34.6357 86.0645 34.6998 86.0292 34.7514 85.9841C34.8031 85.939 34.8416 85.8847 34.8678 85.8219C34.8939 85.7592 34.907 85.6899 34.907 85.6121Z" fill="#002F67"/>
<path d="M38.5031 87.8517C38.5031 87.9053 38.5005 87.9498 38.4959 87.9857C38.4913 88.0217 38.4841 88.0511 38.475 88.0727C38.4658 88.0949 38.4541 88.1112 38.4403 88.1211C38.4266 88.1315 38.4116 88.1361 38.3946 88.1361H36.5956C36.5348 88.1361 36.4838 88.1178 36.4419 88.0818C36.4001 88.0459 36.3798 87.987 36.3798 87.906V84.7838C36.3798 84.7028 36.4007 84.6439 36.4419 84.608C36.4838 84.572 36.5348 84.5537 36.5956 84.5537H38.3835C38.3998 84.5537 38.4148 84.5583 38.4279 84.5675C38.441 84.5766 38.4521 84.593 38.4612 84.6158C38.4704 84.6387 38.4776 84.6681 38.4822 84.7047C38.4867 84.7407 38.4894 84.7865 38.4894 84.842C38.4894 84.8937 38.4867 84.9375 38.4822 84.9734C38.4776 85.0094 38.4704 85.0388 38.4612 85.0604C38.4521 85.0826 38.441 85.0989 38.4279 85.1087C38.4148 85.1192 38.4005 85.1238 38.3835 85.1238H37.1048V85.9984H38.1873C38.2037 85.9984 38.2194 86.0037 38.2331 86.0135C38.2468 86.0239 38.2586 86.0396 38.2677 86.0605C38.2769 86.0815 38.2841 86.1102 38.2887 86.1462C38.2933 86.1821 38.2959 86.2259 38.2959 86.2776C38.2959 86.3292 38.2933 86.3756 38.2887 86.4103C38.2841 86.4456 38.2769 86.4737 38.2677 86.4946C38.2586 86.5155 38.2468 86.5312 38.2331 86.5404C38.2194 86.5495 38.2043 86.5541 38.1873 86.5541H37.1048V87.5641H38.3946C38.4109 87.5641 38.4266 87.5693 38.4403 87.5791C38.4541 87.5896 38.4658 87.6053 38.475 87.6275C38.4841 87.6497 38.4913 87.6785 38.4959 87.7144C38.5005 87.7504 38.5031 87.7955 38.5031 87.8484V87.8517Z" fill="#002F67"/>
<path d="M41.5389 87.5942C41.5389 87.6406 41.5376 87.6798 41.535 87.7118C41.5324 87.7439 41.5278 87.772 41.5226 87.7948C41.5174 87.8177 41.5095 87.838 41.5004 87.8543C41.4912 87.8707 41.4762 87.8896 41.4559 87.9112C41.4356 87.9328 41.3964 87.9596 41.3382 87.9929C41.2801 88.0263 41.2088 88.0583 41.1251 88.0884C41.0415 88.1191 40.9454 88.1439 40.8375 88.1649C40.7296 88.1851 40.6126 88.1956 40.4871 88.1956C40.242 88.1956 40.0204 88.1577 39.8229 88.0818C39.6255 88.006 39.4575 87.8929 39.3189 87.7425C39.1803 87.5922 39.0744 87.4046 39.0006 87.1791C38.9267 86.9542 38.8901 86.692 38.8901 86.3933C38.8901 86.0945 38.9306 85.8187 39.0117 85.582C39.0927 85.346 39.2065 85.1473 39.3523 84.9871C39.498 84.8263 39.6726 84.7047 39.8765 84.6217C40.0805 84.5387 40.3054 84.4969 40.5505 84.4969C40.6499 84.4969 40.746 84.5054 40.8382 84.5217C40.9303 84.538 41.016 84.5603 41.0944 84.5871C41.1729 84.6139 41.2435 84.6446 41.3062 84.6799C41.369 84.7152 41.4128 84.7453 41.4376 84.7701C41.4624 84.795 41.4794 84.8159 41.4886 84.8322C41.4977 84.8486 41.5049 84.8701 41.5108 84.8956C41.5167 84.9211 41.5206 84.9518 41.5232 84.9871C41.5259 85.0224 41.5272 85.0656 41.5272 85.1172C41.5272 85.1728 41.5252 85.2199 41.5219 85.2584C41.518 85.297 41.5115 85.3284 41.5023 85.3526C41.4932 85.3768 41.4821 85.3938 41.469 85.4049C41.4559 85.416 41.4415 85.4212 41.4245 85.4212C41.3971 85.4212 41.3618 85.4049 41.3193 85.3728C41.2768 85.3408 41.2219 85.3049 41.1545 85.265C41.0872 85.2251 41.0068 85.1891 40.914 85.1571C40.8205 85.1251 40.7094 85.1087 40.5806 85.1087C40.4387 85.1087 40.3119 85.1375 40.2001 85.1957C40.0883 85.2539 39.9936 85.3369 39.9151 85.4447C39.8367 85.5526 39.7772 85.6834 39.7366 85.8363C39.6961 85.9893 39.6758 86.1619 39.6758 86.3541C39.6758 86.5646 39.6974 86.7469 39.7412 86.9006C39.7844 87.0548 39.8465 87.1817 39.9269 87.281C40.0073 87.3804 40.104 87.4549 40.2178 87.5039C40.3315 87.553 40.459 87.5772 40.6009 87.5772C40.7303 87.5772 40.8414 87.5621 40.9356 87.5314C41.0297 87.5013 41.1101 87.4673 41.1781 87.4307C41.2454 87.3941 41.301 87.3608 41.3441 87.3314C41.3873 87.3019 41.4213 87.2869 41.4454 87.2869C41.4638 87.2869 41.4788 87.2908 41.4899 87.298C41.501 87.3052 41.5102 87.3203 41.5174 87.3425C41.5245 87.3647 41.5304 87.3954 41.5337 87.4353C41.5376 87.4752 41.5389 87.5281 41.5389 87.5942Z" fill="#002F67"/>
<path d="M45.2429 86.3044C45.2429 86.6012 45.2063 86.8672 45.1324 87.1013C45.0585 87.3359 44.9487 87.5347 44.8029 87.6974C44.6571 87.8609 44.4767 87.9851 44.2617 88.0714C44.0466 88.157 43.7982 88.2001 43.5158 88.2001C43.2334 88.2001 42.9941 88.1635 42.7862 88.091C42.5783 88.0178 42.4058 87.9066 42.2672 87.7576C42.1286 87.6079 42.0253 87.4183 41.956 87.1875C41.8867 86.9568 41.8521 86.6835 41.8521 86.3684C41.8521 86.0788 41.8887 85.818 41.9625 85.5866C42.0364 85.3552 42.1462 85.1578 42.292 84.9956C42.4378 84.8335 42.6182 84.7087 42.8333 84.6217C43.0484 84.5348 43.2981 84.4916 43.5818 84.4916C43.8655 84.4916 44.0923 84.5276 44.3002 84.5995C44.5081 84.6714 44.6813 84.7819 44.8206 84.9316C44.9598 85.0813 45.0651 85.2696 45.1363 85.4977C45.2076 85.7258 45.2429 85.9945 45.2429 86.3044ZM44.4787 86.3429C44.4787 86.1547 44.4636 85.9834 44.4342 85.8298C44.4048 85.6755 44.3545 85.5435 44.2832 85.4343C44.212 85.3245 44.1178 85.2395 43.9995 85.1793C43.8812 85.1192 43.7341 85.0891 43.5569 85.0891C43.3798 85.0891 43.2288 85.1225 43.1085 85.1898C42.9882 85.2571 42.8915 85.3473 42.8176 85.4598C42.7437 85.5722 42.6914 85.7036 42.6614 85.854C42.6313 86.0043 42.6156 86.1638 42.6156 86.3312C42.6156 86.5266 42.6306 86.7025 42.6601 86.8587C42.6895 87.015 42.7391 87.1477 42.8097 87.2588C42.8797 87.3693 42.9738 87.4536 43.0922 87.5118C43.2105 87.57 43.3589 87.5987 43.538 87.5987C43.7171 87.5987 43.8661 87.5654 43.9864 87.4994C44.1061 87.4327 44.2035 87.3425 44.2773 87.2281C44.3512 87.1137 44.4035 86.9803 44.4336 86.828C44.4643 86.6757 44.4787 86.5142 44.4787 86.3429Z" fill="#002F67"/>
<path d="M48.5114 88.0426C48.5114 88.0629 48.5075 88.0799 48.5003 88.0936C48.4931 88.1073 48.4755 88.1191 48.448 88.1282C48.4206 88.1374 48.38 88.1439 48.3264 88.1479C48.2728 88.1518 48.2003 88.1531 48.1074 88.1531C48.0297 88.1531 47.9682 88.1511 47.9218 88.1479C47.8754 88.1446 47.8394 88.1374 47.8126 88.1269C47.7858 88.1171 47.7669 88.1041 47.7557 88.0884C47.7446 88.0727 47.7355 88.0537 47.7283 88.0315L47.4073 87.2313C47.3688 87.1411 47.3308 87.0607 47.2936 86.9908C47.257 86.9208 47.2158 86.862 47.1707 86.8149C47.1256 86.7679 47.0733 86.7326 47.0144 86.7084C46.9556 86.6842 46.887 86.6724 46.8098 86.6724H46.583V88.0367C46.583 88.055 46.5771 88.072 46.5647 88.0864C46.5529 88.1014 46.5326 88.1132 46.5052 88.1224C46.4777 88.1315 46.4405 88.1387 46.3947 88.1446C46.3483 88.1498 46.2895 88.1531 46.2176 88.1531C46.1457 88.1531 46.0888 88.1505 46.0417 88.1446C45.9946 88.1387 45.9574 88.1315 45.9299 88.1224C45.9025 88.1132 45.8829 88.1014 45.8717 88.0864C45.8606 88.0714 45.8554 88.055 45.8554 88.0367V84.7845C45.8554 84.7034 45.8763 84.6446 45.9175 84.6086C45.9593 84.5727 46.0103 84.5544 46.0711 84.5544H46.9981C47.0922 84.5544 47.1694 84.5563 47.2308 84.5596C47.2916 84.5635 47.3472 84.5681 47.3969 84.5733C47.5407 84.5936 47.6701 84.6289 47.7858 84.6786C47.9009 84.7283 47.9989 84.7936 48.0793 84.8741C48.1597 84.9545 48.2212 85.0492 48.2637 85.1591C48.3062 85.2689 48.3271 85.3951 48.3271 85.5369C48.3271 85.6565 48.3121 85.7664 48.2813 85.8651C48.2506 85.9638 48.2062 86.052 48.1473 86.1292C48.0885 86.2063 48.0153 86.2743 47.929 86.3312C47.842 86.3887 47.7433 86.4345 47.6329 86.4698C47.6865 86.4959 47.7368 86.5273 47.7839 86.5639C47.8309 86.6012 47.8754 86.6456 47.9166 86.6979C47.9577 86.7502 47.997 86.8104 48.0342 86.8777C48.0708 86.945 48.1068 87.0215 48.1421 87.1058L48.4441 87.8118C48.4716 87.8818 48.4905 87.9334 48.4997 87.9655C48.5088 87.9975 48.5134 88.023 48.5134 88.0413L48.5114 88.0426ZM47.5734 85.6121C47.5734 85.4938 47.5466 85.3944 47.493 85.3134C47.4394 85.2323 47.3518 85.1748 47.2302 85.1414C47.1936 85.1323 47.1511 85.1251 47.104 85.1192C47.0569 85.114 46.9922 85.1107 46.9092 85.1107H46.5823V86.1266H46.953C47.0563 86.1266 47.1465 86.1142 47.2243 86.0893C47.3021 86.0645 47.3661 86.0292 47.4178 85.9841C47.4694 85.939 47.508 85.8847 47.5341 85.8219C47.5603 85.7592 47.5734 85.6899 47.5734 85.6121Z" fill="#002F67"/>
<path d="M52.0212 86.2933C52.0212 86.6214 51.9781 86.9025 51.8925 87.1359C51.8068 87.3693 51.6833 87.5602 51.5231 87.7073C51.3623 87.855 51.1675 87.9635 50.9374 88.0321C50.7073 88.1008 50.434 88.1361 50.117 88.1361H49.2619C49.2011 88.1361 49.1501 88.1178 49.1083 88.0818C49.0664 88.0459 49.0462 87.987 49.0462 87.906V84.7838C49.0462 84.7028 49.0671 84.6439 49.1083 84.608C49.1501 84.572 49.2011 84.5537 49.2619 84.5537H50.181C50.5 84.5537 50.7707 84.591 50.9936 84.6655C51.2159 84.74 51.4035 84.8512 51.5558 84.9976C51.7081 85.144 51.8238 85.3258 51.9029 85.5415C51.982 85.7572 52.0219 86.0076 52.0219 86.2913L52.0212 86.2933ZM51.2682 86.3181C51.2682 86.1481 51.2485 85.9906 51.2087 85.8448C51.1688 85.699 51.1054 85.5729 51.0178 85.4657C50.9302 85.3585 50.8177 85.2754 50.6798 85.2153C50.5425 85.1552 50.3621 85.1251 50.1385 85.1251H49.7705V87.5608H50.1497C50.349 87.5608 50.517 87.5347 50.6537 87.483C50.7903 87.4314 50.904 87.3536 50.9956 87.249C51.0871 87.1451 51.1551 87.015 51.2002 86.86C51.2453 86.7051 51.2682 86.5247 51.2682 86.3181Z" fill="#002F67"/>
<path d="M58.0746 88.0367C58.0746 88.055 58.0694 88.072 58.0596 88.0864C58.0491 88.1014 58.0308 88.1132 58.004 88.1224C57.9772 88.1315 57.9419 88.1387 57.8975 88.1446C57.853 88.1498 57.7968 88.1531 57.7288 88.1531C57.6608 88.1531 57.6072 88.1505 57.5628 88.1446C57.5183 88.1387 57.4837 88.1315 57.4575 88.1224C57.4314 88.1132 57.4131 88.1014 57.402 88.0864C57.3908 88.0714 57.3856 88.055 57.3856 88.0367V85.1225H57.3804L56.3423 88.0341C56.3351 88.0583 56.3227 88.0779 56.3063 88.0936C56.29 88.1093 56.2671 88.1217 56.2383 88.1309C56.2096 88.14 56.173 88.1459 56.1292 88.1492C56.0847 88.1518 56.0311 88.1531 55.9684 88.1531C55.9056 88.1531 55.852 88.1505 55.8075 88.1459C55.7631 88.1413 55.7265 88.1341 55.6984 88.1237C55.6696 88.1132 55.6474 88.1008 55.6304 88.0864C55.614 88.0714 55.6029 88.0544 55.597 88.0341L54.5949 85.1225H54.5897V88.0367C54.5897 88.055 54.5844 88.072 54.5746 88.0864C54.5642 88.1014 54.5459 88.1132 54.5178 88.1224C54.4903 88.1315 54.4544 88.1387 54.4112 88.1446C54.3681 88.1498 54.3118 88.1531 54.2439 88.1531C54.1759 88.1531 54.1223 88.1505 54.0778 88.1446C54.0334 88.1394 53.9981 88.1315 53.9713 88.1224C53.9445 88.1132 53.9262 88.1014 53.9157 88.0864C53.9052 88.0714 53.9007 88.055 53.9007 88.0367V84.8453C53.9007 84.7512 53.9255 84.6792 53.9752 84.6296C54.0249 84.5799 54.0915 84.555 54.1746 84.555H54.6505C54.7355 84.555 54.808 84.5622 54.8695 84.576C54.9309 84.5897 54.9832 84.6126 55.027 84.6453C55.0715 84.6773 55.1081 84.7198 55.1375 84.7727C55.1669 84.825 55.1931 84.8904 55.2153 84.9682L55.9906 87.1019H56.0017L56.8045 84.9734C56.8286 84.8956 56.8548 84.8303 56.8836 84.7766C56.9123 84.723 56.9457 84.6799 56.9829 84.6466C57.0208 84.6132 57.0653 84.5897 57.1169 84.576C57.1686 84.5622 57.2287 84.555 57.2967 84.555H57.7863C57.836 84.555 57.8792 84.5616 57.9151 84.5747C57.9511 84.5877 57.9805 84.6067 58.0034 84.6315C58.0262 84.6564 58.0439 84.6871 58.0557 84.723C58.0674 84.759 58.0733 84.8002 58.0733 84.8459V88.0374L58.0746 88.0367Z" fill="#002F67"/>
<path d="M61.789 87.8654C61.8112 87.9321 61.825 87.9844 61.8309 88.023C61.8361 88.0616 61.8289 88.091 61.8086 88.1099C61.7884 88.1295 61.7524 88.1413 61.7008 88.1459C61.6491 88.1505 61.5779 88.1531 61.4877 88.1531C61.3974 88.1531 61.3203 88.1518 61.2674 88.1492C61.2151 88.1465 61.1745 88.1407 61.1471 88.1328C61.1196 88.125 61.1 88.1132 61.0889 88.0982C61.0778 88.0831 61.0686 88.0642 61.0614 88.04L60.8209 87.3203H59.4755L59.2487 88.0204C59.2415 88.0465 59.2317 88.0681 59.2199 88.0858C59.2082 88.1034 59.1885 88.1171 59.1617 88.1269C59.1349 88.1374 59.097 88.1439 59.048 88.1479C58.999 88.1518 58.9349 88.1531 58.8558 88.1531C58.7708 88.1531 58.7048 88.1505 58.6564 88.1446C58.6087 88.1394 58.5754 88.1256 58.5571 88.1047C58.5388 88.0838 58.5322 88.0537 58.5374 88.0145C58.5427 87.9759 58.5571 87.9243 58.5786 87.8596L59.6828 84.6819C59.6939 84.6505 59.7069 84.625 59.7213 84.606C59.7364 84.5864 59.7599 84.572 59.7919 84.5616C59.824 84.5518 59.8691 84.5452 59.9259 84.542C59.9828 84.5394 60.0586 84.538 60.1528 84.538C60.2619 84.538 60.3482 84.5394 60.413 84.542C60.4777 84.5446 60.528 84.5511 60.564 84.5616C60.5999 84.572 60.6261 84.5871 60.6418 84.6073C60.6574 84.6276 60.6705 84.6551 60.6816 84.6904L61.789 87.8654ZM60.1449 85.2388H60.1423L59.6357 86.7613H60.6516L60.1449 85.2388Z" fill="#002F67"/>
<path d="M65.2432 87.8818C65.2432 87.9243 65.2361 87.9622 65.221 87.9955C65.206 88.0289 65.1864 88.0563 65.1615 88.0786C65.1367 88.1008 65.1073 88.1171 65.0733 88.1269C65.0393 88.1374 65.0046 88.142 64.9693 88.142H64.6595C64.5948 88.142 64.5392 88.1354 64.4921 88.1224C64.4451 88.1093 64.4019 88.0857 64.362 88.0518C64.3222 88.0178 64.2842 87.9714 64.247 87.9132C64.2097 87.855 64.1685 87.7798 64.1221 87.6876L63.2311 86.0128C63.1795 85.9135 63.1265 85.8056 63.0736 85.6905C63.02 85.5755 62.9722 85.4631 62.9298 85.3545H62.9245C62.9317 85.4872 62.9376 85.6199 62.9409 85.752C62.9448 85.884 62.9461 86.02 62.9461 86.1606V88.0348C62.9461 88.0531 62.9409 88.0701 62.9311 88.0844C62.9206 88.0995 62.9036 88.1119 62.8788 88.1217C62.8539 88.1322 62.8199 88.1394 62.7774 88.1452C62.7349 88.1511 62.6807 88.1537 62.614 88.1537C62.5473 88.1537 62.4957 88.1511 62.4532 88.1452C62.4107 88.14 62.3774 88.1322 62.3538 88.1217C62.3296 88.1112 62.3133 88.0988 62.3041 88.0844C62.295 88.0694 62.2904 88.0531 62.2904 88.0348V84.8159C62.2904 84.7289 62.3159 84.6642 62.3663 84.6211C62.4166 84.5779 62.4793 84.5557 62.5532 84.5557H62.9435C63.0134 84.5557 63.0729 84.5616 63.1206 84.574C63.1684 84.5858 63.2115 84.606 63.2494 84.6335C63.2873 84.6609 63.3226 84.6995 63.356 84.7485C63.3893 84.7976 63.4233 84.8577 63.4586 84.9296L64.1561 86.239C64.1966 86.3181 64.2365 86.3966 64.2764 86.473C64.3163 86.5495 64.3542 86.626 64.3915 86.7025C64.4281 86.779 64.4647 86.8542 64.4993 86.928C64.5346 87.0019 64.5686 87.0758 64.602 87.1496H64.6046C64.5993 87.0209 64.5948 86.8855 64.5921 86.7456C64.5895 86.6057 64.5882 86.4717 64.5882 86.3443V84.6642C64.5882 84.6459 64.5941 84.6289 64.6046 84.6145C64.6157 84.5995 64.634 84.5871 64.6601 84.576C64.6856 84.5648 64.7203 84.557 64.7628 84.5524C64.8053 84.5479 64.8595 84.5452 64.9262 84.5452C64.989 84.5452 65.0412 84.5479 65.0837 84.5524C65.1262 84.557 65.1589 84.5648 65.1818 84.576C65.2047 84.5871 65.221 84.6002 65.2302 84.6145C65.2393 84.6296 65.2439 84.6459 65.2439 84.6642V87.8831L65.2432 87.8818Z" fill="#002F67"/>
<path d="M68.9576 87.8654C68.9799 87.9321 68.9936 87.9844 68.9988 88.023C69.0041 88.0616 68.9969 88.091 68.9766 88.1099C68.9563 88.1295 68.9204 88.1413 68.8687 88.1459C68.8171 88.1505 68.7458 88.1531 68.6556 88.1531C68.5654 88.1531 68.4883 88.1518 68.4353 88.1492C68.3824 88.1465 68.3425 88.1407 68.315 88.1328C68.2876 88.1243 68.268 88.1132 68.2569 88.0982C68.2458 88.0831 68.2366 88.0642 68.2294 88.04L67.9888 87.3203H66.6435L66.4167 88.0204C66.4095 88.0465 66.3997 88.0681 66.3879 88.0858C66.3761 88.1034 66.3565 88.1171 66.3297 88.1269C66.3029 88.1374 66.265 88.1439 66.216 88.1479C66.1669 88.1518 66.1029 88.1531 66.0238 88.1531C65.9388 88.1531 65.8728 88.1505 65.8244 88.1446C65.7767 88.1394 65.7433 88.1256 65.725 88.1047C65.7067 88.0838 65.7002 88.0537 65.7054 88.0145C65.7106 87.9759 65.725 87.9243 65.7473 87.8596L66.8514 84.6819C66.8625 84.6505 66.8756 84.625 66.89 84.606C66.905 84.5864 66.9285 84.572 66.9606 84.5616C66.9926 84.5518 67.0377 84.5452 67.0946 84.542C67.1514 84.5394 67.2273 84.538 67.3214 84.538C67.4306 84.538 67.5169 84.5394 67.5816 84.542C67.6463 84.5446 67.6966 84.5511 67.7326 84.5616C67.7685 84.572 67.7947 84.5871 67.8104 84.6073C67.8261 84.6276 67.8398 84.6551 67.8503 84.6904L68.9576 87.8654ZM67.3136 85.2388H67.3109L66.8043 86.7613H67.8202L67.3136 85.2388Z" fill="#002F67"/>
<path d="M72.2628 85.1114C72.2628 85.165 72.2602 85.2107 72.2556 85.2499C72.2511 85.2885 72.2445 85.3199 72.236 85.3428C72.2275 85.3657 72.2177 85.382 72.2053 85.3911C72.1929 85.4003 72.1791 85.4049 72.1621 85.4049C72.138 85.4049 72.0994 85.3885 72.0458 85.3552C71.9922 85.3218 71.9209 85.2859 71.8327 85.2473C71.7438 85.2088 71.6385 85.1728 71.5156 85.1395C71.3927 85.1061 71.2502 85.0898 71.0881 85.0898C70.9149 85.0898 70.758 85.1199 70.6174 85.18C70.4769 85.2401 70.3572 85.3251 70.2579 85.4349C70.1585 85.5448 70.0814 85.6768 70.0284 85.8304C69.9748 85.9847 69.948 86.1547 69.948 86.341C69.948 86.5456 69.9755 86.726 70.0297 86.8823C70.084 87.0385 70.1605 87.1686 70.2579 87.2738C70.3559 87.3791 70.473 87.4582 70.6109 87.5118C70.7482 87.5654 70.8998 87.5922 71.0659 87.5922C71.1469 87.5922 71.2273 87.583 71.3064 87.5647C71.3855 87.5464 71.4594 87.5183 71.5281 87.4817V86.6515H70.8502C70.8168 86.6515 70.7913 86.6306 70.7724 86.5894C70.7541 86.5476 70.7449 86.4776 70.7449 86.3776C70.7449 86.326 70.7475 86.2828 70.7521 86.2475C70.7567 86.2122 70.7639 86.1841 70.773 86.1632C70.7822 86.1423 70.7933 86.1266 70.8064 86.1161C70.8194 86.1057 70.8338 86.1011 70.8508 86.1011H72.0602C72.0896 86.1011 72.1157 86.1063 72.1393 86.1161C72.1622 86.1266 72.1824 86.1416 72.2001 86.1619C72.2177 86.1821 72.2308 86.2063 72.2399 86.2351C72.2491 86.2638 72.2537 86.2965 72.2537 86.3331V87.7589C72.2537 87.8145 72.2439 87.8628 72.2249 87.904C72.2053 87.9459 72.1661 87.9785 72.1059 88.0021C72.0458 88.0263 71.9719 88.0511 71.883 88.0766C71.7948 88.1027 71.7026 88.1243 71.6078 88.1433C71.513 88.1616 71.4169 88.1753 71.3202 88.1845C71.2234 88.1936 71.126 88.1982 71.028 88.1982C70.7416 88.1982 70.486 88.157 70.2598 88.0753C70.0337 87.9936 69.8421 87.8739 69.6852 87.7184C69.5283 87.5628 69.4087 87.3726 69.3257 87.1483C69.2427 86.9241 69.2008 86.6698 69.2008 86.3854C69.2008 86.1011 69.2453 85.8285 69.3335 85.5951C69.4224 85.3617 69.5473 85.1637 69.7101 85.0002C69.8722 84.8368 70.0683 84.7119 70.2984 84.625C70.5279 84.538 70.7841 84.4949 71.0665 84.4949C71.2215 84.4949 71.3627 84.5054 71.4901 84.5269C71.6176 84.5485 71.7287 84.574 71.8235 84.6047C71.9183 84.6354 71.9974 84.6681 72.0602 84.7028C72.1229 84.7381 72.1667 84.7682 72.1916 84.7943C72.2164 84.8205 72.2347 84.8564 72.2458 84.9035C72.2569 84.9505 72.2622 85.0205 72.2622 85.1127L72.2628 85.1114Z" fill="#002F67"/>
<path d="M75.1248 87.8517C75.1248 87.9053 75.1222 87.9498 75.1176 87.9857C75.113 88.0217 75.1058 88.0511 75.0967 88.0727C75.0875 88.0949 75.0758 88.1112 75.062 88.1211C75.0483 88.1309 75.0333 88.1361 75.0163 88.1361H73.2172C73.1564 88.1361 73.1055 88.1178 73.0636 88.0818C73.0224 88.0459 73.0015 87.987 73.0015 87.906V84.7838C73.0015 84.7028 73.0224 84.6439 73.0636 84.608C73.1048 84.572 73.1564 84.5537 73.2172 84.5537H75.0051C75.0215 84.5537 75.0365 84.5583 75.0496 84.5675C75.0627 84.5766 75.0738 84.593 75.0829 84.6158C75.0921 84.6387 75.0993 84.6681 75.1039 84.7047C75.1084 84.7407 75.1111 84.7865 75.1111 84.842C75.1111 84.8937 75.1084 84.9375 75.1039 84.9734C75.0993 85.0094 75.0921 85.0388 75.0829 85.0604C75.0738 85.0826 75.0627 85.0989 75.0496 85.1087C75.0365 85.1192 75.0221 85.1238 75.0051 85.1238H73.7265V85.9984H74.809C74.8254 85.9984 74.8411 86.0037 74.8548 86.0135C74.8685 86.0233 74.8803 86.0396 74.8894 86.0605C74.8986 86.0815 74.9058 86.1102 74.9104 86.1462C74.9149 86.1821 74.9176 86.2259 74.9176 86.2776C74.9176 86.3292 74.9149 86.3756 74.9104 86.4103C74.9058 86.4456 74.8986 86.4737 74.8894 86.4946C74.8803 86.5155 74.8685 86.5312 74.8548 86.5404C74.8411 86.5495 74.826 86.5541 74.809 86.5541H73.7265V87.5641H75.0163C75.0326 87.5641 75.0483 87.5693 75.062 87.5791C75.0758 87.5889 75.0875 87.6053 75.0967 87.6275C75.1058 87.6497 75.113 87.6785 75.1176 87.7144C75.1222 87.7504 75.1248 87.7955 75.1248 87.8484V87.8517Z" fill="#002F67"/>
<path d="M79.9407 88.0367C79.9407 88.055 79.9355 88.072 79.9257 88.0864C79.9152 88.1014 79.8969 88.1132 79.8701 88.1224C79.8433 88.1315 79.808 88.1387 79.7635 88.1446C79.7191 88.1498 79.6629 88.1531 79.5949 88.1531C79.5269 88.1531 79.4733 88.1505 79.4288 88.1446C79.3844 88.1387 79.3497 88.1315 79.3236 88.1224C79.2974 88.1132 79.2791 88.1014 79.268 88.0864C79.2569 88.0714 79.2517 88.055 79.2517 88.0367V85.1225H79.2464L78.2084 88.0341C78.2012 88.0583 78.1887 88.0779 78.1724 88.0936C78.1561 88.1093 78.1332 88.1217 78.1044 88.1309C78.0756 88.14 78.039 88.1459 77.9952 88.1492C77.9514 88.1524 77.8972 88.1531 77.8344 88.1531C77.7717 88.1531 77.7181 88.1505 77.6736 88.1459C77.6292 88.1413 77.5925 88.1341 77.5644 88.1237C77.5357 88.1132 77.5135 88.1008 77.4965 88.0864C77.4795 88.072 77.469 88.0544 77.4631 88.0341L76.461 85.1225H76.4557V88.0367C76.4557 88.055 76.4505 88.072 76.4407 88.0864C76.4302 88.1014 76.4119 88.1132 76.3838 88.1224C76.3564 88.1315 76.3204 88.1387 76.2773 88.1446C76.2341 88.1498 76.1779 88.1531 76.1099 88.1531C76.0419 88.1531 75.9883 88.1505 75.9439 88.1446C75.8994 88.1394 75.8641 88.1315 75.8373 88.1224C75.8105 88.1132 75.7922 88.1014 75.7818 88.0864C75.7713 88.0714 75.7667 88.055 75.7667 88.0367V84.8453C75.7667 84.7512 75.7916 84.6792 75.8413 84.6296C75.8909 84.5799 75.9576 84.555 76.0406 84.555H76.5165C76.6015 84.555 76.6741 84.5622 76.7349 84.576C76.7957 84.5897 76.8486 84.6126 76.8924 84.6453C76.9369 84.6773 76.9735 84.7198 77.0029 84.7727C77.0323 84.825 77.0585 84.8904 77.0807 84.9682L77.856 87.1019H77.8671L78.6699 84.9734C78.6941 84.8956 78.7202 84.8303 78.749 84.7766C78.7777 84.723 78.8111 84.6799 78.8483 84.6466C78.8863 84.6132 78.9307 84.5897 78.9823 84.576C79.034 84.5622 79.0941 84.555 79.1621 84.555H79.6517C79.7014 84.555 79.7446 84.5616 79.7805 84.5747C79.8165 84.5877 79.8459 84.6067 79.8688 84.6315C79.8917 84.6564 79.9093 84.6871 79.9211 84.723C79.9328 84.759 79.9394 84.8002 79.9394 84.8459V88.0374L79.9407 88.0367Z" fill="#002F67"/>
<path d="M82.8445 87.8517C82.8445 87.9053 82.8419 87.9498 82.8373 87.9857C82.8327 88.0217 82.8255 88.0511 82.8164 88.0727C82.8072 88.0949 82.7954 88.1112 82.7817 88.1211C82.768 88.1309 82.753 88.1361 82.736 88.1361H80.937C80.8762 88.1361 80.8252 88.1178 80.7833 88.0818C80.7421 88.0459 80.7212 87.987 80.7212 87.906V84.7838C80.7212 84.7028 80.7421 84.6439 80.7833 84.608C80.8245 84.572 80.8762 84.5537 80.937 84.5537H82.7249C82.7412 84.5537 82.7562 84.5583 82.7693 84.5675C82.7824 84.5766 82.7935 84.593 82.8027 84.6158C82.8118 84.6387 82.819 84.6681 82.8236 84.7047C82.8281 84.7407 82.8308 84.7865 82.8308 84.842C82.8308 84.8937 82.8281 84.9375 82.8236 84.9734C82.819 85.0094 82.8118 85.0388 82.8027 85.0604C82.7935 85.0826 82.7824 85.0989 82.7693 85.1087C82.7562 85.1192 82.7419 85.1238 82.7249 85.1238H81.4462V85.9984H82.5287C82.5451 85.9984 82.5608 86.0037 82.5745 86.0135C82.5882 86.0233 82.6 86.0396 82.6091 86.0605C82.6183 86.0815 82.6255 86.1102 82.6301 86.1462C82.6346 86.1821 82.6373 86.2259 82.6373 86.2776C82.6373 86.3292 82.6346 86.3756 82.6301 86.4103C82.6255 86.4456 82.6183 86.4737 82.6091 86.4946C82.6 86.5155 82.5882 86.5312 82.5745 86.5404C82.5608 86.5495 82.5457 86.5541 82.5287 86.5541H81.4462V87.5641H82.736C82.7523 87.5641 82.768 87.5693 82.7817 87.5791C82.7954 87.5889 82.8072 87.6053 82.8164 87.6275C82.8255 87.6497 82.8327 87.6785 82.8373 87.7144C82.8419 87.7504 82.8445 87.7955 82.8445 87.8484V87.8517Z" fill="#002F67"/>
<path d="M86.4399 87.8818C86.4399 87.9243 86.4327 87.9622 86.4177 87.9955C86.4026 88.0289 86.383 88.0563 86.3582 88.0786C86.3334 88.1008 86.3039 88.1171 86.2699 88.1269C86.2359 88.1374 86.2013 88.142 86.166 88.142H85.8561C85.7914 88.142 85.7359 88.1354 85.6888 88.1224C85.6417 88.1093 85.5986 88.0857 85.5587 88.0518C85.5188 88.0178 85.4809 87.9714 85.4437 87.9132C85.4064 87.855 85.3652 87.7798 85.3188 87.6876L84.4278 86.0128C84.3761 85.9135 84.3232 85.8056 84.2702 85.6905C84.2166 85.5755 84.1689 85.4631 84.1264 85.3545H84.1212C84.1284 85.4872 84.1343 85.6199 84.1375 85.752C84.1414 85.884 84.1428 86.02 84.1428 86.1606V88.0348C84.1428 88.0531 84.1375 88.0701 84.1277 88.0844C84.1173 88.0995 84.1003 88.1119 84.0754 88.1217C84.0506 88.1315 84.0166 88.1394 83.9741 88.1452C83.9316 88.1511 83.8773 88.1537 83.8107 88.1537C83.744 88.1537 83.6923 88.1511 83.6499 88.1452C83.6074 88.1394 83.574 88.1322 83.5505 88.1217C83.5263 88.1112 83.51 88.0988 83.5008 88.0844C83.4917 88.0694 83.4871 88.0531 83.4871 88.0348V84.8159C83.4871 84.7289 83.5126 84.6642 83.5636 84.6211C83.6146 84.5779 83.6767 84.5557 83.7505 84.5557H84.1408C84.2107 84.5557 84.2702 84.5616 84.318 84.574C84.3657 84.5858 84.4088 84.606 84.4467 84.6335C84.4847 84.6609 84.52 84.6995 84.5533 84.7485C84.5866 84.7976 84.6206 84.8577 84.6559 84.9296L85.3534 86.239C85.394 86.3181 85.4338 86.3966 85.4737 86.473C85.5136 86.5495 85.5515 86.626 85.5888 86.7025C85.6254 86.779 85.6613 86.8542 85.6966 86.928C85.7319 87.0019 85.7659 87.0758 85.7993 87.1496H85.8019C85.7967 87.0209 85.7921 86.8855 85.7895 86.7456C85.7868 86.6057 85.7855 86.4717 85.7855 86.3443V84.6642C85.7855 84.6459 85.7908 84.6289 85.8019 84.6145C85.813 84.5995 85.8313 84.5871 85.8575 84.576C85.8836 84.5648 85.9176 84.557 85.9601 84.5524C86.0026 84.5479 86.0568 84.5452 86.1235 84.5452C86.1863 84.5452 86.2386 84.5479 86.2811 84.5524C86.3235 84.557 86.3562 84.5648 86.3791 84.576C86.402 84.5871 86.4183 84.6002 86.4275 84.6145C86.4366 84.6296 86.4412 84.6459 86.4412 84.6642V87.8831L86.4399 87.8818Z" fill="#002F67"/>
<path d="M89.6039 84.8538C89.6039 84.9074 89.6013 84.9532 89.5967 84.9911C89.5921 85.029 89.5849 85.0591 89.5758 85.0826C89.5666 85.1055 89.5549 85.1225 89.5411 85.1336C89.5274 85.1447 89.5124 85.1499 89.4954 85.1499H88.5985V88.0367C88.5985 88.055 88.5926 88.072 88.5802 88.0864C88.5677 88.1008 88.5481 88.1132 88.5207 88.1224C88.4932 88.1315 88.4553 88.1387 88.4089 88.1446C88.3625 88.1505 88.303 88.1531 88.233 88.1531C88.1631 88.1531 88.1043 88.1505 88.0572 88.1446C88.0101 88.1387 87.9729 88.1315 87.9454 88.1224C87.918 88.1132 87.8977 88.1014 87.8859 88.0864C87.8742 88.0714 87.8676 88.055 87.8676 88.0367V85.1499H86.9707C86.9524 85.1499 86.9367 85.1447 86.9237 85.1336C86.9106 85.1225 86.8995 85.1055 86.8903 85.0826C86.8812 85.0597 86.874 85.029 86.8694 84.9911C86.8648 84.9532 86.8622 84.9074 86.8622 84.8538C86.8622 84.8002 86.8648 84.7512 86.8694 84.7126C86.874 84.674 86.8812 84.6426 86.8903 84.6198C86.8995 84.5969 86.9106 84.5799 86.9237 84.5701C86.9367 84.5603 86.9524 84.555 86.9707 84.555H89.4954C89.5117 84.555 89.5274 84.5603 89.5411 84.5701C89.5549 84.5805 89.5666 84.5969 89.5758 84.6198C89.5849 84.6426 89.5921 84.674 89.5967 84.7126C89.6013 84.7512 89.6039 84.7982 89.6039 84.8538Z" fill="#002F67"/>
<path d="M93.4314 87.0627C93.4314 87.251 93.3961 87.4163 93.3261 87.5582C93.2562 87.7001 93.1607 87.819 93.0411 87.9138C92.9215 88.0086 92.7809 88.0805 92.6201 88.1282C92.4593 88.176 92.288 88.2001 92.105 88.2001C91.9814 88.2001 91.8664 88.1897 91.7605 88.1694C91.6546 88.1492 91.5605 88.125 91.4794 88.0962C91.3983 88.0674 91.3303 88.0374 91.2761 88.006C91.2218 87.9746 91.1826 87.9472 91.1584 87.923C91.1342 87.8988 91.1172 87.8641 91.1074 87.819C91.097 87.7739 91.0924 87.7086 91.0924 87.6236C91.0924 87.566 91.0944 87.5183 91.0976 87.4798C91.1009 87.4412 91.1074 87.4098 91.1159 87.3856C91.1244 87.3614 91.1355 87.3444 91.1493 87.3346C91.163 87.3248 91.1793 87.3196 91.1976 87.3196C91.2238 87.3196 91.2597 87.3346 91.3068 87.3654C91.3539 87.3961 91.414 87.4294 91.4879 87.4667C91.5618 87.5033 91.65 87.5373 91.752 87.5674C91.854 87.5974 91.9729 87.6131 92.1076 87.6131C92.1959 87.6131 92.2756 87.6027 92.3456 87.5811C92.4155 87.5602 92.475 87.5301 92.524 87.4909C92.5731 87.4523 92.6103 87.4039 92.6358 87.3471C92.6613 87.2902 92.6744 87.2261 92.6744 87.1562C92.6744 87.0751 92.6522 87.0052 92.6077 86.947C92.5633 86.8888 92.5057 86.8372 92.4345 86.7921C92.3632 86.7469 92.2828 86.7045 92.1926 86.6646C92.1024 86.6247 92.0089 86.5829 91.9128 86.5384C91.8167 86.494 91.7239 86.4436 91.633 86.3874C91.5428 86.3312 91.4617 86.2638 91.3905 86.1854C91.3192 86.107 91.2617 86.0141 91.2172 85.9069C91.1728 85.7997 91.1506 85.6716 91.1506 85.5225C91.1506 85.3513 91.1826 85.2003 91.246 85.0702C91.3094 84.9401 91.3957 84.8322 91.5036 84.7466C91.6114 84.6609 91.7389 84.5969 91.8853 84.5544C92.0318 84.5119 92.1874 84.491 92.3514 84.491C92.4364 84.491 92.5214 84.4975 92.6064 84.5106C92.6914 84.5237 92.7705 84.5413 92.8443 84.5629C92.9182 84.5845 92.9836 84.61 93.0411 84.6374C93.0986 84.6649 93.1359 84.6884 93.1549 84.7067C93.1732 84.725 93.1856 84.7407 93.1921 84.7538C93.1987 84.7668 93.2039 84.7838 93.2085 84.8048C93.213 84.8257 93.2163 84.8525 93.2183 84.8852C93.2202 84.9172 93.2209 84.9577 93.2209 85.0055C93.2209 85.0591 93.2196 85.1042 93.217 85.1408C93.2143 85.178 93.2098 85.2081 93.2032 85.2323C93.1967 85.2565 93.1875 85.2741 93.1758 85.2846C93.164 85.295 93.1477 85.3009 93.1274 85.3009C93.1071 85.3009 93.0751 85.2879 93.0307 85.2624C92.9862 85.2369 92.9319 85.2081 92.8672 85.178C92.8025 85.1473 92.728 85.1199 92.643 85.095C92.558 85.0702 92.4652 85.0577 92.3632 85.0577C92.2841 85.0577 92.2148 85.0676 92.1553 85.0865C92.0965 85.1061 92.0468 85.1329 92.0069 85.1669C91.9671 85.2009 91.9376 85.2421 91.9187 85.2898C91.8991 85.3375 91.8899 85.3885 91.8899 85.4421C91.8899 85.5212 91.9115 85.5905 91.9553 85.6487C91.9984 85.7069 92.0566 85.7585 92.1298 85.8036C92.203 85.8487 92.2854 85.8912 92.3776 85.9311C92.4698 85.971 92.5639 86.0128 92.66 86.0573C92.7561 86.1017 92.8502 86.1521 92.9424 86.2083C93.0346 86.2645 93.1169 86.3318 93.1889 86.4103C93.2608 86.4887 93.3189 86.5809 93.3634 86.6868C93.4078 86.7927 93.4301 86.9182 93.4301 87.062L93.4314 87.0627Z" fill="#002F67"/>
<path d="M95.3278 86.7777V88.0367C95.3278 88.055 95.3219 88.072 95.3095 88.0864C95.2971 88.1008 95.2775 88.1132 95.25 88.1224C95.2226 88.1315 95.1846 88.1387 95.1382 88.1446C95.0918 88.1505 95.0323 88.1531 94.9624 88.1531C94.8924 88.1531 94.8316 88.1505 94.7852 88.1446C94.7388 88.1394 94.7015 88.1315 94.6734 88.1224C94.6447 88.1132 94.6251 88.1014 94.6139 88.0864C94.6028 88.0714 94.5976 88.055 94.5976 88.0367V86.7777L93.6177 84.8263C93.5824 84.7584 93.5602 84.7047 93.5497 84.6675C93.5392 84.6302 93.5451 84.6008 93.566 84.5818C93.587 84.5622 93.6262 84.5505 93.6837 84.5459C93.7412 84.5413 93.8203 84.5387 93.9217 84.5387C94.0066 84.5387 94.074 84.5407 94.125 84.5439C94.176 84.5479 94.2158 84.5544 94.2452 84.5648C94.2747 84.5753 94.2962 84.5884 94.31 84.6047C94.3237 84.6211 94.3374 84.6426 94.3499 84.6681L94.7486 85.548C94.7872 85.633 94.8258 85.7226 94.8637 85.8167C94.9016 85.9108 94.9395 86.0096 94.9787 86.1128H94.9839C95.0192 86.0135 95.0552 85.9161 95.0918 85.8219C95.1284 85.7278 95.1644 85.6382 95.1997 85.5533L95.5926 84.6786C95.6017 84.6492 95.6135 84.6256 95.6272 84.608C95.6409 84.5903 95.6618 84.576 95.6893 84.5648C95.7168 84.5537 95.7547 84.5465 95.8031 84.5426C95.8508 84.5387 95.9148 84.5374 95.9939 84.5374C96.0992 84.5374 96.1809 84.54 96.2391 84.5446C96.2973 84.5492 96.3371 84.5609 96.3581 84.5805C96.379 84.6001 96.3842 84.6289 96.3731 84.6675C96.362 84.7061 96.3398 84.759 96.3064 84.825L95.3265 86.7764L95.3278 86.7777Z" fill="#002F67"/>
<path d="M98.865 87.0627C98.865 87.251 98.8297 87.4163 98.7598 87.5582C98.6898 87.7001 98.5944 87.819 98.4748 87.9138C98.3552 88.0086 98.2146 88.0805 98.0538 88.1282C97.893 88.176 97.7217 88.2001 97.5387 88.2001C97.4151 88.2001 97.3001 88.1897 97.1942 88.1694C97.0883 88.1492 96.9941 88.125 96.9131 88.0962C96.832 88.0674 96.764 88.0374 96.7098 88.006C96.6555 87.9746 96.6163 87.9472 96.5921 87.923C96.5679 87.8988 96.5509 87.8641 96.5411 87.819C96.5306 87.7739 96.5261 87.7086 96.5261 87.6236C96.5261 87.566 96.528 87.5183 96.5313 87.4798C96.5346 87.4412 96.5411 87.4098 96.5496 87.3856C96.5581 87.3614 96.5692 87.3444 96.5829 87.3346C96.5967 87.3248 96.613 87.3196 96.6313 87.3196C96.6574 87.3196 96.6934 87.3346 96.7405 87.3654C96.7875 87.3961 96.8477 87.4294 96.9216 87.4667C96.9954 87.5033 97.0837 87.5373 97.1857 87.5674C97.2876 87.5974 97.4066 87.6131 97.5413 87.6131C97.6295 87.6131 97.7093 87.6027 97.7792 87.5811C97.8492 87.5602 97.9087 87.5301 97.9577 87.4909C98.0067 87.4523 98.044 87.4039 98.0695 87.3471C98.095 87.2902 98.108 87.2261 98.108 87.1562C98.108 87.0751 98.0858 87.0052 98.0414 86.947C97.9969 86.8888 97.9394 86.8372 97.8681 86.7921C97.7969 86.7469 97.7165 86.7045 97.6263 86.6646C97.536 86.6247 97.4426 86.5829 97.3465 86.5384C97.2504 86.494 97.1575 86.4436 97.0667 86.3874C96.9765 86.3312 96.8954 86.2638 96.8242 86.1854C96.7529 86.107 96.6954 86.0141 96.6509 85.9069C96.6065 85.7997 96.5842 85.6716 96.5842 85.5225C96.5842 85.3513 96.6163 85.2003 96.6797 85.0702C96.7431 84.9401 96.8294 84.8322 96.9372 84.7466C97.0451 84.6609 97.1726 84.5969 97.319 84.5544C97.4654 84.5119 97.621 84.491 97.7851 84.491C97.8701 84.491 97.9551 84.4975 98.0401 84.5106C98.125 84.5237 98.2041 84.5413 98.278 84.5629C98.3519 84.5845 98.4173 84.61 98.4748 84.6374C98.5323 84.6649 98.5696 84.6884 98.5885 84.7067C98.6068 84.725 98.6192 84.7407 98.6258 84.7538C98.6323 84.7668 98.6376 84.7838 98.6421 84.8048C98.6467 84.8257 98.65 84.8525 98.6519 84.8852C98.6539 84.9172 98.6546 84.9577 98.6546 85.0055C98.6546 85.0591 98.6532 85.1042 98.6506 85.1408C98.648 85.178 98.6434 85.2081 98.6369 85.2323C98.6304 85.2565 98.6212 85.2741 98.6094 85.2846C98.5977 85.295 98.5813 85.3009 98.5611 85.3009C98.5408 85.3009 98.5088 85.2879 98.4643 85.2624C98.4199 85.2369 98.3656 85.2081 98.3009 85.178C98.2362 85.1473 98.1617 85.1199 98.0767 85.095C97.9917 85.0702 97.8989 85.0577 97.7969 85.0577C97.7178 85.0577 97.6485 85.0676 97.589 85.0865C97.5302 85.1061 97.4805 85.1329 97.4406 85.1669C97.4007 85.2009 97.3713 85.2421 97.3524 85.2898C97.3327 85.3375 97.3236 85.3885 97.3236 85.4421C97.3236 85.5212 97.3452 85.5905 97.389 85.6487C97.4321 85.7069 97.4903 85.7585 97.5635 85.8036C97.6367 85.8487 97.7191 85.8912 97.8113 85.9311C97.9034 85.971 97.9976 86.0128 98.0937 86.0573C98.1898 86.1017 98.2839 86.1521 98.3761 86.2083C98.4682 86.2645 98.5506 86.3318 98.6225 86.4103C98.6944 86.4887 98.7526 86.5809 98.7971 86.6868C98.8415 86.7927 98.8637 86.9182 98.8637 87.062L98.865 87.0627Z" fill="#002F67"/>
<path d="M101.749 84.8538C101.749 84.9074 101.747 84.9532 101.742 84.9911C101.737 85.029 101.73 85.0591 101.721 85.0826C101.712 85.1055 101.7 85.1225 101.686 85.1336C101.673 85.1447 101.658 85.1499 101.641 85.1499H100.744V88.0367C100.744 88.055 100.738 88.072 100.726 88.0864C100.713 88.1008 100.693 88.1132 100.666 88.1224C100.639 88.1315 100.601 88.1387 100.554 88.1446C100.508 88.1505 100.448 88.1531 100.378 88.1531C100.308 88.1531 100.25 88.1505 100.203 88.1446C100.155 88.1387 100.118 88.1315 100.091 88.1224C100.063 88.1132 100.043 88.1014 100.031 88.0864C100.02 88.0714 100.013 88.055 100.013 88.0367V85.1499H99.1161C99.0978 85.1499 99.0821 85.1447 99.069 85.1336C99.0559 85.1225 99.0448 85.1055 99.0357 85.0826C99.0265 85.0597 99.0193 85.029 99.0147 84.9911C99.0102 84.9532 99.0076 84.9074 99.0076 84.8538C99.0076 84.8002 99.0102 84.7512 99.0147 84.7126C99.0193 84.674 99.0265 84.6426 99.0357 84.6198C99.0448 84.5969 99.0559 84.5799 99.069 84.5701C99.0821 84.5603 99.0978 84.555 99.1161 84.555H101.641C101.657 84.555 101.673 84.5603 101.686 84.5701C101.7 84.5805 101.712 84.5969 101.721 84.6198C101.73 84.6426 101.737 84.674 101.742 84.7126C101.747 84.7512 101.749 84.7982 101.749 84.8538Z" fill="#002F67"/>
<path d="M104.295 87.8517C104.295 87.9053 104.293 87.9498 104.288 87.9857C104.284 88.0217 104.276 88.0511 104.267 88.0727C104.258 88.0949 104.246 88.1112 104.233 88.1211C104.219 88.1309 104.204 88.1361 104.187 88.1361H102.388C102.327 88.1361 102.276 88.1178 102.234 88.0818C102.193 88.0459 102.172 87.987 102.172 87.906V84.7838C102.172 84.7028 102.193 84.6439 102.234 84.608C102.275 84.572 102.327 84.5537 102.388 84.5537H104.176C104.192 84.5537 104.207 84.5583 104.22 84.5675C104.233 84.5766 104.244 84.593 104.254 84.6158C104.263 84.6387 104.27 84.6681 104.275 84.7047C104.279 84.7407 104.282 84.7865 104.282 84.842C104.282 84.8937 104.279 84.9375 104.275 84.9734C104.27 85.0094 104.263 85.0388 104.254 85.0604C104.244 85.0826 104.233 85.0989 104.22 85.1087C104.207 85.1192 104.193 85.1238 104.176 85.1238H102.897V85.9984H103.98C103.996 85.9984 104.012 86.0037 104.025 86.0135C104.039 86.0233 104.051 86.0396 104.06 86.0605C104.069 86.0815 104.076 86.1102 104.081 86.1462C104.086 86.1821 104.088 86.2259 104.088 86.2776C104.088 86.3292 104.086 86.3756 104.081 86.4103C104.076 86.4456 104.069 86.4737 104.06 86.4946C104.051 86.5155 104.039 86.5312 104.025 86.5404C104.012 86.5495 103.997 86.5541 103.98 86.5541H102.897V87.5641H104.187C104.203 87.5641 104.219 87.5693 104.233 87.5791C104.246 87.5889 104.258 87.6053 104.267 87.6275C104.276 87.6497 104.284 87.6785 104.288 87.7144C104.293 87.7504 104.295 87.7955 104.295 87.8484V87.8517Z" fill="#002F67"/>
<path d="M109.112 88.0367C109.112 88.055 109.107 88.072 109.097 88.0864C109.087 88.1014 109.068 88.1132 109.041 88.1224C109.015 88.1315 108.979 88.1387 108.935 88.1446C108.89 88.1498 108.834 88.1531 108.766 88.1531C108.698 88.1531 108.645 88.1505 108.6 88.1446C108.556 88.1387 108.521 88.1315 108.495 88.1224C108.469 88.1132 108.45 88.1014 108.439 88.0864C108.428 88.0714 108.423 88.055 108.423 88.0367V85.1225H108.418L107.38 88.0341C107.372 88.0583 107.36 88.0779 107.344 88.0936C107.327 88.1093 107.304 88.1217 107.276 88.1309C107.247 88.14 107.21 88.1459 107.167 88.1492C107.123 88.1524 107.069 88.1531 107.006 88.1531C106.943 88.1531 106.889 88.1505 106.845 88.1459C106.8 88.1413 106.764 88.1341 106.736 88.1237C106.707 88.1132 106.685 88.1008 106.668 88.0864C106.651 88.072 106.64 88.0544 106.634 88.0341L105.632 85.1225H105.627V88.0367C105.627 88.055 105.622 88.072 105.612 88.0864C105.602 88.1014 105.583 88.1132 105.555 88.1224C105.528 88.1315 105.492 88.1387 105.449 88.1446C105.405 88.1498 105.349 88.1531 105.281 88.1531C105.213 88.1531 105.16 88.1505 105.115 88.1446C105.071 88.1394 105.035 88.1315 105.009 88.1224C104.982 88.1132 104.964 88.1014 104.953 88.0864C104.943 88.0714 104.938 88.055 104.938 88.0367V84.8453C104.938 84.7512 104.963 84.6792 105.013 84.6296C105.062 84.5799 105.129 84.555 105.212 84.555H105.688C105.773 84.555 105.845 84.5622 105.906 84.576C105.967 84.5897 106.02 84.6126 106.064 84.6453C106.108 84.6773 106.145 84.7198 106.174 84.7727C106.204 84.825 106.23 84.8904 106.252 84.9682L107.027 87.1019H107.038L107.841 84.9734C107.865 84.8956 107.892 84.8303 107.92 84.7766C107.949 84.723 107.982 84.6799 108.02 84.6466C108.058 84.6132 108.102 84.5897 108.154 84.576C108.205 84.5622 108.265 84.555 108.333 84.555H108.823C108.873 84.555 108.916 84.5616 108.952 84.5747C108.988 84.5877 109.017 84.6067 109.04 84.6315C109.063 84.6564 109.081 84.6871 109.092 84.723C109.104 84.759 109.111 84.8002 109.111 84.8459V88.0374L109.112 88.0367Z" fill="#002F67"/>
<path d="M0 77.189L2.88157 69.6059C2.88157 69.6059 5.34411 72.3299 8.17665 72.3299C11.0092 72.3299 12.535 69.7805 12.535 67.9501V40.5013H21.6144V69.991C21.6144 69.991 21.9975 74.2747 18.1314 78.1408C14.2653 82.0069 4.86428 82.0533 0 77.189Z" fill="#002F67"/>
<path d="M43.5354 63.8173C43.5354 63.8173 46.2516 63.1636 48.2709 61.1442C50.2902 59.1249 51.7571 56.2048 51.7571 52.1668C51.7571 48.1288 50.0431 45.4264 48.5324 43.9156C47.0216 42.4042 44.3774 40.5013 36.9688 40.5013H24.6136V80.3347H33.5695V64.3841L45.8541 80.3347H57.2196L43.5354 63.8173ZM36.8747 58.1084H33.5695V47.7144H36.6786C37.8768 47.7144 42.126 48.1282 42.126 52.5518C42.126 56.9755 39.7288 58.1084 36.8747 58.1084Z" fill="#CF0820"/>
<path d="M98.65 80.3347H89.5418L87.7408 56.648H87.3917L79.2569 80.0078H73.8527L65.7178 56.648H65.3688L63.5678 80.3347H54.4596L58.0746 40.5013H67.8202L76.5551 63.3159L85.2894 40.5013H95.0349L98.65 80.3347Z" fill="#002F67"/>
<path d="M98.0185 75.8528C98.884 74.3473 99.7704 72.8313 100.678 71.3043C101.316 70.2302 101.955 69.1679 102.594 68.1174C102.594 68.1174 107.824 72.628 112.662 72.628C117.499 72.628 118.066 69.9916 118.066 68.662C118.066 64.4638 109.297 63.663 104.469 58.8347C102.192 56.5578 101.49 53.7723 101.49 51.3026C101.49 48.8329 102.681 45.9278 104.28 44.3294C105.878 42.7311 108.964 39.826 114.71 39.826C122.213 39.826 126.789 43.5522 126.789 43.5522C125.576 45.9199 124.363 48.2877 123.15 50.6561C122.091 49.9128 120.486 48.9956 118.378 48.5132C116.931 48.1824 112.81 47.2398 111.1 49.4284C110.525 50.1645 110.146 51.3516 110.461 52.4584C110.989 54.3201 113.095 54.611 117.753 56.8958C121.05 58.5124 122.928 59.4544 124.727 61.3992C125.531 62.2686 126.963 63.8166 127.632 66.1929C128.662 69.853 127.434 73.8976 125.154 76.5745C121.874 80.4262 117.023 80.6857 113.598 80.8694C112.741 80.9152 108.754 81.0766 104.034 79.2436C101.366 78.2075 99.3553 76.8791 98.0185 75.8528Z" fill="#002F67"/>
</svg>
