<svg width="24" height="25" viewBox="0 0 24 25" fill="none" xmlns="http://www.w3.org/2000/svg">
<g id="tabler-icon-mail">
<path id="Vector" d="M3 7.26221C3 6.73177 3.21071 6.22307 3.58579 5.84799C3.96086 5.47292 4.46957 5.26221 5 5.26221H19C19.5304 5.26221 20.0391 5.47292 20.4142 5.84799C20.7893 6.22307 21 6.73177 21 7.26221M3 7.26221V17.2622C3 17.7926 3.21071 18.3013 3.58579 18.6764C3.96086 19.0515 4.46957 19.2622 5 19.2622H19C19.5304 19.2622 20.0391 19.0515 20.4142 18.6764C20.7893 18.3013 21 17.7926 21 17.2622V7.26221M3 7.26221L12 13.2622L21 7.26221" stroke="#0075FF" stroke-width="1.5" stroke-linecap="round" stroke-linejoin="round"/>
</g>
</svg>
