<svg width="20" height="20" viewBox="0 0 20 20" fill="none" xmlns="http://www.w3.org/2000/svg">
<g id="Record Management/Actions">
<path id="Vector" d="M13.7958 3.20234L13.2655 3.73263L13.2655 3.73267L13.7958 3.20234ZM16.7975 6.20401L16.2672 6.73434L16.2672 6.73438L16.7975 6.20401ZM16.7975 9.59484L16.2672 9.06447L16.2672 9.06451L16.7975 9.59484ZM14.595 11.7973L14.0647 11.267L14.0646 11.267L14.595 11.7973ZM11.2042 11.7973L11.7345 11.267L11.7345 11.267L11.2042 11.7973ZM10.9533 11.5465L11.4837 11.0162C11.1908 10.7233 10.7159 10.7233 10.423 11.0162L10.9533 11.5465ZM5.48833 17.0115L6.01862 17.5419L6.01866 17.5418L5.48833 17.0115ZM4.45583 17.4932L4.49008 18.2424C4.50057 18.2419 4.51104 18.2412 4.5215 18.2403L4.45583 17.4932ZM4.31 17.4998V18.2498C4.32142 18.2498 4.33284 18.2496 4.34425 18.2491L4.31 17.4998ZM3.33333 17.4998L3.33323 18.2498H3.33333V17.4998ZM2.50583 16.764L1.75717 16.8088C1.75803 16.8232 1.7593 16.8375 1.76098 16.8518L2.50583 16.764ZM2.5 16.6665H1.75C1.75 16.6814 1.75045 16.6964 1.75134 16.7113L2.5 16.6665ZM2.5 15.6898L1.75 15.6897V15.6898H2.5ZM2.88917 14.6198L2.33595 14.1134C2.32855 14.1215 2.32133 14.1298 2.31429 14.1382L2.88917 14.6198ZM2.98833 14.5115L2.458 13.9812C2.4502 13.989 2.44257 13.997 2.43511 14.0051L2.98833 14.5115ZM3.33333 14.1665V13.4165C3.13442 13.4165 2.94366 13.4955 2.803 13.6362L3.33333 14.1665ZM5 14.1665V14.9165C5.41421 14.9165 5.75 14.5807 5.75 14.1665H5ZM5 12.4998V11.7498C4.58579 11.7498 4.25 12.0856 4.25 12.4998H5ZM6.66667 12.4998V13.2498C7.08088 13.2498 7.41667 12.9141 7.41667 12.4998H6.66667ZM6.66667 10.8332L6.13634 10.3028C5.99568 10.4435 5.91667 10.6343 5.91667 10.8332H6.66667ZM8.45333 9.04651L8.98366 9.57684C9.27656 9.28394 9.27656 8.80907 8.98366 8.51618L8.45333 9.04651ZM8.2025 8.79567L8.73283 8.26534L8.73279 8.2653L8.2025 8.79567ZM8.2025 5.40484L8.73279 5.93521L8.73283 5.93517L8.2025 5.40484ZM10.405 3.20234L10.9353 3.73267L10.9354 3.73263L10.405 3.20234ZM12.1004 2.5V1.75V2.5ZM12.5 6.75C12.0858 6.75 11.75 7.08579 11.75 7.5C11.75 7.91421 12.0858 8.25 12.5 8.25V6.75ZM12.5083 8.25C12.9225 8.25 13.2583 7.91421 13.2583 7.5C13.2583 7.08579 12.9225 6.75 12.5083 6.75V8.25ZM13.2655 3.73267L16.2672 6.73434L17.3278 5.67368L14.3262 2.67201L13.2655 3.73267ZM16.2672 6.73438C16.4202 6.88737 16.5416 7.06899 16.6244 7.26889L18.0102 6.69482C17.852 6.31291 17.6201 5.96591 17.3278 5.67364L16.2672 6.73438ZM16.6244 7.26889C16.7072 7.46879 16.7498 7.68305 16.7498 7.89942H18.2498C18.2498 7.48605 18.1684 7.07672 18.0102 6.69482L16.6244 7.26889ZM16.7498 7.89942C16.7498 8.1158 16.7072 8.33005 16.6244 8.52995L18.0102 9.10403C18.1684 8.72213 18.2498 8.3128 18.2498 7.89942H16.7498ZM16.6244 8.52995C16.5416 8.72985 16.4202 8.91148 16.2672 9.06447L17.3278 10.1252C17.6201 9.83293 17.852 9.48593 18.0102 9.10403L16.6244 8.52995ZM16.2672 9.06451L14.0647 11.267L15.1253 12.3277L17.3278 10.1252L16.2672 9.06451ZM14.0646 11.267C13.9116 11.4201 13.73 11.5414 13.5301 11.6242L14.1042 13.01C14.4861 12.8518 14.8331 12.62 15.1254 12.3276L14.0646 11.267ZM13.5301 11.6242C13.3302 11.7071 13.116 11.7497 12.8996 11.7497V13.2497C13.313 13.2497 13.7223 13.1683 14.1042 13.01L13.5301 11.6242ZM12.8996 11.7497C12.6832 11.7497 12.469 11.7071 12.2691 11.6242L11.695 13.01C12.0769 13.1683 12.4862 13.2497 12.8996 13.2497V11.7497ZM12.2691 11.6242C12.0692 11.5414 11.8875 11.4201 11.7345 11.267L10.6738 12.3276C10.9661 12.62 11.3131 12.8518 11.695 13.01L12.2691 11.6242ZM11.7345 11.267L11.4837 11.0162L10.423 12.0768L10.6738 12.3277L11.7345 11.267ZM10.423 11.0162L4.958 16.4812L6.01866 17.5418L11.4837 12.0768L10.423 11.0162ZM4.95804 16.4811C4.80575 16.6334 4.6047 16.7272 4.39017 16.7461L4.5215 18.2403C5.08709 18.1906 5.61712 17.9433 6.01862 17.5419L4.95804 16.4811ZM4.42159 16.744L4.27575 16.7506L4.34425 18.2491L4.49008 18.2424L4.42159 16.744ZM4.31 16.7498H3.33333V18.2498H4.31V16.7498ZM3.33343 16.7498C3.31302 16.7498 3.29332 16.7423 3.27807 16.7288L2.28131 17.8497C2.57112 18.1074 2.94542 18.2498 3.33323 18.2498L3.33343 16.7498ZM3.27807 16.7288C3.26281 16.7152 3.25307 16.6965 3.25068 16.6763L1.76098 16.8518C1.80636 17.2369 1.99151 17.592 2.28131 17.8497L3.27807 16.7288ZM3.25449 16.7192L3.24866 16.6217L1.75134 16.7113L1.75717 16.8088L3.25449 16.7192ZM3.25 16.6665V15.6898H1.75V16.6665H3.25ZM3.25 15.69C3.25005 15.4748 3.32582 15.2665 3.46404 15.1015L2.31429 14.1382C1.9499 14.573 1.75014 15.1223 1.75 15.6897L3.25 15.69ZM3.44239 15.1262L3.54155 15.0179L2.43511 14.0051L2.33595 14.1134L3.44239 15.1262ZM3.51866 15.0418L3.86366 14.6968L2.803 13.6362L2.458 13.9812L3.51866 15.0418ZM3.33333 14.9165H5V13.4165H3.33333V14.9165ZM5.75 14.1665V12.4998H4.25V14.1665H5.75ZM5 13.2498H6.66667V11.7498H5V13.2498ZM7.41667 12.4998V10.8332H5.91667V12.4998H7.41667ZM7.197 11.3635L8.98366 9.57684L7.923 8.51618L6.13634 10.3028L7.197 11.3635ZM8.98366 8.51618L8.73283 8.26534L7.67217 9.326L7.923 9.57684L8.98366 8.51618ZM8.73279 8.2653C8.57978 8.11232 8.4584 7.93069 8.37559 7.73079L6.9898 8.30486C7.148 8.68677 7.37989 9.03377 7.67221 9.32604L8.73279 8.2653ZM8.37559 7.73079C8.29278 7.53089 8.25016 7.31663 8.25016 7.10026H6.75016C6.75016 7.51363 6.83159 7.92296 6.9898 8.30486L8.37559 7.73079ZM8.25016 7.10026C8.25016 6.88388 8.29278 6.66963 8.37559 6.46973L6.9898 5.89565C6.83159 6.27755 6.75016 6.68688 6.75016 7.10026H8.25016ZM8.37559 6.46973C8.4584 6.26983 8.57978 6.0882 8.73279 5.93521L7.67221 4.87447C7.37989 5.16675 7.148 5.51375 6.9898 5.89565L8.37559 6.46973ZM8.73283 5.93517L10.9353 3.73267L9.87467 2.67201L7.67217 4.87451L8.73283 5.93517ZM10.9354 3.73263C11.0884 3.57962 11.27 3.45824 11.4699 3.37543L10.8958 1.98963C10.5139 2.14784 10.1669 2.37973 9.87463 2.67205L10.9354 3.73263ZM11.4699 3.37543C11.6698 3.29262 11.884 3.25 12.1004 3.25V1.75C11.687 1.75 11.2777 1.83143 10.8958 1.98963L11.4699 3.37543ZM12.1004 3.25C12.3168 3.25 12.531 3.29262 12.7309 3.37543L13.305 1.98963C12.9231 1.83143 12.5138 1.75 12.1004 1.75V3.25ZM12.7309 3.37543C12.9308 3.45824 13.1125 3.57962 13.2655 3.73263L14.3262 2.67205C14.0339 2.37973 13.6869 2.14784 13.305 1.98963L12.7309 3.37543ZM12.5 8.25H12.5083V6.75H12.5V8.25Z" fill="#7E7E7E"/>
</g>
</svg>
