<svg width="20" height="20" viewBox="0 0 20 20" fill="none" xmlns="http://www.w3.org/2000/svg">
<g id="pdf">
<path id="Vector" d="M11.6665 2.5V5.83333C11.6665 6.05435 11.7543 6.26631 11.9106 6.42259C12.0669 6.57887 12.2788 6.66667 12.4998 6.66667H15.8332M11.6665 2.5H5.83317C5.39114 2.5 4.96722 2.67559 4.65466 2.98816C4.3421 3.30072 4.1665 3.72464 4.1665 4.16667V10M11.6665 2.5L15.8332 6.66667M15.8332 6.66667V10M4.1665 15H5.4165C5.74802 15 6.06597 14.8683 6.30039 14.6339C6.53481 14.3995 6.6665 14.0815 6.6665 13.75C6.6665 13.4185 6.53481 13.1005 6.30039 12.8661C6.06597 12.6317 5.74802 12.5 5.4165 12.5H4.1665V17.5M14.1665 15H15.8332M16.6665 12.5H14.1665V17.5M9.1665 12.5V17.5H9.99984C10.4419 17.5 10.8658 17.3244 11.1783 17.0118C11.4909 16.6993 11.6665 16.2754 11.6665 15.8333V14.1667C11.6665 13.7246 11.4909 13.3007 11.1783 12.9882C10.8658 12.6756 10.4419 12.5 9.99984 12.5H9.1665Z" stroke="#7E7E7E" stroke-width="1.5" stroke-linecap="round" stroke-linejoin="round"/>
</g>
</svg>
