<svg width="20" height="20" viewBox="0 0 20 20" fill="none" xmlns="http://www.w3.org/2000/svg">
<path d="M10.417 17.5H5.83366C5.39163 17.5 4.96771 17.3244 4.65515 17.0118C4.34259 16.6993 4.16699 16.2754 4.16699 15.8333V10.8333C4.16699 10.3913 4.34259 9.96738 4.65515 9.65482C4.96771 9.34226 5.39163 9.16667 5.83366 9.16667H14.167C14.4643 9.16651 14.7562 9.24585 15.0124 9.39648C15.2687 9.54711 15.48 9.76354 15.6245 10.0233M6.66699 9.16667V5.83333C6.66699 4.94928 7.01818 4.10143 7.6433 3.47631C8.26842 2.85119 9.11627 2.5 10.0003 2.5C10.8844 2.5 11.7322 2.85119 12.3573 3.47631C12.9825 4.10143 13.3337 4.94928 13.3337 5.83333V9.16667M14.167 17.5L17.5003 14.1667M9.16699 13.3333C9.16699 13.5543 9.25479 13.7663 9.41107 13.9226C9.56735 14.0789 9.77931 14.1667 10.0003 14.1667C10.2213 14.1667 10.4333 14.0789 10.5896 13.9226C10.7459 13.7663 10.8337 13.5543 10.8337 13.3333C10.8337 13.1123 10.7459 12.9004 10.5896 12.7441C10.4333 12.5878 10.2213 12.5 10.0003 12.5C9.77931 12.5 9.56735 12.5878 9.41107 12.7441C9.25479 12.9004 9.16699 13.1123 9.16699 13.3333ZM13.3337 15.8333C13.3337 16.4964 13.5971 17.1323 14.0659 17.6011C14.5347 18.0699 15.1706 18.3333 15.8337 18.3333C16.4967 18.3333 17.1326 18.0699 17.6014 17.6011C18.0703 17.1323 18.3337 16.4964 18.3337 15.8333C18.3337 15.1703 18.0703 14.5344 17.6014 14.0656C17.1326 13.5967 16.4967 13.3333 15.8337 13.3333C15.1706 13.3333 14.5347 13.5967 14.0659 14.0656C13.5971 14.5344 13.3337 15.1703 13.3337 15.8333Z" stroke="#7E7E7E" stroke-width="1.5" stroke-linecap="round" stroke-linejoin="round"/>
</svg>
