<svg width="16" height="16" viewBox="0 0 16 16" fill="none" xmlns="http://www.w3.org/2000/svg">
<g id="Record Management/Actions">
<path id="Vector" d="M8.74967 3.33301C8.74967 2.91879 8.41389 2.58301 7.99967 2.58301C7.58546 2.58301 7.24967 2.91879 7.24967 3.33301H8.74967ZM7.24967 12.6663C7.24967 13.0806 7.58546 13.4163 7.99967 13.4163C8.41389 13.4163 8.74967 13.0806 8.74967 12.6663H7.24967ZM3.33301 7.24967C2.91879 7.24967 2.58301 7.58546 2.58301 7.99967C2.58301 8.41389 2.91879 8.74967 3.33301 8.74967V7.24967ZM12.6663 8.74967C13.0806 8.74967 13.4163 8.41389 13.4163 7.99967C13.4163 7.58546 13.0806 7.24967 12.6663 7.24967V8.74967ZM7.24967 3.33301V12.6663H8.74967V3.33301H7.24967ZM3.33301 8.74967H12.6663V7.24967H3.33301V8.74967Z" fill="white"/>
</g>
</svg>
