<svg width="20" height="20" viewBox="0 0 20 20" fill="none" xmlns="http://www.w3.org/2000/svg">
<g id="Record Management/Actions">
<path id="Vector" d="M6.66699 9.16666V4.99999C6.66699 4.11593 7.01818 3.26809 7.6433 2.64297C8.26842 2.01785 9.11627 1.66666 10.0003 1.66666C10.8844 1.66666 11.7322 2.01785 12.3573 2.64297C12.9825 3.26809 13.3337 4.11593 13.3337 4.99999M4.16699 10.8333C4.16699 10.3913 4.34259 9.96737 4.65515 9.65481C4.96771 9.34225 5.39163 9.16666 5.83366 9.16666H14.167C14.609 9.16666 15.0329 9.34225 15.3455 9.65481C15.6581 9.96737 15.8337 10.3913 15.8337 10.8333V15.8333C15.8337 16.2754 15.6581 16.6993 15.3455 17.0118C15.0329 17.3244 14.609 17.5 14.167 17.5H5.83366C5.39163 17.5 4.96771 17.3244 4.65515 17.0118C4.34259 16.6993 4.16699 16.2754 4.16699 15.8333V10.8333ZM9.16699 13.3333C9.16699 13.5543 9.25479 13.7663 9.41107 13.9226C9.56735 14.0789 9.77931 14.1667 10.0003 14.1667C10.2213 14.1667 10.4333 14.0789 10.5896 13.9226C10.7459 13.7663 10.8337 13.5543 10.8337 13.3333C10.8337 13.1123 10.7459 12.9003 10.5896 12.7441C10.4333 12.5878 10.2213 12.5 10.0003 12.5C9.77931 12.5 9.56735 12.5878 9.41107 12.7441C9.25479 12.9003 9.16699 13.1123 9.16699 13.3333Z" stroke="#7E7E7E" stroke-width="1.5" stroke-linecap="round" stroke-linejoin="round"/>
</g>
</svg>
