<svg width="38" height="36" viewBox="0 0 38 36" fill="none" xmlns="http://www.w3.org/2000/svg">
<rect width="38" height="36" rx="6" fill="#E5E9F2"/>
<path d="M11.99 10H15.99L18.99 13H25.99C26.5204 13 27.0291 13.2107 27.4042 13.5858C27.7793 13.9609 27.99 14.4696 27.99 15V23C27.99 23.5304 27.7793 24.0391 27.4042 24.4142C27.0291 24.7893 26.5204 25 25.99 25H11.99C11.4596 25 10.9508 24.7893 10.5758 24.4142C10.2007 24.0391 9.98999 23.5304 9.98999 23V12C9.98999 11.4696 10.2007 10.9609 10.5758 10.5858C10.9508 10.2107 11.4596 10 11.99 10Z" stroke="#002680" stroke-width="1.5" stroke-linecap="round" stroke-linejoin="round"/>
</svg>
