<svg width="20" height="20" viewBox="0 0 20 20" fill="none" xmlns="http://www.w3.org/2000/svg">
<g id="Record Management/Actions">
<path id="Vector" d="M17.5008 9.99998L3.9158 3.36164C3.83825 3.33184 3.7536 3.32575 3.67259 3.34415C3.59158 3.36255 3.51786 3.4046 3.4608 3.46498C3.40206 3.52695 3.36162 3.60398 3.34397 3.68752C3.32632 3.77107 3.33215 3.85787 3.3608 3.93831L5.41746 9.99998M17.5008 9.99998L3.9158 16.6383C3.83825 16.6681 3.7536 16.6742 3.67259 16.6558C3.59158 16.6374 3.51786 16.5953 3.4608 16.535C3.40206 16.473 3.36162 16.396 3.34397 16.3124C3.32632 16.2289 3.33215 16.1421 3.3608 16.0616L5.41746 9.99998M17.5008 9.99998H5.41746" stroke="#7E7E7E" stroke-width="1.5" stroke-linecap="round" stroke-linejoin="round"/>
</g>
</svg>
