<svg width="16" height="16" viewBox="0 0 16 16" fill="none" xmlns="http://www.w3.org/2000/svg">
<g id="Record Management/Actions">
<path id="Vector" d="M2.66675 3.91667C2.25253 3.91667 1.91675 4.25245 1.91675 4.66667C1.91675 5.08088 2.25253 5.41667 2.66675 5.41667V3.91667ZM13.3334 5.41667C13.7476 5.41667 14.0834 5.08088 14.0834 4.66667C14.0834 4.25245 13.7476 3.91667 13.3334 3.91667V5.41667ZM7.41675 7.33333C7.41675 6.91912 7.08096 6.58333 6.66675 6.58333C6.25253 6.58333 5.91675 6.91912 5.91675 7.33333H7.41675ZM5.91675 11.3333C5.91675 11.7475 6.25253 12.0833 6.66675 12.0833C7.08096 12.0833 7.41675 11.7475 7.41675 11.3333H5.91675ZM10.0834 7.33333C10.0834 6.91912 9.74763 6.58333 9.33341 6.58333C8.9192 6.58333 8.58341 6.91912 8.58341 7.33333H10.0834ZM8.58341 11.3333C8.58341 11.7475 8.9192 12.0833 9.33341 12.0833C9.74763 12.0833 10.0834 11.7475 10.0834 11.3333H8.58341ZM4.08082 4.60438C4.04643 4.1916 3.68391 3.88486 3.27113 3.91926C2.85835 3.95366 2.55161 4.31617 2.58601 4.72895L4.08082 4.60438ZM4.00008 12.6667H4.75008C4.75008 12.6459 4.74922 12.6251 4.74749 12.6044L4.00008 12.6667ZM12.0001 12.6667L11.2527 12.6044C11.2509 12.6251 11.2501 12.6459 11.2501 12.6667H12.0001ZM13.4142 4.72895C13.4486 4.31617 13.1418 3.95366 12.729 3.91926C12.3162 3.88486 11.9537 4.1916 11.9193 4.60438L13.4142 4.72895ZM5.25008 4.66667C5.25008 5.08088 5.58587 5.41667 6.00008 5.41667C6.41429 5.41667 6.75008 5.08088 6.75008 4.66667H5.25008ZM6.66675 2V1.25V2ZM9.33341 2V1.25V2ZM9.25008 4.66667C9.25008 5.08088 9.58587 5.41667 10.0001 5.41667C10.4143 5.41667 10.7501 5.08088 10.7501 4.66667H9.25008ZM2.66675 5.41667H13.3334V3.91667H2.66675V5.41667ZM5.91675 7.33333V11.3333H7.41675V7.33333H5.91675ZM8.58341 7.33333V11.3333H10.0834V7.33333H8.58341ZM2.58601 4.72895L3.25267 12.729L4.74749 12.6044L4.08082 4.60438L2.58601 4.72895ZM3.25008 12.6667C3.25008 13.2192 3.46957 13.7491 3.86028 14.1398L4.92094 13.0791C4.81154 12.9697 4.75008 12.8214 4.75008 12.6667H3.25008ZM3.86028 14.1398C4.25098 14.5305 4.78088 14.75 5.33341 14.75V13.25C5.17871 13.25 5.03033 13.1885 4.92094 13.0791L3.86028 14.1398ZM5.33341 14.75H10.6667V13.25H5.33341V14.75ZM10.6667 14.75C11.2193 14.75 11.7492 14.5305 12.1399 14.1398L11.0792 13.0791C10.9698 13.1885 10.8215 13.25 10.6667 13.25V14.75ZM12.1399 14.1398C12.5306 13.7491 12.7501 13.2192 12.7501 12.6667H11.2501C11.2501 12.8214 11.1886 12.9697 11.0792 13.0791L12.1399 14.1398ZM12.7475 12.729L13.4142 4.72895L11.9193 4.60438L11.2527 12.6044L12.7475 12.729ZM6.75008 4.66667V2.66667H5.25008V4.66667H6.75008ZM6.75008 2.66667C6.75008 2.68877 6.7413 2.70996 6.72567 2.72559L5.66501 1.66493C5.39934 1.93061 5.25008 2.29094 5.25008 2.66667H6.75008ZM6.72567 2.72559C6.71005 2.74122 6.68885 2.75 6.66675 2.75V1.25C6.29102 1.25 5.93069 1.39926 5.66501 1.66493L6.72567 2.72559ZM6.66675 2.75H9.33341V1.25H6.66675V2.75ZM9.33341 2.75C9.31131 2.75 9.29012 2.74122 9.27449 2.72559L10.3351 1.66493C10.0695 1.39926 9.70914 1.25 9.33341 1.25L9.33341 2.75ZM9.27449 2.72559C9.25886 2.70996 9.25008 2.68877 9.25008 2.66667H10.7501C10.7501 2.29094 10.6008 1.93061 10.3351 1.66493L9.27449 2.72559ZM9.25008 2.66667V4.66667H10.7501V2.66667H9.25008Z" fill="white"/>
</g>
</svg>
