<svg width="80" height="80" viewBox="0 0 80 80" fill="none" xmlns="http://www.w3.org/2000/svg">
<g clip-path="url(#clip0_9614_49665)">
<path d="M29.2956 23.666L24.3491 19.9869C23.1802 19.1255 21.7774 18.658 20.3255 18.658H6.75342C4.71084 18.658 3.06201 20.3068 3.06201 22.3494V65.3542H52.7853C54.6556 65.3542 56.1567 63.8408 56.1567 61.9828V28.6863C56.1567 26.6437 54.5079 24.9949 52.4653 24.9949H33.3192C31.8673 24.9949 30.4522 24.5273 29.2956 23.666Z" fill="#405CA0"/>
<path d="M13.4597 35.2078L3.06226 65.342H53.5361C55.1111 65.342 56.5138 64.3453 57.0306 62.8564L65.7423 37.6072C66.5667 35.2078 64.7826 32.71 62.2478 32.71H16.9419C15.3669 32.7223 13.9765 33.7189 13.4597 35.2078Z" fill="#BFC9DF"/>
</g>
<path d="M60 13.6875C60.4314 13.6875 60.7812 13.3377 60.7812 12.9062V9.78125C60.7812 9.34984 60.4314 9 60 9C59.5685 9 59.2188 9.34984 59.2188 9.78125V12.9062C59.2188 13.3377 59.5685 13.6875 60 13.6875Z" fill="#FF9F43"/>
<path d="M79.2188 28.2188H76.0938C75.6623 28.2188 75.3125 28.5686 75.3125 29C75.3125 29.4314 75.6623 29.7812 76.0938 29.7812H79.2188C79.6502 29.7812 80 29.4314 80 29C80 28.5686 79.6502 28.2188 79.2188 28.2188Z" fill="#FF9F43"/>
<path d="M51.2765 15.4531C51.4211 15.7037 51.6837 15.8439 51.9537 15.8439C52.0862 15.8439 52.2206 15.81 52.3436 15.739C52.7173 15.5232 52.8454 15.0455 52.6296 14.6718L51.0671 11.9655C50.8513 11.5918 50.3735 11.4637 49.9999 11.6796C49.6262 11.8953 49.4982 12.3731 49.714 12.7468L51.2765 15.4531Z" fill="#FF9F43"/>
<path d="M73.9387 21.7346C74.0712 21.7346 74.2055 21.7008 74.3285 21.6298L77.0348 20.0673C77.4085 19.8515 77.5366 19.3738 77.3208 19.0001C77.1051 18.6266 76.6273 18.4984 76.2536 18.7142L73.5473 20.2767C73.1736 20.4924 73.0455 20.9702 73.2613 21.3439C73.4061 21.5945 73.6686 21.7346 73.9387 21.7346Z" fill="#FF9F43"/>
<path d="M42.9655 20.0672L45.6718 21.6297C45.7948 21.7008 45.9291 21.7346 46.0617 21.7346C46.3317 21.7346 46.5943 21.5944 46.739 21.3438C46.9548 20.9701 46.8267 20.4924 46.453 20.2766L43.7467 18.7141C43.3731 18.4985 42.8953 18.6265 42.6795 19.0001C42.4638 19.3737 42.5918 19.8515 42.9655 20.0672Z" fill="#FF9F43"/>
<path d="M77.0348 37.9329L74.3285 36.3704C73.9547 36.1547 73.4771 36.2827 73.2613 36.6563C73.0455 37.03 73.1736 37.5077 73.5473 37.7235L76.2536 39.286C76.3766 39.357 76.5109 39.3909 76.6434 39.3909C76.9134 39.3909 77.176 39.2507 77.3208 39.0001C77.5366 38.6264 77.4085 38.1487 77.0348 37.9329Z" fill="#FF9F43"/>
<path d="M67.6561 15.739C67.7792 15.81 67.9135 15.8439 68.046 15.8439C68.316 15.8439 68.5786 15.7037 68.7233 15.4531L70.2858 12.7468C70.5016 12.3731 70.3736 11.8953 69.9999 11.6796C69.6261 11.4637 69.1485 11.5918 68.9327 11.9655L67.3702 14.6718C67.1544 15.0455 67.2825 15.5232 67.6561 15.739Z" fill="#FF9F43"/>
<rect x="48.5" y="19.5" width="22.5" height="22.5" rx="11.25" fill="#FF9F43"/>
<path d="M54.4375 30.75C54.4375 29.5546 54.5274 28.5372 54.7073 27.6976C54.901 26.8437 55.15 26.1322 55.4543 25.563C55.7587 24.9796 56.0977 24.5171 56.4712 24.1755C56.8586 23.8198 57.2459 23.5565 57.6333 23.3858C58.0345 23.2008 58.415 23.0798 58.7747 23.0229C59.1482 22.966 59.4733 22.9375 59.75 22.9375C60.0267 22.9375 60.3449 22.966 60.7046 23.0229C61.0781 23.0798 61.4586 23.2008 61.8459 23.3858C62.2472 23.5565 62.6345 23.8198 63.0081 24.1755C63.3954 24.5171 63.7413 24.9796 64.0457 25.563C64.35 26.1322 64.5921 26.8437 64.772 27.6976C64.9657 28.5372 65.0625 29.5546 65.0625 30.75C65.0625 31.9454 64.9657 32.9699 64.772 33.8238C64.5921 34.6634 64.35 35.3749 64.0457 35.9583C63.7413 36.5276 63.3954 36.99 63.0081 37.3458C62.6345 37.6873 62.2472 37.9506 61.8459 38.1356C61.4586 38.3064 61.0781 38.4202 60.7046 38.4771C60.3449 38.534 60.0267 38.5625 59.75 38.5625C59.4733 38.5625 59.1482 38.534 58.7747 38.4771C58.415 38.4202 58.0345 38.3064 57.6333 38.1356C57.2459 37.9506 56.8586 37.6873 56.4712 37.3458C56.0977 36.99 55.7587 36.5276 55.4543 35.9583C55.15 35.3749 54.901 34.6634 54.7073 33.8238C54.5274 32.9699 54.4375 31.9454 54.4375 30.75ZM56.9277 30.75C56.9277 31.2196 56.9554 31.7675 57.0107 32.3936C57.0799 33.0055 57.2113 33.589 57.405 34.144C57.5987 34.6989 57.8823 35.1685 58.2559 35.5528C58.6294 35.937 59.1274 36.1291 59.75 36.1291C60.3726 36.1291 60.8706 35.937 61.2441 35.5528C61.6177 35.1685 61.9013 34.6989 62.095 34.144C62.2887 33.589 62.4132 33.0055 62.4685 32.3936C62.5377 31.7675 62.5723 31.2196 62.5723 30.75C62.5723 30.2804 62.5377 29.7396 62.4685 29.1277C62.4132 28.5016 62.2887 27.911 62.095 27.356C61.9013 26.8011 61.6177 26.3315 61.2441 25.9472C60.8706 25.563 60.3726 25.3709 59.75 25.3709C59.1274 25.3709 58.6294 25.563 58.2559 25.9472C57.8823 26.3315 57.5987 26.8011 57.405 27.356C57.2113 27.911 57.0799 28.5016 57.0107 29.1277C56.9554 29.7396 56.9277 30.2804 56.9277 30.75Z" fill="white"/>
<defs>
<clipPath id="clip0_9614_49665">
<rect width="63" height="63" fill="white" transform="translate(3 10.5)"/>
</clipPath>
</defs>
</svg>
