<svg width="30" height="31" viewBox="0 0 30 31" fill="none" xmlns="http://www.w3.org/2000/svg">
<path d="M6.25 5.7825H11.25L15 9.5325H23.75C25.1307 9.5325 26.25 10.6518 26.25 12.0325V22.0325C26.25 23.4132 25.1307 24.5325 23.75 24.5325H6.25C4.86929 24.5325 3.75 23.4132 3.75 22.0325V8.2825C3.75 6.90179 4.86929 5.7825 6.25 5.7825" stroke="#7E7E7E" stroke-width="1.5" stroke-linecap="round" stroke-linejoin="round"/>
<path d="M13.0303 14.0022C12.7374 13.7093 12.2626 13.7093 11.9697 14.0022C11.6768 14.2951 11.6768 14.7699 11.9697 15.0628L13.0303 14.0022ZM16.9697 20.0628C17.2626 20.3557 17.7374 20.3557 18.0303 20.0628C18.3232 19.7699 18.3232 19.2951 18.0303 19.0022L16.9697 20.0628ZM18.0303 15.0628C18.3232 14.7699 18.3232 14.2951 18.0303 14.0022C17.7374 13.7093 17.2626 13.7093 16.9697 14.0022L18.0303 15.0628ZM11.9697 19.0022C11.6768 19.2951 11.6768 19.7699 11.9697 20.0628C12.2626 20.3557 12.7374 20.3557 13.0303 20.0628L11.9697 19.0022ZM11.9697 15.0628L16.9697 20.0628L18.0303 19.0022L13.0303 14.0022L11.9697 15.0628ZM16.9697 14.0022L11.9697 19.0022L13.0303 20.0628L18.0303 15.0628L16.9697 14.0022Z" fill="#7E7E7E"/>
</svg>
