<svg width="18" height="18" viewBox="0 0 18 18" fill="none" xmlns="http://www.w3.org/2000/svg">
<g id="Record Management/File Disposition Plan">
<path id="Vector" d="M12.75 15H4.5C3.90326 15 3.33097 14.7629 2.90901 14.341C2.48705 13.919 2.25 13.3467 2.25 12.75C2.25 12.1533 2.48705 11.581 2.90901 11.159C3.33097 10.7371 3.90326 10.5 4.5 10.5H12.75C12.1533 10.5 11.581 10.7371 11.159 11.159C10.7371 11.581 10.5 12.1533 10.5 12.75C10.5 13.3467 10.7371 13.919 11.159 14.341C11.581 14.7629 12.1533 15 12.75 15ZM12.75 15H13.5C14.0967 15 14.669 14.7629 15.091 14.341C15.5129 13.919 15.75 13.3467 15.75 12.75V4.5C15.75 4.10218 15.592 3.72064 15.3107 3.43934C15.0294 3.15804 14.6478 3 14.25 3H6.75C6.35218 3 5.97064 3.15804 5.68934 3.43934C5.40804 3.72064 5.25 4.10218 5.25 4.5V10.5" stroke="#002680" stroke-width="1.5" stroke-linecap="round" stroke-linejoin="round"/>
</g>
</svg>
