<svg width="16" height="16" viewBox="0 0 16 16" fill="none" xmlns="http://www.w3.org/2000/svg">
<g id="user-plus">
<ellipse id="Oval" cx="6.00001" cy="4.66667" rx="2.66667" ry="2.66667" stroke="white" stroke-width="1.5" stroke-linecap="round" stroke-linejoin="round"/>
<path id="Path" d="M2 14V12.6667C2 11.1939 3.19391 10 4.66667 10H7.33333C8.80609 10 10 11.1939 10 12.6667V14" stroke="white" stroke-width="1.5" stroke-linecap="round" stroke-linejoin="round"/>
<path id="Shape" d="M10.6667 6.58301C10.2524 6.58301 9.91666 6.91879 9.91666 7.33301C9.91666 7.74722 10.2524 8.08301 10.6667 8.08301V6.58301ZM14.6667 8.08301C15.0809 8.08301 15.4167 7.74722 15.4167 7.33301C15.4167 6.91879 15.0809 6.58301 14.6667 6.58301V8.08301ZM13.4167 5.33301C13.4167 4.91879 13.0809 4.58301 12.6667 4.58301C12.2524 4.58301 11.9167 4.91879 11.9167 5.33301H13.4167ZM11.9167 9.33301C11.9167 9.74722 12.2524 10.083 12.6667 10.083C13.0809 10.083 13.4167 9.74722 13.4167 9.33301H11.9167ZM10.6667 8.08301H14.6667V6.58301H10.6667V8.08301ZM11.9167 5.33301V9.33301H13.4167V5.33301H11.9167Z" fill="white"/>
</g>
</svg>
