<svg width="20" height="20" viewBox="0 0 20 20" fill="none" xmlns="http://www.w3.org/2000/svg">
<g id="Record Management/Actions">
<path id="Vector" d="M12.5 6.66665H14.1667M12.5 9.99998H14.1667M5.83333 13.3333H14.1667M2.5 5.83331C2.5 5.17027 2.76339 4.53439 3.23223 4.06555C3.70107 3.59671 4.33696 3.33331 5 3.33331H15C15.663 3.33331 16.2989 3.59671 16.7678 4.06555C17.2366 4.53439 17.5 5.17027 17.5 5.83331V14.1666C17.5 14.8297 17.2366 15.4656 16.7678 15.9344C16.2989 16.4033 15.663 16.6666 15 16.6666H5C4.33696 16.6666 3.70107 16.4033 3.23223 15.9344C2.76339 15.4656 2.5 14.8297 2.5 14.1666V5.83331ZM5.83333 8.33331C5.83333 8.77534 6.00893 9.19926 6.32149 9.51182C6.63405 9.82438 7.05797 9.99998 7.5 9.99998C7.94203 9.99998 8.36595 9.82438 8.67851 9.51182C8.99107 9.19926 9.16667 8.77534 9.16667 8.33331C9.16667 7.89129 8.99107 7.46736 8.67851 7.1548C8.36595 6.84224 7.94203 6.66665 7.5 6.66665C7.05797 6.66665 6.63405 6.84224 6.32149 7.1548C6.00893 7.46736 5.83333 7.89129 5.83333 8.33331Z" stroke="#7E7E7E" stroke-width="1.5" stroke-linecap="round" stroke-linejoin="round"/>
</g>
</svg>
