<svg width="16" height="18" viewBox="0 0 16 18" fill="none" xmlns="http://www.w3.org/2000/svg">
<path id="Vector" d="M10.8427 0H3.4427C2.36163 0 1.48172 0.860204 1.48172 1.91578V8.99998H1.29015C0.853823 8.99998 0.5 9.34535 0.5 9.772V14.4538C0.5 14.8804 0.853823 15.2257 1.29015 15.2257H1.48172V16.0842C1.48172 17.141 2.36159 18 3.4427 18H13.5396C14.6201 18 15.5 17.1409 15.5 16.0842V4.53413L10.8427 0ZM2.51158 10.5739H3.3743L3.66518 11.1664C3.76393 11.3636 3.83806 11.523 3.91694 11.706H3.92657C4.00544 11.4989 4.06964 11.3541 4.15363 11.1664L4.43462 10.5739H5.29252L4.35567 12.1584L5.34186 13.8206H4.47402L4.1732 13.2328C4.05004 13.0063 3.97116 12.838 3.87716 12.6498H3.86753C3.79824 12.838 3.71459 13.0063 3.61096 13.2328L3.33479 13.8206H2.47688L3.43842 12.1778L2.51158 10.5739ZM13.5396 16.8268H3.4427C3.02407 16.8268 2.68324 16.4937 2.68324 16.0842V15.2257H12.0957C12.532 15.2257 12.8859 14.8804 12.8859 14.4538V9.772C12.8859 9.34535 12.532 8.99998 12.0957 8.99998H2.68324V1.91578C2.68324 1.50742 3.02411 1.1744 3.4427 1.1744L10.3934 1.16731V3.67736C10.3934 4.41052 11.0023 5.00595 11.7533 5.00595L14.2702 4.9989L14.2985 16.0842C14.2985 16.4937 13.9582 16.8268 13.5396 16.8268ZM7.82389 13.204V13.8207H5.74784V10.574H6.50222V13.204H7.82389ZM9.09733 12.4574C8.54506 12.2697 8.1849 11.9708 8.1849 11.4989C8.1849 10.9446 8.65829 10.521 9.44244 10.521C9.81732 10.521 10.0931 10.598 10.2907 10.6846L10.123 11.2771C9.98989 11.2147 9.75316 11.1229 9.42762 11.1229C9.10211 11.1229 8.94436 11.2677 8.94436 11.436C8.94436 11.6431 9.13165 11.7349 9.56075 11.8937C10.1476 12.1056 10.4238 12.4045 10.4238 12.8623C10.4238 13.4065 9.99471 13.869 9.08258 13.869C8.70281 13.869 8.32789 13.7725 8.14061 13.6712L8.29362 13.0646C8.49565 13.1659 8.80641 13.2665 9.12679 13.2665C9.4719 13.2665 9.65442 13.127 9.65442 12.9151C9.65442 12.7127 9.49667 12.5968 9.09733 12.4574Z" fill="white"/>
</svg>
